<?xml version="1.0" standalone="no"?>

<svg 
     version="1.1"
     baseProfile="full"
     xmlns="http://www.w3.org/2000/svg"
     xmlns:xlink="http://www.w3.org/1999/xlink"
     xmlns:ev="http://www.w3.org/2001/xml-events"
     xmlns:klighd="http://de.cau.cs.kieler/klighd"
     xml:space="preserve"
     x="0px"
     y="0px"
     width="852px"
     height="590px"
     viewBox="0 0 852 590"
     preserveAspectRatio="xMidYMin slice"
     >
<title></title>
<desc>Creator: FreeHEP Graphics2D Driver Producer: de.cau.cs.kieler.klighd.piccolo.freehep.SemanticSVGGraphics2D Revision Source:  Date: Tuesday, October 29, 2019 1:05:21 AM CET</desc>
<g stroke-linejoin="miter" stroke-dashoffset="0" stroke-dasharray="none" stroke-width="1" stroke-miterlimit="10" stroke-linecap="square">
<g transform="matrix(1, 0, 0, 1, 3, 0)">
<g fill-opacity="1" fill-rule="nonzero" stroke="none" fill="#ffffff">
  <path d="M 0.5 1.5 L 0.5 588.9457397460938 C 0.5 589.4980244959246 0.9477152501692067 589.9457397460938 1.5 589.9457397460938 L 844.5 589.9457397460938 C 845.0522847498308 589.9457397460938 845.5 589.4980244959246 845.5 588.9457397460938 L 845.5 1.5 C 845.5 0.9477152501692067 845.0522847498308 0.5 844.5 0.5 L 1.5 0.5 C 0.9477152501692067 0.5 0.5 0.9477152501692067 0.5 1.5 z"/>
</g>
</g>
<g transform="matrix(1, 0, 0, 1, 3, 0)">
<g stroke-linecap="butt" fill="none" stroke-opacity="1" stroke="#000000">
  <path d="M 0.5 1.5 L 0.5 588.9457397460938 C 0.5 589.4980244959246 0.9477152501692067 589.9457397460938 1.5 589.9457397460938 L 844.5 589.9457397460938 C 845.0522847498308 589.9457397460938 845.5 589.4980244959246 845.5 588.9457397460938 L 845.5 1.5 C 845.5 0.9477152501692067 845.0522847498308 0.5 844.5 0.5 L 1.5 0.5 C 0.9477152501692067 0.5 0.5 0.9477152501692067 0.5 1.5 z"/>
</g>
</g>
<g transform="matrix(1, 0, 0, 1, 326.5, 4)">
<g fill-opacity="0" fill-rule="nonzero" stroke="none" fill="#000000">
  <path d="M 0 0 L 199 0 L 199 20 L 0 20 L 0 0 z"/>
</g>
</g>
<g transform="matrix(1, 0, 0, 1, 326.5, 4)">
<clipPath id="clip1">
  <path d="M -326.5 -4 L -326.5 586.4457397460938 L 525.5 586.4457397460938 L 525.5 -4 z"/>
</clipPath>
<g clip-path="url(#clip1)">
<text fill-opacity="1" font-style="normal" font-family="Helvetica" font-weight="bold" stroke="none" fill="#000000" font-size="14.666666984558105px" x="0" y="0"><tspan x="0" dy="15.0">work.pingpong_fifo(stack_a)</tspan>
</text>
</g>
</g>
<g transform="matrix(1, 0, 0, 1, 3, 24)">
<g stroke-linecap="butt" fill="none" stroke-opacity="1" stroke="#000000">
  <path d="M 0 1.5 L 846 1.5"/>
</g>
</g>
<g transform="matrix(1, 0, 0, 1, 465.5, 347.4457702636719)">
<g fill-opacity="1" fill-rule="nonzero" stroke="none" fill="#ffffff">
  <path d="M 0.5 1.5 L 0.5 218.5 C 0.5 219.0522847498308 0.9477152501692067 219.5 1.5 219.5 L 261.5 219.5 C 262.0522847498308 219.5 262.5 219.0522847498308 262.5 218.5 L 262.5 1.5 C 262.5 0.9477152501692067 262.0522847498308 0.5 261.5 0.5 L 1.5 0.5 C 0.9477152501692067 0.5 0.5 0.9477152501692067 0.5 1.5 z"/>
</g>
</g>
<g transform="matrix(1, 0, 0, 1, 465.5, 347.4457702636719)">
<g stroke-linecap="butt" fill="none" stroke-opacity="1" stroke="#000000">
  <path d="M 0.5 1.5 L 0.5 218.5 C 0.5 219.0522847498308 0.9477152501692067 219.5 1.5 219.5 L 261.5 219.5 C 262.0522847498308 219.5 262.5 219.0522847498308 262.5 218.5 L 262.5 1.5 C 262.5 0.9477152501692067 262.0522847498308 0.5 261.5 0.5 L 1.5 0.5 C 0.9477152501692067 0.5 0.5 0.9477152501692067 0.5 1.5 z"/>
</g>
</g>
<g transform="matrix(1, 0, 0, 1, 470.5, 351.4457702636719)">
<g fill-opacity="0" fill-rule="nonzero" stroke="none" fill="#000000">
  <path d="M 0 0 L 253 0 L 253 20 L 0 20 L 0 0 z"/>
</g>
</g>
<g transform="matrix(1, 0, 0, 1, 470.5, 351.4457702636719)">
<clipPath id="clip2">
  <path d="M -470.5 -351.4457702636719 L -470.5 238.99996948242188 L 381.5 238.99996948242188 L 381.5 -351.4457702636719 z"/>
</clipPath>
<g clip-path="url(#clip2)">
<text fill-opacity="1" font-style="normal" font-family="Helvetica" font-weight="bold" stroke="none" fill="#000000" font-size="14.666666984558105px" x="0" y="0"><tspan x="0" dy="15.0">reg_file_configs : reg_file_ssdpRAM</tspan>
</text>
</g>
</g>
<g transform="matrix(1, 0, 0, 1, 465.5, 371.4457702636719)">
<g stroke-linecap="butt" fill="none" stroke-opacity="1" stroke="#000000">
  <path d="M 0 1.5 L 263 1.5"/>
</g>
</g>
<g transform="matrix(1, 0, 0, 1, 463, 550.4457702636719)">
<g fill-opacity="1" fill-rule="nonzero" stroke="none" fill="#000000">
  <path d="M 0 0 L 0 5 L 5 2.5 z"/>
</g>
</g>
<g transform="matrix(1, 0, 0, 1, 463, 550.4457702636719)">
<g stroke-linecap="butt" fill="none" stroke-opacity="1" stroke="#000000">
  <path d="M 0 0 L 0 5 L 5 2.5 z"/>
</g>
</g>
<g transform="matrix(1, 0, 0, 1, 471, 544.4457702636719)">
<clipPath id="clip3">
  <path d="M -471 -544.4457702636719 L -471 45.999969482421875 L 381 45.999969482421875 L 381 -544.4457702636719 z"/>
</clipPath>
<g clip-path="url(#clip3)">
<text fill-opacity="1" font-style="normal" font-family="Helvetica" font-weight="normal" stroke="none" fill="#000000" font-size="13.333333015441895px" x="0" y="0"><tspan x="0" dy="13.0">addr_r</tspan>
</text>
</g>
</g>
<g transform="matrix(1, 0, 0, 1, 463, 526.0171966552734)">
<g fill-opacity="1" fill-rule="nonzero" stroke="none" fill="#000000">
  <path d="M 0 0 L 0 5 L 5 2.5 z"/>
</g>
</g>
<g transform="matrix(1, 0, 0, 1, 463, 526.0171966552734)">
<g stroke-linecap="butt" fill="none" stroke-opacity="1" stroke="#000000">
  <path d="M 0 0 L 0 5 L 5 2.5 z"/>
</g>
</g>
<g transform="matrix(1, 0, 0, 1, 471, 520.0171966552734)">
<clipPath id="clip4">
  <path d="M -471 -520.0171966552734 L -471 70.42854309082031 L 381 70.42854309082031 L 381 -520.0171966552734 z"/>
</clipPath>
<g clip-path="url(#clip4)">
<text fill-opacity="1" font-style="normal" font-family="Helvetica" font-weight="normal" stroke="none" fill="#000000" font-size="13.333333015441895px" x="0" y="0"><tspan x="0" dy="13.0">re</tspan>
</text>
</g>
</g>
<g transform="matrix(1, 0, 0, 1, 463, 501.588623046875)">
<g fill-opacity="1" fill-rule="nonzero" stroke="none" fill="#000000">
  <path d="M 0 0 L 0 5 L 5 2.5 z"/>
</g>
</g>
<g transform="matrix(1, 0, 0, 1, 463, 501.588623046875)">
<g stroke-linecap="butt" fill="none" stroke-opacity="1" stroke="#000000">
  <path d="M 0 0 L 0 5 L 5 2.5 z"/>
</g>
</g>
<g transform="matrix(1, 0, 0, 1, 471, 495.588623046875)">
<clipPath id="clip5">
  <path d="M -471 -495.588623046875 L -471 94.85711669921875 L 381 94.85711669921875 L 381 -495.588623046875 z"/>
</clipPath>
<g clip-path="url(#clip5)">
<text fill-opacity="1" font-style="normal" font-family="Helvetica" font-weight="normal" stroke="none" fill="#000000" font-size="13.333333015441895px" x="0" y="0"><tspan x="0" dy="13.0">d_in</tspan>
</text>
</g>
</g>
<g transform="matrix(1, 0, 0, 1, 463, 477.16004943847656)">
<g fill-opacity="1" fill-rule="nonzero" stroke="none" fill="#000000">
  <path d="M 0 0 L 0 5 L 5 2.5 z"/>
</g>
</g>
<g transform="matrix(1, 0, 0, 1, 463, 477.16004943847656)">
<g stroke-linecap="butt" fill="none" stroke-opacity="1" stroke="#000000">
  <path d="M 0 0 L 0 5 L 5 2.5 z"/>
</g>
</g>
<g transform="matrix(1, 0, 0, 1, 471, 471.16004943847656)">
<clipPath id="clip6">
  <path d="M -471 -471.16004943847656 L -471 119.28569030761719 L 381 119.28569030761719 L 381 -471.16004943847656 z"/>
</clipPath>
<g clip-path="url(#clip6)">
<text fill-opacity="1" font-style="normal" font-family="Helvetica" font-weight="normal" stroke="none" fill="#000000" font-size="13.333333015441895px" x="0" y="0"><tspan x="0" dy="13.0">addr_w</tspan>
</text>
</g>
</g>
<g transform="matrix(1, 0, 0, 1, 463, 452.73148345947266)">
<g fill-opacity="1" fill-rule="nonzero" stroke="none" fill="#000000">
  <path d="M 0 0 L 0 5 L 5 2.5 z"/>
</g>
</g>
<g transform="matrix(1, 0, 0, 1, 463, 452.73148345947266)">
<g stroke-linecap="butt" fill="none" stroke-opacity="1" stroke="#000000">
  <path d="M 0 0 L 0 5 L 5 2.5 z"/>
</g>
</g>
<g transform="matrix(1, 0, 0, 1, 471, 446.73148345947266)">
<clipPath id="clip7">
  <path d="M -471 -446.73148345947266 L -471 143.7142562866211 L 381 143.7142562866211 L 381 -446.73148345947266 z"/>
</clipPath>
<g clip-path="url(#clip7)">
<text fill-opacity="1" font-style="normal" font-family="Helvetica" font-weight="normal" stroke="none" fill="#000000" font-size="13.333333015441895px" x="0" y="0"><tspan x="0" dy="13.0">we</tspan>
</text>
</g>
</g>
<g transform="matrix(1, 0, 0, 1, 463, 428.3029098510742)">
<g fill-opacity="1" fill-rule="nonzero" stroke="none" fill="#000000">
  <path d="M 0 0 L 0 5 L 5 2.5 z"/>
</g>
</g>
<g transform="matrix(1, 0, 0, 1, 463, 428.3029098510742)">
<g stroke-linecap="butt" fill="none" stroke-opacity="1" stroke="#000000">
  <path d="M 0 0 L 0 5 L 5 2.5 z"/>
</g>
</g>
<g transform="matrix(1, 0, 0, 1, 471, 422.3029098510742)">
<clipPath id="clip8">
  <path d="M -471 -422.3029098510742 L -471 168.14282989501953 L 381 168.14282989501953 L 381 -422.3029098510742 z"/>
</clipPath>
<g clip-path="url(#clip8)">
<text fill-opacity="1" font-style="normal" font-family="Helvetica" font-weight="normal" stroke="none" fill="#000000" font-size="13.333333015441895px" x="0" y="0"><tspan x="0" dy="13.0">clear</tspan>
</text>
</g>
</g>
<g transform="matrix(1, 0, 0, 1, 463, 403.87434005737305)">
<g fill-opacity="1" fill-rule="nonzero" stroke="none" fill="#000000">
  <path d="M 0 0 L 0 5 L 5 2.5 z"/>
</g>
</g>
<g transform="matrix(1, 0, 0, 1, 463, 403.87434005737305)">
<g stroke-linecap="butt" fill="none" stroke-opacity="1" stroke="#000000">
  <path d="M 0 0 L 0 5 L 5 2.5 z"/>
</g>
</g>
<g transform="matrix(1, 0, 0, 1, 471, 397.87434005737305)">
<clipPath id="clip9">
  <path d="M -471 -397.87434005737305 L -471 192.5713996887207 L 381 192.5713996887207 L 381 -397.87434005737305 z"/>
</clipPath>
<g clip-path="url(#clip9)">
<text fill-opacity="1" font-style="normal" font-family="Helvetica" font-weight="normal" stroke="none" fill="#000000" font-size="13.333333015441895px" x="0" y="0"><tspan x="0" dy="13.0">reset_n</tspan>
</text>
</g>
</g>
<g transform="matrix(1, 0, 0, 1, 463, 379.4457702636719)">
<g fill-opacity="1" fill-rule="nonzero" stroke="none" fill="#000000">
  <path d="M 0 0 L 0 5 L 5 2.5 z"/>
</g>
</g>
<g transform="matrix(1, 0, 0, 1, 463, 379.4457702636719)">
<g stroke-linecap="butt" fill="none" stroke-opacity="1" stroke="#000000">
  <path d="M 0 0 L 0 5 L 5 2.5 z"/>
</g>
</g>
<g transform="matrix(1, 0, 0, 1, 471, 373.4457702636719)">
<clipPath id="clip10">
  <path d="M -471 -373.4457702636719 L -471 216.99996948242188 L 381 216.99996948242188 L 381 -373.4457702636719 z"/>
</clipPath>
<g clip-path="url(#clip10)">
<text fill-opacity="1" font-style="normal" font-family="Helvetica" font-weight="normal" stroke="none" fill="#000000" font-size="13.333333015441895px" x="0" y="0"><tspan x="0" dy="13.0">clk</tspan>
</text>
</g>
</g>
<g transform="matrix(1, 0, 0, 1, 726, 379.4457702636719)">
<g fill-opacity="1" fill-rule="nonzero" stroke="none" fill="#000000">
  <path d="M 0 0 L 0 5 L 5 2.5 z"/>
</g>
</g>
<g transform="matrix(1, 0, 0, 1, 726, 379.4457702636719)">
<g stroke-linecap="butt" fill="none" stroke-opacity="1" stroke="#000000">
  <path d="M 0 0 L 0 5 L 5 2.5 z"/>
</g>
</g>
<g transform="matrix(1, 0, 0, 1, 691, 373.4457702636719)">
<clipPath id="clip11">
  <path d="M -691 -373.4457702636719 L -691 216.99996948242188 L 161 216.99996948242188 L 161 -373.4457702636719 z"/>
</clipPath>
<g clip-path="url(#clip11)">
<text fill-opacity="1" font-style="normal" font-family="Helvetica" font-weight="normal" stroke="none" fill="#000000" font-size="13.333333015441895px" x="0" y="0"><tspan x="0" dy="13.0">d_out</tspan>
</text>
</g>
</g>
<g transform="matrix(1, 0, 0, 1, 726, 550.4457702636719)">
<g fill-opacity="1" fill-rule="nonzero" stroke="none" fill="#000000">
  <path d="M 0 0 L 0 5 L 5 2.5 z"/>
</g>
</g>
<g transform="matrix(1, 0, 0, 1, 726, 550.4457702636719)">
<g stroke-linecap="butt" fill="none" stroke-opacity="1" stroke="#000000">
  <path d="M 0 0 L 0 5 L 5 2.5 z"/>
</g>
</g>
<g transform="matrix(1, 0, 0, 1, 698, 544.4457702636719)">
<clipPath id="clip12">
  <path d="M -698 -544.4457702636719 L -698 45.999969482421875 L 154 45.999969482421875 L 154 -544.4457702636719 z"/>
</clipPath>
<g clip-path="url(#clip12)">
<text fill-opacity="1" font-style="normal" font-family="Helvetica" font-weight="normal" stroke="none" fill="#000000" font-size="13.333333015441895px" x="0" y="0"><tspan x="0" dy="13.0">r_ok</tspan>
</text>
</g>
</g>
<g transform="matrix(1, 0, 0, 1, 176.5, 243.7552947998047)">
<g fill-opacity="1" fill-rule="nonzero" stroke="none" fill="#ffffff">
  <path d="M 0.5 1.5 L 0.5 318.5 C 0.5 319.0522847498308 0.9477152501692067 319.5 1.5 319.5 L 192.5 319.5 C 193.0522847498308 319.5 193.5 319.0522847498308 193.5 318.5 L 193.5 1.5 C 193.5 0.9477152501692067 193.0522847498308 0.5 192.5 0.5 L 1.5 0.5 C 0.9477152501692067 0.5 0.5 0.9477152501692067 0.5 1.5 z"/>
</g>
</g>
<g transform="matrix(1, 0, 0, 1, 176.5, 243.7552947998047)">
<g stroke-linecap="butt" fill="none" stroke-opacity="1" stroke="#000000">
  <path d="M 0.5 1.5 L 0.5 318.5 C 0.5 319.0522847498308 0.9477152501692067 319.5 1.5 319.5 L 192.5 319.5 C 193.0522847498308 319.5 193.5 319.0522847498308 193.5 318.5 L 193.5 1.5 C 193.5 0.9477152501692067 193.0522847498308 0.5 192.5 0.5 L 1.5 0.5 C 0.9477152501692067 0.5 0.5 0.9477152501692067 0.5 1.5 z"/>
</g>
</g>
<g transform="matrix(1, 0, 0, 1, 181.5, 247.7552947998047)">
<g fill-opacity="0" fill-rule="nonzero" stroke="none" fill="#000000">
  <path d="M 0 0 L 184 0 L 184 20 L 0 20 L 0 0 z"/>
</g>
</g>
<g transform="matrix(1, 0, 0, 1, 181.5, 247.7552947998047)">
<clipPath id="clip13">
  <path d="M -181.5 -247.7552947998047 L -181.5 342.69044494628906 L 670.5 342.69044494628906 L 670.5 -247.7552947998047 z"/>
</clipPath>
<g clip-path="url(#clip13)">
<text fill-opacity="1" font-style="normal" font-family="Helvetica" font-weight="bold" stroke="none" fill="#000000" font-size="14.666666984558105px" x="0" y="0"><tspan x="0" dy="15.0">controler : open_controler</tspan>
</text>
</g>
</g>
<g transform="matrix(1, 0, 0, 1, 176.5, 267.7552947998047)">
<g stroke-linecap="butt" fill="none" stroke-opacity="1" stroke="#000000">
  <path d="M 0 1.5 L 194 1.5"/>
</g>
</g>
<g transform="matrix(1, 0, 0, 1, 174, 546.7552947998047)">
<g fill-opacity="1" fill-rule="nonzero" stroke="none" fill="#000000">
  <path d="M 0 0 L 0 5 L 5 2.5 z"/>
</g>
</g>
<g transform="matrix(1, 0, 0, 1, 174, 546.7552947998047)">
<g stroke-linecap="butt" fill="none" stroke-opacity="1" stroke="#000000">
  <path d="M 0 0 L 0 5 L 5 2.5 z"/>
</g>
</g>
<g transform="matrix(1, 0, 0, 1, 182, 540.7552947998047)">
<clipPath id="clip14">
  <path d="M -182 -540.7552947998047 L -182 49.69044494628906 L 670 49.69044494628906 L 670 -540.7552947998047 z"/>
</clipPath>
<g clip-path="url(#clip14)">
<text fill-opacity="1" font-style="normal" font-family="Helvetica" font-weight="normal" stroke="none" fill="#000000" font-size="13.333333015441895px" x="0" y="0"><tspan x="0" dy="13.0">rf_c_r_ok</tspan>
</text>
</g>
</g>
<g transform="matrix(1, 0, 0, 1, 174, 516.6441802978516)">
<g fill-opacity="1" fill-rule="nonzero" stroke="none" fill="#000000">
  <path d="M 0 0 L 0 5 L 5 2.5 z"/>
</g>
</g>
<g transform="matrix(1, 0, 0, 1, 174, 516.6441802978516)">
<g stroke-linecap="butt" fill="none" stroke-opacity="1" stroke="#000000">
  <path d="M 0 0 L 0 5 L 5 2.5 z"/>
</g>
</g>
<g transform="matrix(1, 0, 0, 1, 182, 510.64418029785156)">
<clipPath id="clip15">
  <path d="M -182 -510.64418029785156 L -182 79.80155944824219 L 670 79.80155944824219 L 670 -510.64418029785156 z"/>
</clipPath>
<g clip-path="url(#clip15)">
<text fill-opacity="1" font-style="normal" font-family="Helvetica" font-weight="normal" stroke="none" fill="#000000" font-size="13.333333015441895px" x="0" y="0"><tspan x="0" dy="13.0">rf_c_r_data</tspan>
</text>
</g>
</g>
<g transform="matrix(1, 0, 0, 1, 174, 486.53306579589844)">
<g fill-opacity="1" fill-rule="nonzero" stroke="none" fill="#000000">
  <path d="M 0 0 L 0 5 L 5 2.5 z"/>
</g>
</g>
<g transform="matrix(1, 0, 0, 1, 174, 486.53306579589844)">
<g stroke-linecap="butt" fill="none" stroke-opacity="1" stroke="#000000">
  <path d="M 0 0 L 0 5 L 5 2.5 z"/>
</g>
</g>
<g transform="matrix(1, 0, 0, 1, 182, 480.53306579589844)">
<clipPath id="clip16">
  <path d="M -182 -480.53306579589844 L -182 109.91267395019531 L 670 109.91267395019531 L 670 -480.53306579589844 z"/>
</clipPath>
<g clip-path="url(#clip16)">
<text fill-opacity="1" font-style="normal" font-family="Helvetica" font-weight="normal" stroke="none" fill="#000000" font-size="13.333333015441895px" x="0" y="0"><tspan x="0" dy="13.0">mark_last</tspan>
</text>
</g>
</g>
<g transform="matrix(1, 0, 0, 1, 174, 456.4219665527344)">
<g fill-opacity="1" fill-rule="nonzero" stroke="none" fill="#000000">
  <path d="M 0 0 L 0 5 L 5 2.5 z"/>
</g>
</g>
<g transform="matrix(1, 0, 0, 1, 174, 456.4219665527344)">
<g stroke-linecap="butt" fill="none" stroke-opacity="1" stroke="#000000">
  <path d="M 0 0 L 0 5 L 5 2.5 z"/>
</g>
</g>
<g transform="matrix(1, 0, 0, 1, 182, 450.4219665527344)">
<clipPath id="clip17">
  <path d="M -182 -450.4219665527344 L -182 140.02377319335938 L 670 140.02377319335938 L 670 -450.4219665527344 z"/>
</clipPath>
<g clip-path="url(#clip17)">
<text fill-opacity="1" font-style="normal" font-family="Helvetica" font-weight="normal" stroke="none" fill="#000000" font-size="13.333333015441895px" x="0" y="0"><tspan x="0" dy="13.0">data_in</tspan>
</text>
</g>
</g>
<g transform="matrix(1, 0, 0, 1, 174, 426.31085205078125)">
<g fill-opacity="1" fill-rule="nonzero" stroke="none" fill="#000000">
  <path d="M 0 0 L 0 5 L 5 2.5 z"/>
</g>
</g>
<g transform="matrix(1, 0, 0, 1, 174, 426.31085205078125)">
<g stroke-linecap="butt" fill="none" stroke-opacity="1" stroke="#000000">
  <path d="M 0 0 L 0 5 L 5 2.5 z"/>
</g>
</g>
<g transform="matrix(1, 0, 0, 1, 182, 420.31085205078125)">
<clipPath id="clip18">
  <path d="M -182 -420.31085205078125 L -182 170.1348876953125 L 670 170.1348876953125 L 670 -420.31085205078125 z"/>
</clipPath>
<g clip-path="url(#clip18)">
<text fill-opacity="1" font-style="normal" font-family="Helvetica" font-weight="normal" stroke="none" fill="#000000" font-size="13.333333015441895px" x="0" y="0"><tspan x="0" dy="13.0">push_enable</tspan>
</text>
</g>
</g>
<g transform="matrix(1, 0, 0, 1, 174, 396.1997375488281)">
<g fill-opacity="1" fill-rule="nonzero" stroke="none" fill="#000000">
  <path d="M 0 0 L 0 5 L 5 2.5 z"/>
</g>
</g>
<g transform="matrix(1, 0, 0, 1, 174, 396.1997375488281)">
<g stroke-linecap="butt" fill="none" stroke-opacity="1" stroke="#000000">
  <path d="M 0 0 L 0 5 L 5 2.5 z"/>
</g>
</g>
<g transform="matrix(1, 0, 0, 1, 182, 390.1997375488281)">
<clipPath id="clip19">
  <path d="M -182 -390.1997375488281 L -182 200.24600219726562 L 670 200.24600219726562 L 670 -390.1997375488281 z"/>
</clipPath>
<g clip-path="url(#clip19)">
<text fill-opacity="1" font-style="normal" font-family="Helvetica" font-weight="normal" stroke="none" fill="#000000" font-size="13.333333015441895px" x="0" y="0"><tspan x="0" dy="13.0">pop_enable</tspan>
</text>
</g>
</g>
<g transform="matrix(1, 0, 0, 1, 174, 366.08863067626953)">
<g fill-opacity="1" fill-rule="nonzero" stroke="none" fill="#000000">
  <path d="M 0 0 L 0 5 L 5 2.5 z"/>
</g>
</g>
<g transform="matrix(1, 0, 0, 1, 174, 366.08863067626953)">
<g stroke-linecap="butt" fill="none" stroke-opacity="1" stroke="#000000">
  <path d="M 0 0 L 0 5 L 5 2.5 z"/>
</g>
</g>
<g transform="matrix(1, 0, 0, 1, 182, 360.08863067626953)">
<clipPath id="clip20">
  <path d="M -182 -360.08863067626953 L -182 230.35710906982422 L 670 230.35710906982422 L 670 -360.08863067626953 z"/>
</clipPath>
<g clip-path="url(#clip20)">
<text fill-opacity="1" font-style="normal" font-family="Helvetica" font-weight="normal" stroke="none" fill="#000000" font-size="13.333333015441895px" x="0" y="0"><tspan x="0" dy="13.0">is_pingpong</tspan>
</text>
</g>
</g>
<g transform="matrix(1, 0, 0, 1, 174, 335.9775161743164)">
<g fill-opacity="1" fill-rule="nonzero" stroke="none" fill="#000000">
  <path d="M 0 0 L 0 5 L 5 2.5 z"/>
</g>
</g>
<g transform="matrix(1, 0, 0, 1, 174, 335.9775161743164)">
<g stroke-linecap="butt" fill="none" stroke-opacity="1" stroke="#000000">
  <path d="M 0 0 L 0 5 L 5 2.5 z"/>
</g>
</g>
<g transform="matrix(1, 0, 0, 1, 182, 329.9775161743164)">
<clipPath id="clip21">
  <path d="M -182 -329.9775161743164 L -182 260.46822357177734 L 670 260.46822357177734 L 670 -329.9775161743164 z"/>
</clipPath>
<g clip-path="url(#clip21)">
<text fill-opacity="1" font-style="normal" font-family="Helvetica" font-weight="normal" stroke="none" fill="#000000" font-size="13.333333015441895px" x="0" y="0"><tspan x="0" dy="13.0">reset_n</tspan>
</text>
</g>
</g>
<g transform="matrix(1, 0, 0, 1, 174, 305.86640548706055)">
<g fill-opacity="1" fill-rule="nonzero" stroke="none" fill="#000000">
  <path d="M 0 0 L 0 5 L 5 2.5 z"/>
</g>
</g>
<g transform="matrix(1, 0, 0, 1, 174, 305.86640548706055)">
<g stroke-linecap="butt" fill="none" stroke-opacity="1" stroke="#000000">
  <path d="M 0 0 L 0 5 L 5 2.5 z"/>
</g>
</g>
<g transform="matrix(1, 0, 0, 1, 182, 299.86640548706055)">
<clipPath id="clip22">
  <path d="M -182 -299.86640548706055 L -182 290.5793342590332 L 670 290.5793342590332 L 670 -299.86640548706055 z"/>
</clipPath>
<g clip-path="url(#clip22)">
<text fill-opacity="1" font-style="normal" font-family="Helvetica" font-weight="normal" stroke="none" fill="#000000" font-size="13.333333015441895px" x="0" y="0"><tspan x="0" dy="13.0">reset</tspan>
</text>
</g>
</g>
<g transform="matrix(1, 0, 0, 1, 174, 275.7552947998047)">
<g fill-opacity="1" fill-rule="nonzero" stroke="none" fill="#000000">
  <path d="M 0 0 L 0 5 L 5 2.5 z"/>
</g>
</g>
<g transform="matrix(1, 0, 0, 1, 174, 275.7552947998047)">
<g stroke-linecap="butt" fill="none" stroke-opacity="1" stroke="#000000">
  <path d="M 0 0 L 0 5 L 5 2.5 z"/>
</g>
</g>
<g transform="matrix(1, 0, 0, 1, 182, 269.7552947998047)">
<clipPath id="clip23">
  <path d="M -182 -269.7552947998047 L -182 320.69044494628906 L 670 320.69044494628906 L 670 -269.7552947998047 z"/>
</clipPath>
<g clip-path="url(#clip23)">
<text fill-opacity="1" font-style="normal" font-family="Helvetica" font-weight="normal" stroke="none" fill="#000000" font-size="13.333333015441895px" x="0" y="0"><tspan x="0" dy="13.0">clk</tspan>
</text>
</g>
</g>
<g transform="matrix(1, 0, 0, 1, 368, 275.7552947998047)">
<g fill-opacity="0" fill-rule="nonzero" stroke="none" fill="#000000">
  <path d="M 0 0 L 0 5 L 5 2.5 z"/>
</g>
</g>
<g transform="matrix(1, 0, 0, 1, 368, 275.7552947998047)">
<g stroke-linecap="butt" fill="none" stroke-opacity="1" stroke="#000000">
  <path d="M 0 0 L 0 5 L 5 2.5 z"/>
</g>
</g>
<g transform="matrix(1, 0, 0, 1, 315, 269.7552947998047)">
<clipPath id="clip24">
  <path d="M -315 -269.7552947998047 L -315 320.69044494628906 L 537 320.69044494628906 L 537 -269.7552947998047 z"/>
</clipPath>
<g clip-path="url(#clip24)">
<text fill-opacity="1" font-style="normal" font-family="Helvetica" font-weight="normal" stroke="none" fill="#000000" font-size="13.333333015441895px" x="0" y="0"><tspan x="0" dy="13.0">data_out</tspan>
</text>
</g>
</g>
<g transform="matrix(1, 0, 0, 1, 368, 298.33862686157227)">
<g fill-opacity="0" fill-rule="nonzero" stroke="none" fill="#000000">
  <path d="M 0 0 L 0 5 L 5 2.5 z"/>
</g>
</g>
<g transform="matrix(1, 0, 0, 1, 368, 298.33862686157227)">
<g stroke-linecap="butt" fill="none" stroke-opacity="1" stroke="#000000">
  <path d="M 0 0 L 0 5 L 5 2.5 z"/>
</g>
</g>
<g transform="matrix(1, 0, 0, 1, 301, 292.33862686157227)">
<clipPath id="clip25">
  <path d="M -301 -292.33862686157227 L -301 298.1071128845215 L 551 298.1071128845215 L 551 -292.33862686157227 z"/>
</clipPath>
<g clip-path="url(#clip25)">
<text fill-opacity="1" font-style="normal" font-family="Helvetica" font-weight="normal" stroke="none" fill="#000000" font-size="13.333333015441895px" x="0" y="0"><tspan x="0" dy="13.0">data_ready</tspan>
</text>
</g>
</g>
<g transform="matrix(1, 0, 0, 1, 368, 320.92195892333984)">
<g fill-opacity="1" fill-rule="nonzero" stroke="none" fill="#000000">
  <path d="M 0 0 L 0 5 L 5 2.5 z"/>
</g>
</g>
<g transform="matrix(1, 0, 0, 1, 368, 320.92195892333984)">
<g stroke-linecap="butt" fill="none" stroke-opacity="1" stroke="#000000">
  <path d="M 0 0 L 0 5 L 5 2.5 z"/>
</g>
</g>
<g transform="matrix(1, 0, 0, 1, 312, 314.92195892333984)">
<clipPath id="clip26">
  <path d="M -312 -314.92195892333984 L -312 275.5237808227539 L 540 275.5237808227539 L 540 -314.92195892333984 z"/>
</clipPath>
<g clip-path="url(#clip26)">
<text fill-opacity="1" font-style="normal" font-family="Helvetica" font-weight="normal" stroke="none" fill="#000000" font-size="13.333333015441895px" x="0" y="0"><tspan x="0" dy="13.0">is_empty</tspan>
</text>
</g>
</g>
<g transform="matrix(1, 0, 0, 1, 368, 343.5052947998047)">
<g fill-opacity="1" fill-rule="nonzero" stroke="none" fill="#000000">
  <path d="M 0 0 L 0 5 L 5 2.5 z"/>
</g>
</g>
<g transform="matrix(1, 0, 0, 1, 368, 343.5052947998047)">
<g stroke-linecap="butt" fill="none" stroke-opacity="1" stroke="#000000">
  <path d="M 0 0 L 0 5 L 5 2.5 z"/>
</g>
</g>
<g transform="matrix(1, 0, 0, 1, 331, 337.5052947998047)">
<clipPath id="clip27">
  <path d="M -331 -337.5052947998047 L -331 252.94044494628906 L 521 252.94044494628906 L 521 -337.5052947998047 z"/>
</clipPath>
<g clip-path="url(#clip27)">
<text fill-opacity="1" font-style="normal" font-family="Helvetica" font-weight="normal" stroke="none" fill="#000000" font-size="13.333333015441895px" x="0" y="0"><tspan x="0" dy="13.0">is_full</tspan>
</text>
</g>
</g>
<g transform="matrix(1, 0, 0, 1, 368, 366.08863067626953)">
<g fill-opacity="1" fill-rule="nonzero" stroke="none" fill="#000000">
  <path d="M 0 0 L 0 5 L 5 2.5 z"/>
</g>
</g>
<g transform="matrix(1, 0, 0, 1, 368, 366.08863067626953)">
<g stroke-linecap="butt" fill="none" stroke-opacity="1" stroke="#000000">
  <path d="M 0 0 L 0 5 L 5 2.5 z"/>
</g>
</g>
<g transform="matrix(1, 0, 0, 1, 327, 360.08863067626953)">
<clipPath id="clip28">
  <path d="M -327 -360.08863067626953 L -327 230.35710906982422 L 525 230.35710906982422 L 525 -360.08863067626953 z"/>
</clipPath>
<g clip-path="url(#clip28)">
<text fill-opacity="1" font-style="normal" font-family="Helvetica" font-weight="normal" stroke="none" fill="#000000" font-size="13.333333015441895px" x="0" y="0"><tspan x="0" dy="13.0">is_last</tspan>
</text>
</g>
</g>
<g transform="matrix(1, 0, 0, 1, 368, 388.6719665527344)">
<g fill-opacity="1" fill-rule="nonzero" stroke="none" fill="#000000">
  <path d="M 0 0 L 0 5 L 5 2.5 z"/>
</g>
</g>
<g transform="matrix(1, 0, 0, 1, 368, 388.6719665527344)">
<g stroke-linecap="butt" fill="none" stroke-opacity="1" stroke="#000000">
  <path d="M 0 0 L 0 5 L 5 2.5 z"/>
</g>
</g>
<g transform="matrix(1, 0, 0, 1, 292, 382.6719665527344)">
<clipPath id="clip29">
  <path d="M -292 -382.6719665527344 L -292 207.77377319335938 L 560 207.77377319335938 L 560 -382.6719665527344 z"/>
</clipPath>
<g clip-path="url(#clip29)">
<text fill-opacity="1" font-style="normal" font-family="Helvetica" font-weight="normal" stroke="none" fill="#000000" font-size="13.333333015441895px" x="0" y="0"><tspan x="0" dy="13.0">pop_is_done</tspan>
</text>
</g>
</g>
<g transform="matrix(1, 0, 0, 1, 368, 411.2552947998047)">
<g fill-opacity="1" fill-rule="nonzero" stroke="none" fill="#000000">
  <path d="M 0 0 L 0 5 L 5 2.5 z"/>
</g>
</g>
<g transform="matrix(1, 0, 0, 1, 368, 411.2552947998047)">
<g stroke-linecap="butt" fill="none" stroke-opacity="1" stroke="#000000">
  <path d="M 0 0 L 0 5 L 5 2.5 z"/>
</g>
</g>
<g transform="matrix(1, 0, 0, 1, 285, 405.2552947998047)">
<clipPath id="clip30">
  <path d="M -285 -405.2552947998047 L -285 185.19044494628906 L 567 185.19044494628906 L 567 -405.2552947998047 z"/>
</clipPath>
<g clip-path="url(#clip30)">
<text fill-opacity="1" font-style="normal" font-family="Helvetica" font-weight="normal" stroke="none" fill="#000000" font-size="13.333333015441895px" x="0" y="0"><tspan x="0" dy="13.0">push_is_done</tspan>
</text>
</g>
</g>
<g transform="matrix(1, 0, 0, 1, 368, 433.838623046875)">
<g fill-opacity="1" fill-rule="nonzero" stroke="none" fill="#000000">
  <path d="M 0 0 L 0 5 L 5 2.5 z"/>
</g>
</g>
<g transform="matrix(1, 0, 0, 1, 368, 433.838623046875)">
<g stroke-linecap="butt" fill="none" stroke-opacity="1" stroke="#000000">
  <path d="M 0 0 L 0 5 L 5 2.5 z"/>
</g>
</g>
<g transform="matrix(1, 0, 0, 1, 296, 427.838623046875)">
<clipPath id="clip31">
  <path d="M -296 -427.838623046875 L -296 162.60711669921875 L 556 162.60711669921875 L 556 -427.838623046875 z"/>
</clipPath>
<g clip-path="url(#clip31)">
<text fill-opacity="1" font-style="normal" font-family="Helvetica" font-weight="normal" stroke="none" fill="#000000" font-size="13.333333015441895px" x="0" y="0"><tspan x="0" dy="13.0">is_swapped</tspan>
</text>
</g>
</g>
<g transform="matrix(1, 0, 0, 1, 368, 456.4219665527344)">
<g fill-opacity="1" fill-rule="nonzero" stroke="none" fill="#000000">
  <path d="M 0 0 L 0 5 L 5 2.5 z"/>
</g>
</g>
<g transform="matrix(1, 0, 0, 1, 368, 456.4219665527344)">
<g stroke-linecap="butt" fill="none" stroke-opacity="1" stroke="#000000">
  <path d="M 0 0 L 0 5 L 5 2.5 z"/>
</g>
</g>
<g transform="matrix(1, 0, 0, 1, 332, 450.4219665527344)">
<clipPath id="clip32">
  <path d="M -332 -450.4219665527344 L -332 140.02377319335938 L 520 140.02377319335938 L 520 -450.4219665527344 z"/>
</clipPath>
<g clip-path="url(#clip32)">
<text fill-opacity="1" font-style="normal" font-family="Helvetica" font-weight="normal" stroke="none" fill="#000000" font-size="13.333333015441895px" x="0" y="0"><tspan x="0" dy="13.0">rf_c_r</tspan>
</text>
</g>
</g>
<g transform="matrix(1, 0, 0, 1, 368, 479.0052947998047)">
<g fill-opacity="1" fill-rule="nonzero" stroke="none" fill="#000000">
  <path d="M 0 0 L 0 5 L 5 2.5 z"/>
</g>
</g>
<g transform="matrix(1, 0, 0, 1, 368, 479.0052947998047)">
<g stroke-linecap="butt" fill="none" stroke-opacity="1" stroke="#000000">
  <path d="M 0 0 L 0 5 L 5 2.5 z"/>
</g>
</g>
<g transform="matrix(1, 0, 0, 1, 326, 473.0052947998047)">
<clipPath id="clip33">
  <path d="M -326 -473.0052947998047 L -326 117.44044494628906 L 526 117.44044494628906 L 526 -473.0052947998047 z"/>
</clipPath>
<g clip-path="url(#clip33)">
<text fill-opacity="1" font-style="normal" font-family="Helvetica" font-weight="normal" stroke="none" fill="#000000" font-size="13.333333015441895px" x="0" y="0"><tspan x="0" dy="13.0">rf_c_w</tspan>
</text>
</g>
</g>
<g transform="matrix(1, 0, 0, 1, 368, 501.58863830566406)">
<g fill-opacity="1" fill-rule="nonzero" stroke="none" fill="#000000">
  <path d="M 0 0 L 0 5 L 5 2.5 z"/>
</g>
</g>
<g transform="matrix(1, 0, 0, 1, 368, 501.58863830566406)">
<g stroke-linecap="butt" fill="none" stroke-opacity="1" stroke="#000000">
  <path d="M 0 0 L 0 5 L 5 2.5 z"/>
</g>
</g>
<g transform="matrix(1, 0, 0, 1, 294, 495.58863830566406)">
<clipPath id="clip34">
  <path d="M -294 -495.58863830566406 L -294 94.85710144042969 L 558 94.85710144042969 L 558 -495.58863830566406 z"/>
</clipPath>
<g clip-path="url(#clip34)">
<text fill-opacity="1" font-style="normal" font-family="Helvetica" font-weight="normal" stroke="none" fill="#000000" font-size="13.333333015441895px" x="0" y="0"><tspan x="0" dy="13.0">rf_c_w_data</tspan>
</text>
</g>
</g>
<g transform="matrix(1, 0, 0, 1, 368, 524.1719512939453)">
<g fill-opacity="1" fill-rule="nonzero" stroke="none" fill="#000000">
  <path d="M 0 0 L 0 5 L 5 2.5 z"/>
</g>
</g>
<g transform="matrix(1, 0, 0, 1, 368, 524.1719512939453)">
<g stroke-linecap="butt" fill="none" stroke-opacity="1" stroke="#000000">
  <path d="M 0 0 L 0 5 L 5 2.5 z"/>
</g>
</g>
<g transform="matrix(1, 0, 0, 1, 294, 518.1719512939453)">
<clipPath id="clip35">
  <path d="M -294 -518.1719512939453 L -294 72.27378845214844 L 558 72.27378845214844 L 558 -518.1719512939453 z"/>
</clipPath>
<g clip-path="url(#clip35)">
<text fill-opacity="1" font-style="normal" font-family="Helvetica" font-weight="normal" stroke="none" fill="#000000" font-size="13.333333015441895px" x="0" y="0"><tspan x="0" dy="13.0">rf_c_w_addr</tspan>
</text>
</g>
</g>
<g transform="matrix(1, 0, 0, 1, 368, 546.7552947998047)">
<g fill-opacity="1" fill-rule="nonzero" stroke="none" fill="#000000">
  <path d="M 0 0 L 0 5 L 5 2.5 z"/>
</g>
</g>
<g transform="matrix(1, 0, 0, 1, 368, 546.7552947998047)">
<g stroke-linecap="butt" fill="none" stroke-opacity="1" stroke="#000000">
  <path d="M 0 0 L 0 5 L 5 2.5 z"/>
</g>
</g>
<g transform="matrix(1, 0, 0, 1, 300, 540.7552947998047)">
<clipPath id="clip36">
  <path d="M -300 -540.7552947998047 L -300 49.69044494628906 L 552 49.69044494628906 L 552 -540.7552947998047 z"/>
</clipPath>
<g clip-path="url(#clip36)">
<text fill-opacity="1" font-style="normal" font-family="Helvetica" font-weight="normal" stroke="none" fill="#000000" font-size="13.333333015441895px" x="0" y="0"><tspan x="0" dy="13.0">rf_c_r_addr</tspan>
</text>
</g>
</g>
<g transform="matrix(1, 0, 0, 1, 6, 30)">
<g stroke-linecap="butt" fill="none" stroke-opacity="1" stroke="#757575">
  <path d="M -0.5 133.39837646484375 L 444 133.39837646484375 C 446.25 133.39837646484375 447 134.14837646484375 447 136.39837646484375 L 447 348.9457702636719 C 447 351.1957702636719 447.75 351.9457702636719 450 351.9457702636719 L 457 351.9457702636719"/>
</g>
</g>
<g transform="matrix(1, 0, 0, 1, 6, 30)">
<g stroke-linecap="butt" fill="none" stroke-opacity="1" stroke="#757575">
  <path d="M -0.5 182.92921447753906 L 147.26541137695312 182.92921447753906 C 148 182.92921447753906 148 184.39837646484375 148.73458862304688 184.39837646484375 L 374 184.39837646484375 C 376.25 184.39837646484375 377 185.14837646484375 377 187.39837646484375 L 377 373.37432861328125 C 377 375.62432861328125 377.75 376.37432861328125 380 376.37432861328125 L 457 376.37432861328125"/>
</g>
</g>
<g transform="matrix(1, 0, 0, 1, 152, 212.39838081928852)">
<g fill-opacity="1" fill-rule="nonzero" stroke="none" fill="#757575">
  <path d="M 3.5 2 C 3.5 2.82842712474619 2.82842712474619 3.5 2 3.5 C 1.17157287525381 3.5 0.5 2.82842712474619 0.5 2 C 0.5 1.17157287525381 1.17157287525381 0.5 2 0.5 C 2.82842712474619 0.5 3.5 1.17157287525381 3.5 2 z"/>
</g>
</g>
<g transform="matrix(1, 0, 0, 1, 152, 212.39838081928852)">
<g stroke-linecap="butt" fill="none" stroke-opacity="1" stroke="#757575">
  <path d="M 3.5 2 C 3.5 2.82842712474619 2.82842712474619 3.5 2 3.5 C 1.17157287525381 3.5 0.5 2.82842712474619 0.5 2 C 0.5 1.17157287525381 1.17157287525381 0.5 2 0.5 C 2.82842712474619 0.5 3.5 1.17157287525381 3.5 2 z"/>
</g>
</g>
<g transform="matrix(1, 0, 0, 1, 6, 30)">
<g stroke-width="3" stroke-linecap="butt" fill="none" stroke-opacity="1" stroke="#757575">
  <path d="M 725 351.9457702636719 L 840.5 351.9457702636719"/>
</g>
</g>
<g transform="matrix(1, 0, 0, 1, 6, 30)">
<g stroke-linecap="butt" fill="none" stroke-opacity="1" stroke="#757575">
  <path d="M 725 522.9457397460938 L 840.5 522.9457397460938"/>
</g>
</g>
<g transform="matrix(1, 0, 0, 1, 6, 30)">
<g stroke-linecap="butt" fill="none" stroke-opacity="1" stroke="#757575">
  <path d="M -0.5 133.39837646484375 L 155 133.39837646484375 C 157.25 133.39837646484375 158 134.14837646484375 158 136.39837646484375 L 158 245.2552947998047 C 158 247.5052947998047 158.75 248.2552947998047 161 248.2552947998047 L 168 248.2552947998047"/>
</g>
</g>
<g transform="matrix(1, 0, 0, 1, 162, 161.39838081928863)">
<g fill-opacity="1" fill-rule="nonzero" stroke="none" fill="#757575">
  <path d="M 3.5 2 C 3.5 2.82842712474619 2.82842712474619 3.5 2 3.5 C 1.17157287525381 3.5 0.5 2.82842712474619 0.5 2 C 0.5 1.17157287525381 1.17157287525381 0.5 2 0.5 C 2.82842712474619 0.5 3.5 1.17157287525381 3.5 2 z"/>
</g>
</g>
<g transform="matrix(1, 0, 0, 1, 162, 161.39838081928863)">
<g stroke-linecap="butt" fill="none" stroke-opacity="1" stroke="#757575">
  <path d="M 3.5 2 C 3.5 2.82842712474619 2.82842712474619 3.5 2 3.5 C 1.17157287525381 3.5 0.5 2.82842712474619 0.5 2 C 0.5 1.17157287525381 1.17157287525381 0.5 2 0.5 C 2.82842712474619 0.5 3.5 1.17157287525381 3.5 2 z"/>
</g>
</g>
<g transform="matrix(1, 0, 0, 1, 6, 30)">
<g stroke-linecap="butt" fill="none" stroke-opacity="1" stroke="#757575">
  <path d="M -0.5 217.92921447753906 L 135 217.92921447753906 C 137.25 217.92921447753906 138 218.67921447753906 138 220.92921447753906 L 138 275.36639404296875 C 138 277.61639404296875 138.75 278.36639404296875 141 278.36639404296875 L 168 278.36639404296875"/>
</g>
</g>
<g transform="matrix(1, 0, 0, 1, 6, 30)">
<g stroke-linecap="butt" fill="none" stroke-opacity="1" stroke="#757575">
  <path d="M -0.5 182.92921447753906 L 145 182.92921447753906 C 147.25 182.92921447753906 148 183.67921447753906 148 185.92921447753906 L 148 305.4775085449219 C 148 307.7275085449219 148.75 308.4775085449219 151 308.4775085449219 L 168 308.4775085449219"/>
</g>
</g>
<g transform="matrix(1, 0, 0, 1, 6, 30)">
<g stroke-linecap="butt" fill="none" stroke-opacity="1" stroke="#757575">
  <path d="M -0.5 262.1196594238281 L 125 262.1196594238281 C 127.25 262.1196594238281 128 262.8696594238281 128 265.1196594238281 L 128 335.588623046875 C 128 337.838623046875 128.75 338.588623046875 131 338.588623046875 L 168 338.588623046875"/>
</g>
</g>
<g transform="matrix(1, 0, 0, 1, 6, 30)">
<g stroke-linecap="butt" fill="none" stroke-opacity="1" stroke="#757575">
  <path d="M -0.5 297.1196594238281 L 115 297.1196594238281 C 117.25 297.1196594238281 118 297.8696594238281 118 300.1196594238281 L 118 365.6997375488281 C 118 367.9497375488281 118.75 368.6997375488281 121 368.6997375488281 L 168 368.6997375488281"/>
</g>
</g>
<g transform="matrix(1, 0, 0, 1, 6, 30)">
<g stroke-linecap="butt" fill="none" stroke-opacity="1" stroke="#757575">
  <path d="M -0.5 332.1196594238281 L 105 332.1196594238281 C 107.25 332.1196594238281 108 332.8696594238281 108 335.1196594238281 L 108 395.81085205078125 C 108 398.06085205078125 108.75 398.81085205078125 111 398.81085205078125 L 168 398.81085205078125"/>
</g>
</g>
<g transform="matrix(1, 0, 0, 1, 6, 30)">
<g stroke-width="3" stroke-linecap="butt" fill="none" stroke-opacity="1" stroke="#757575">
  <path d="M -0.5 367.1196594238281 L 95 367.1196594238281 C 97.25 367.1196594238281 98 367.8696594238281 98 370.1196594238281 L 98 425.9219665527344 C 98 428.1719665527344 98.75 428.9219665527344 101 428.9219665527344 L 168 428.9219665527344"/>
</g>
</g>
<g transform="matrix(1, 0, 0, 1, 6, 30)">
<g stroke-linecap="butt" fill="none" stroke-opacity="1" stroke="#757575">
  <path d="M -0.5 459.0330810546875 L 168 459.0330810546875"/>
</g>
</g>
<g transform="matrix(1, 0, 0, 1, 6, 30)">
<g stroke-linecap="butt" fill="none" stroke-opacity="1" stroke="#757575">
  <path d="M 367 293.4219665527344 L 384 293.4219665527344 C 386.25 293.4219665527344 387 292.6719665527344 387 290.4219665527344 L 387 17.5 C 387 15.25 387.75 14.5 390 14.5 L 840.5 14.5"/>
</g>
</g>
<g transform="matrix(1, 0, 0, 1, 6, 30)">
<g stroke-linecap="butt" fill="none" stroke-opacity="1" stroke="#757575">
  <path d="M 367 316.0052795410156 L 394 316.0052795410156 C 396.25 316.0052795410156 397 315.2552795410156 397 313.0052795410156 L 397 105.44577026367188 C 397 103.19577026367188 397.75 102.44577026367188 400 102.44577026367188 L 732 102.44577026367188 C 734.25 102.44577026367188 735 101.69577026367188 735 99.44577026367188 L 735 68.34497833251953 C 735 66.09497833251953 735.75 65.34497833251953 738 65.34497833251953 L 840.5 65.34497833251953"/>
</g>
</g>
<g transform="matrix(1, 0, 0, 1, 6, 30)">
<g stroke-linecap="butt" fill="none" stroke-opacity="1" stroke="#757575">
  <path d="M 367 338.588623046875 L 404 338.588623046875 C 406.25 338.588623046875 407 337.838623046875 407 335.588623046875 L 407 156.44577026367188 C 407 154.19577026367188 407.75 153.44577026367188 410 153.44577026367188 L 732 153.44577026367188 C 734.25 153.44577026367188 735 152.69577026367188 735 150.44577026367188 L 735 119.18995666503906 C 735 116.93995666503906 735.75 116.18995666503906 738 116.18995666503906 L 840.5 116.18995666503906"/>
</g>
</g>
<g transform="matrix(1, 0, 0, 1, 6, 30)">
<g stroke-linecap="butt" fill="none" stroke-opacity="1" stroke="#757575">
  <path d="M 367 361.1719665527344 L 414 361.1719665527344 C 416.25 361.1719665527344 417 360.4219665527344 417 358.1719665527344 L 417 207.44577026367188 C 417 205.19577026367188 417.75 204.44577026367188 420 204.44577026367188 L 732 204.44577026367188 C 734.25 204.44577026367188 735 203.69577026367188 735 201.44577026367188 L 735 170.03492736816406 C 735 167.78492736816406 735.75 167.03492736816406 738 167.03492736816406 L 840.5 167.03492736816406"/>
</g>
</g>
<g transform="matrix(1, 0, 0, 1, 6, 30)">
<g stroke-linecap="butt" fill="none" stroke-opacity="1" stroke="#757575">
  <path d="M 367 383.7552795410156 L 424 383.7552795410156 C 426.25 383.7552795410156 427 383.0052795410156 427 380.7552795410156 L 427 258.4457702636719 C 427 256.1957702636719 427.75 255.44577026367188 430 255.44577026367188 L 732 255.44577026367188 C 734.25 255.44577026367188 735 254.69577026367188 735 252.44577026367188 L 735 220.87991333007812 C 735 218.62991333007812 735.75 217.87991333007812 738 217.87991333007812 L 840.5 217.87991333007812"/>
</g>
</g>
<g transform="matrix(1, 0, 0, 1, 6, 30)">
<g stroke-linecap="butt" fill="none" stroke-opacity="1" stroke="#757575">
  <path d="M 367 406.338623046875 L 434 406.338623046875 C 436.25 406.338623046875 437 405.588623046875 437 403.338623046875 L 437 309.4457702636719 C 437 307.1957702636719 437.75 306.4457702636719 440 306.4457702636719 L 732 306.4457702636719 C 734.25 306.4457702636719 735 305.6957702636719 735 303.4457702636719 L 735 271.7248840332031 C 735 269.4748840332031 735.75 268.7248840332031 738 268.7248840332031 L 840.5 268.7248840332031"/>
</g>
</g>
<g transform="matrix(1, 0, 0, 1, 6, 30)">
<g stroke-linecap="butt" fill="none" stroke-opacity="1" stroke="#757575">
  <path d="M 367 428.9219665527344 L 394 428.9219665527344 C 396.25 428.9219665527344 397 429.6719665527344 397 431.9219665527344 L 397 495.5171813964844 C 397 497.7671813964844 397.75 498.5171813964844 400 498.5171813964844 L 457 498.5171813964844"/>
</g>
</g>
<g transform="matrix(1, 0, 0, 1, 6, 30)">
<g stroke-linecap="butt" fill="none" stroke-opacity="1" stroke="#757575">
  <path d="M 367 451.5052795410156 L 374 451.5052795410156 C 376.25 451.5052795410156 377 450.7552795410156 377 448.5052795410156 L 377 428.2314758300781 C 377 425.9814758300781 377.75 425.2314758300781 380 425.2314758300781 L 457 425.2314758300781"/>
</g>
</g>
<g transform="matrix(1, 0, 0, 1, 6, 30)">
<g stroke-width="3" stroke-linecap="butt" fill="none" stroke-opacity="1" stroke="#757575">
  <path d="M 367 474.088623046875 L 457 474.088623046875"/>
</g>
</g>
<g transform="matrix(1, 0, 0, 1, 6, 30)">
<g stroke-width="3" stroke-linecap="butt" fill="none" stroke-opacity="1" stroke="#757575">
  <path d="M 367 496.6719665527344 L 384 496.6719665527344 C 386.25 496.6719665527344 387 495.9219665527344 387 493.6719665527344 L 387 452.6600646972656 C 387 450.4100646972656 387.75 449.6600646972656 390 449.6600646972656 L 457 449.6600646972656"/>
</g>
</g>
<g transform="matrix(1, 0, 0, 1, 6, 30)">
<g stroke-width="3" stroke-linecap="butt" fill="none" stroke-opacity="1" stroke="#757575">
  <path d="M 367 519.2553100585938 L 375.15478515625 519.2553100585938 C 377 519.2553100585938 377 522.9457397460938 378.84521484375 522.9457397460938 L 457 522.9457397460938"/>
</g>
</g>
<g transform="matrix(1, 0, 0, 1, 0.5, 486.5330810546875)">
<g fill-opacity="1" fill-rule="nonzero" stroke="none" fill="#000000">
  <path d="M 0 0 L 0 5 L 5 2.5 z"/>
</g>
</g>
<g transform="matrix(1, 0, 0, 1, 0.5, 486.5330810546875)">
<g stroke-linecap="butt" fill="none" stroke-opacity="1" stroke="#000000">
  <path d="M 0 0 L 0 5 L 5 2.5 z"/>
</g>
</g>
<g transform="matrix(1, 0, 0, 1, 8.5, 494.5330810546875)">
<clipPath id="clip37">
  <path d="M -8.5 -494.5330810546875 L -8.5 95.91265869140625 L 843.5 95.91265869140625 L 843.5 -494.5330810546875 z"/>
</clipPath>
<g clip-path="url(#clip37)">
<text fill-opacity="1" font-style="normal" font-family="Helvetica" font-weight="normal" stroke="none" fill="#000000" font-size="13.333333015441895px" x="0" y="0"><tspan x="0" dy="13.0">mark_last</tspan>
</text>
</g>
</g>
<g transform="matrix(1, 0, 0, 1, 0.5, 394.6196594238281)">
<g fill-opacity="1" fill-rule="nonzero" stroke="none" fill="#000000">
  <path d="M 0 0 L 0 5 L 5 2.5 z"/>
</g>
</g>
<g transform="matrix(1, 0, 0, 1, 0.5, 394.6196594238281)">
<g stroke-linecap="butt" fill="none" stroke-opacity="1" stroke="#000000">
  <path d="M 0 0 L 0 5 L 5 2.5 z"/>
</g>
</g>
<g transform="matrix(1, 0, 0, 1, 8.5, 402.6196594238281)">
<clipPath id="clip38">
  <path d="M -8.5 -402.6196594238281 L -8.5 187.82608032226562 L 843.5 187.82608032226562 L 843.5 -402.6196594238281 z"/>
</clipPath>
<g clip-path="url(#clip38)">
<text fill-opacity="1" font-style="normal" font-family="Helvetica" font-weight="normal" stroke="none" fill="#000000" font-size="13.333333015441895px" x="0" y="0"><tspan x="0" dy="13.0">data_in</tspan>
</text>
</g>
</g>
<g transform="matrix(1, 0, 0, 1, 0.5, 359.6196594238281)">
<g fill-opacity="1" fill-rule="nonzero" stroke="none" fill="#000000">
  <path d="M 0 0 L 0 5 L 5 2.5 z"/>
</g>
</g>
<g transform="matrix(1, 0, 0, 1, 0.5, 359.6196594238281)">
<g stroke-linecap="butt" fill="none" stroke-opacity="1" stroke="#000000">
  <path d="M 0 0 L 0 5 L 5 2.5 z"/>
</g>
</g>
<g transform="matrix(1, 0, 0, 1, 8.5, 367.6196594238281)">
<clipPath id="clip39">
  <path d="M -8.5 -367.6196594238281 L -8.5 222.82608032226562 L 843.5 222.82608032226562 L 843.5 -367.6196594238281 z"/>
</clipPath>
<g clip-path="url(#clip39)">
<text fill-opacity="1" font-style="normal" font-family="Helvetica" font-weight="normal" stroke="none" fill="#000000" font-size="13.333333015441895px" x="0" y="0"><tspan x="0" dy="13.0">push_enable</tspan>
</text>
</g>
</g>
<g transform="matrix(1, 0, 0, 1, 0.5, 324.6196594238281)">
<g fill-opacity="1" fill-rule="nonzero" stroke="none" fill="#000000">
  <path d="M 0 0 L 0 5 L 5 2.5 z"/>
</g>
</g>
<g transform="matrix(1, 0, 0, 1, 0.5, 324.6196594238281)">
<g stroke-linecap="butt" fill="none" stroke-opacity="1" stroke="#000000">
  <path d="M 0 0 L 0 5 L 5 2.5 z"/>
</g>
</g>
<g transform="matrix(1, 0, 0, 1, 8.5, 332.6196594238281)">
<clipPath id="clip40">
  <path d="M -8.5 -332.6196594238281 L -8.5 257.8260803222656 L 843.5 257.8260803222656 L 843.5 -332.6196594238281 z"/>
</clipPath>
<g clip-path="url(#clip40)">
<text fill-opacity="1" font-style="normal" font-family="Helvetica" font-weight="normal" stroke="none" fill="#000000" font-size="13.333333015441895px" x="0" y="0"><tspan x="0" dy="13.0">pop_enable</tspan>
</text>
</g>
</g>
<g transform="matrix(1, 0, 0, 1, 0.5, 289.6196594238281)">
<g fill-opacity="1" fill-rule="nonzero" stroke="none" fill="#000000">
  <path d="M 0 0 L 0 5 L 5 2.5 z"/>
</g>
</g>
<g transform="matrix(1, 0, 0, 1, 0.5, 289.6196594238281)">
<g stroke-linecap="butt" fill="none" stroke-opacity="1" stroke="#000000">
  <path d="M 0 0 L 0 5 L 5 2.5 z"/>
</g>
</g>
<g transform="matrix(1, 0, 0, 1, 8.5, 297.6196594238281)">
<clipPath id="clip41">
  <path d="M -8.5 -297.6196594238281 L -8.5 292.8260803222656 L 843.5 292.8260803222656 L 843.5 -297.6196594238281 z"/>
</clipPath>
<g clip-path="url(#clip41)">
<text fill-opacity="1" font-style="normal" font-family="Helvetica" font-weight="normal" stroke="none" fill="#000000" font-size="13.333333015441895px" x="0" y="0"><tspan x="0" dy="13.0">is_pingpong</tspan>
</text>
</g>
</g>
<g transform="matrix(1, 0, 0, 1, 0.5, 210.42921447753906)">
<g fill-opacity="1" fill-rule="nonzero" stroke="none" fill="#000000">
  <path d="M 0 0 L 0 5 L 5 2.5 z"/>
</g>
</g>
<g transform="matrix(1, 0, 0, 1, 0.5, 210.42921447753906)">
<g stroke-linecap="butt" fill="none" stroke-opacity="1" stroke="#000000">
  <path d="M 0 0 L 0 5 L 5 2.5 z"/>
</g>
</g>
<g transform="matrix(1, 0, 0, 1, 8.5, 218.42921447753906)">
<clipPath id="clip42">
  <path d="M -8.5 -218.42921447753906 L -8.5 372.0165252685547 L 843.5 372.0165252685547 L 843.5 -218.42921447753906 z"/>
</clipPath>
<g clip-path="url(#clip42)">
<text fill-opacity="1" font-style="normal" font-family="Helvetica" font-weight="normal" stroke="none" fill="#000000" font-size="13.333333015441895px" x="0" y="0"><tspan x="0" dy="13.0">reset_n</tspan>
</text>
</g>
</g>
<g transform="matrix(1, 0, 0, 1, 0.5, 245.42921447753906)">
<g fill-opacity="1" fill-rule="nonzero" stroke="none" fill="#000000">
  <path d="M 0 0 L 0 5 L 5 2.5 z"/>
</g>
</g>
<g transform="matrix(1, 0, 0, 1, 0.5, 245.42921447753906)">
<g stroke-linecap="butt" fill="none" stroke-opacity="1" stroke="#000000">
  <path d="M 0 0 L 0 5 L 5 2.5 z"/>
</g>
</g>
<g transform="matrix(1, 0, 0, 1, 8.5, 253.42921447753906)">
<clipPath id="clip43">
  <path d="M -8.5 -253.42921447753906 L -8.5 337.0165252685547 L 843.5 337.0165252685547 L 843.5 -253.42921447753906 z"/>
</clipPath>
<g clip-path="url(#clip43)">
<text fill-opacity="1" font-style="normal" font-family="Helvetica" font-weight="normal" stroke="none" fill="#000000" font-size="13.333333015441895px" x="0" y="0"><tspan x="0" dy="13.0">reset</tspan>
</text>
</g>
</g>
<g transform="matrix(1, 0, 0, 1, 0.5, 160.89837646484375)">
<g fill-opacity="1" fill-rule="nonzero" stroke="none" fill="#000000">
  <path d="M 0 0 L 0 5 L 5 2.5 z"/>
</g>
</g>
<g transform="matrix(1, 0, 0, 1, 0.5, 160.89837646484375)">
<g stroke-linecap="butt" fill="none" stroke-opacity="1" stroke="#000000">
  <path d="M 0 0 L 0 5 L 5 2.5 z"/>
</g>
</g>
<g transform="matrix(1, 0, 0, 1, 8.5, 168.89837646484375)">
<clipPath id="clip44">
  <path d="M -8.5 -168.89837646484375 L -8.5 421.54736328125 L 843.5 421.54736328125 L 843.5 -168.89837646484375 z"/>
</clipPath>
<g clip-path="url(#clip44)">
<text fill-opacity="1" font-style="normal" font-family="Helvetica" font-weight="normal" stroke="none" fill="#000000" font-size="13.333333015441895px" x="0" y="0"><tspan x="0" dy="13.0">clk</tspan>
</text>
</g>
</g>
<g transform="matrix(1, 0, 0, 1, 846.5, 379.4457702636719)">
<g fill-opacity="1" fill-rule="nonzero" stroke="none" fill="#000000">
  <path d="M 0 0 L 0 5 L 5 2.5 z"/>
</g>
</g>
<g transform="matrix(1, 0, 0, 1, 846.5, 379.4457702636719)">
<g stroke-linecap="butt" fill="none" stroke-opacity="1" stroke="#000000">
  <path d="M 0 0 L 0 5 L 5 2.5 z"/>
</g>
</g>
<g transform="matrix(1, 0, 0, 1, 793.5, 387.4457702636719)">
<clipPath id="clip45">
  <path d="M -793.5 -387.4457702636719 L -793.5 202.99996948242188 L 58.5 202.99996948242188 L 58.5 -387.4457702636719 z"/>
</clipPath>
<g clip-path="url(#clip45)">
<text fill-opacity="1" font-style="normal" font-family="Helvetica" font-weight="normal" stroke="none" fill="#000000" font-size="13.333333015441895px" x="0" y="0"><tspan x="0" dy="13.0">data_out</tspan>
</text>
</g>
</g>
<g transform="matrix(1, 0, 0, 1, 846.5, 550.4457397460938)">
<g fill-opacity="1" fill-rule="nonzero" stroke="none" fill="#000000">
  <path d="M 0 0 L 0 5 L 5 2.5 z"/>
</g>
</g>
<g transform="matrix(1, 0, 0, 1, 846.5, 550.4457397460938)">
<g stroke-linecap="butt" fill="none" stroke-opacity="1" stroke="#000000">
  <path d="M 0 0 L 0 5 L 5 2.5 z"/>
</g>
</g>
<g transform="matrix(1, 0, 0, 1, 779.5, 558.4457397460938)">
<clipPath id="clip46">
  <path d="M -779.5 -558.4457397460938 L -779.5 32 L 72.5 32 L 72.5 -558.4457397460938 z"/>
</clipPath>
<g clip-path="url(#clip46)">
<text fill-opacity="1" font-style="normal" font-family="Helvetica" font-weight="normal" stroke="none" fill="#000000" font-size="13.333333015441895px" x="0" y="0"><tspan x="0" dy="13.0">data_ready</tspan>
</text>
</g>
</g>
<g transform="matrix(1, 0, 0, 1, 846.5, 42)">
<g fill-opacity="1" fill-rule="nonzero" stroke="none" fill="#000000">
  <path d="M 0 0 L 0 5 L 5 2.5 z"/>
</g>
</g>
<g transform="matrix(1, 0, 0, 1, 846.5, 42)">
<g stroke-linecap="butt" fill="none" stroke-opacity="1" stroke="#000000">
  <path d="M 0 0 L 0 5 L 5 2.5 z"/>
</g>
</g>
<g transform="matrix(1, 0, 0, 1, 790.5, 50)">
<clipPath id="clip47">
  <path d="M -790.5 -50 L -790.5 540.4457397460938 L 61.5 540.4457397460938 L 61.5 -50 z"/>
</clipPath>
<g clip-path="url(#clip47)">
<text fill-opacity="1" font-style="normal" font-family="Helvetica" font-weight="normal" stroke="none" fill="#000000" font-size="13.333333015441895px" x="0" y="0"><tspan x="0" dy="13.0">is_empty</tspan>
</text>
</g>
</g>
<g transform="matrix(1, 0, 0, 1, 846.5, 92.84497833251953)">
<g fill-opacity="1" fill-rule="nonzero" stroke="none" fill="#000000">
  <path d="M 0 0 L 0 5 L 5 2.5 z"/>
</g>
</g>
<g transform="matrix(1, 0, 0, 1, 846.5, 92.84497833251953)">
<g stroke-linecap="butt" fill="none" stroke-opacity="1" stroke="#000000">
  <path d="M 0 0 L 0 5 L 5 2.5 z"/>
</g>
</g>
<g transform="matrix(1, 0, 0, 1, 809.5, 100.84497833251953)">
<clipPath id="clip48">
  <path d="M -809.5 -100.84497833251953 L -809.5 489.6007614135742 L 42.5 489.6007614135742 L 42.5 -100.84497833251953 z"/>
</clipPath>
<g clip-path="url(#clip48)">
<text fill-opacity="1" font-style="normal" font-family="Helvetica" font-weight="normal" stroke="none" fill="#000000" font-size="13.333333015441895px" x="0" y="0"><tspan x="0" dy="13.0">is_full</tspan>
</text>
</g>
</g>
<g transform="matrix(1, 0, 0, 1, 846.5, 143.68995666503906)">
<g fill-opacity="1" fill-rule="nonzero" stroke="none" fill="#000000">
  <path d="M 0 0 L 0 5 L 5 2.5 z"/>
</g>
</g>
<g transform="matrix(1, 0, 0, 1, 846.5, 143.68995666503906)">
<g stroke-linecap="butt" fill="none" stroke-opacity="1" stroke="#000000">
  <path d="M 0 0 L 0 5 L 5 2.5 z"/>
</g>
</g>
<g transform="matrix(1, 0, 0, 1, 805.5, 151.68995666503906)">
<clipPath id="clip49">
  <path d="M -805.5 -151.68995666503906 L -805.5 438.7557830810547 L 46.5 438.7557830810547 L 46.5 -151.68995666503906 z"/>
</clipPath>
<g clip-path="url(#clip49)">
<text fill-opacity="1" font-style="normal" font-family="Helvetica" font-weight="normal" stroke="none" fill="#000000" font-size="13.333333015441895px" x="0" y="0"><tspan x="0" dy="13.0">is_last</tspan>
</text>
</g>
</g>
<g transform="matrix(1, 0, 0, 1, 846.5, 194.53492736816406)">
<g fill-opacity="1" fill-rule="nonzero" stroke="none" fill="#000000">
  <path d="M 0 0 L 0 5 L 5 2.5 z"/>
</g>
</g>
<g transform="matrix(1, 0, 0, 1, 846.5, 194.53492736816406)">
<g stroke-linecap="butt" fill="none" stroke-opacity="1" stroke="#000000">
  <path d="M 0 0 L 0 5 L 5 2.5 z"/>
</g>
</g>
<g transform="matrix(1, 0, 0, 1, 770.5, 202.53492736816406)">
<clipPath id="clip50">
  <path d="M -770.5 -202.53492736816406 L -770.5 387.9108123779297 L 81.5 387.9108123779297 L 81.5 -202.53492736816406 z"/>
</clipPath>
<g clip-path="url(#clip50)">
<text fill-opacity="1" font-style="normal" font-family="Helvetica" font-weight="normal" stroke="none" fill="#000000" font-size="13.333333015441895px" x="0" y="0"><tspan x="0" dy="13.0">pop_is_done</tspan>
</text>
</g>
</g>
<g transform="matrix(1, 0, 0, 1, 846.5, 245.37991333007812)">
<g fill-opacity="1" fill-rule="nonzero" stroke="none" fill="#000000">
  <path d="M 0 0 L 0 5 L 5 2.5 z"/>
</g>
</g>
<g transform="matrix(1, 0, 0, 1, 846.5, 245.37991333007812)">
<g stroke-linecap="butt" fill="none" stroke-opacity="1" stroke="#000000">
  <path d="M 0 0 L 0 5 L 5 2.5 z"/>
</g>
</g>
<g transform="matrix(1, 0, 0, 1, 763.5, 253.37991333007812)">
<clipPath id="clip51">
  <path d="M -763.5 -253.37991333007812 L -763.5 337.0658264160156 L 88.5 337.0658264160156 L 88.5 -253.37991333007812 z"/>
</clipPath>
<g clip-path="url(#clip51)">
<text fill-opacity="1" font-style="normal" font-family="Helvetica" font-weight="normal" stroke="none" fill="#000000" font-size="13.333333015441895px" x="0" y="0"><tspan x="0" dy="13.0">push_is_done</tspan>
</text>
</g>
</g>
<g transform="matrix(1, 0, 0, 1, 846.5, 296.2248840332031)">
<g fill-opacity="1" fill-rule="nonzero" stroke="none" fill="#000000">
  <path d="M 0 0 L 0 5 L 5 2.5 z"/>
</g>
</g>
<g transform="matrix(1, 0, 0, 1, 846.5, 296.2248840332031)">
<g stroke-linecap="butt" fill="none" stroke-opacity="1" stroke="#000000">
  <path d="M 0 0 L 0 5 L 5 2.5 z"/>
</g>
</g>
<g transform="matrix(1, 0, 0, 1, 774.5, 304.2248840332031)">
<clipPath id="clip52">
  <path d="M -774.5 -304.2248840332031 L -774.5 286.2208557128906 L 77.5 286.2208557128906 L 77.5 -304.2248840332031 z"/>
</clipPath>
<g clip-path="url(#clip52)">
<text fill-opacity="1" font-style="normal" font-family="Helvetica" font-weight="normal" stroke="none" fill="#000000" font-size="13.333333015441895px" x="0" y="0"><tspan x="0" dy="13.0">is_swapped</tspan>
</text>
</g>
</g>
</g>
</svg>
