<?xml version="1.0" standalone="no"?>

<svg 
     version="1.1"
     baseProfile="full"
     xmlns="http://www.w3.org/2000/svg"
     xmlns:xlink="http://www.w3.org/1999/xlink"
     xmlns:ev="http://www.w3.org/2001/xml-events"
     xmlns:klighd="http://de.cau.cs.kieler/klighd"
     xml:space="preserve"
     x="0px"
     y="0px"
     width="440px"
     height="447px"
     viewBox="0 0 440 447"
     preserveAspectRatio="xMidYMin slice"
     >
<title></title>
<desc>Creator: FreeHEP Graphics2D Driver Producer: de.cau.cs.kieler.klighd.piccolo.freehep.SemanticSVGGraphics2D Revision Source:  Date: Monday, October 28, 2019 6:40:27 PM CET</desc>
<g stroke-linejoin="miter" stroke-dashoffset="0" stroke-dasharray="none" stroke-width="1" stroke-miterlimit="10" stroke-linecap="square">
<g transform="matrix(1, 0, 0, 1, 0.5, 0)">
<g fill-opacity="1" fill-rule="nonzero" stroke="none" fill="#ffffff">
  <path d="M 0.5 1.5 L 0.5 445.5 C 0.5 446.0522847498308 0.9477152501692067 446.5 1.5 446.5 L 437 446.5 C 437.5522847498308 446.5 438 446.0522847498308 438 445.5 L 438 1.5 C 438 0.9477152501692067 437.5522847498308 0.5 437 0.5 L 1.5 0.5 C 0.9477152501692067 0.5 0.5 0.9477152501692067 0.5 1.5 z"/>
</g>
</g>
<g transform="matrix(1, 0, 0, 1, 0.5, 0)">
<g stroke-linecap="butt" fill="none" stroke-opacity="1" stroke="#000000">
  <path d="M 0.5 1.5 L 0.5 445.5 C 0.5 446.0522847498308 0.9477152501692067 446.5 1.5 446.5 L 437 446.5 C 437.5522847498308 446.5 438 446.0522847498308 438 445.5 L 438 1.5 C 438 0.9477152501692067 437.5522847498308 0.5 437 0.5 L 1.5 0.5 C 0.9477152501692067 0.5 0.5 0.9477152501692067 0.5 1.5 z"/>
</g>
</g>
<g transform="matrix(1, 0, 0, 1, 215.75, 4)">
<g fill-opacity="0" fill-rule="nonzero" stroke="none" fill="#000000">
  <path d="M 0 0 L 8 0 L 8 20 L 0 20 L 0 0 z"/>
</g>
</g>
<g transform="matrix(1, 0, 0, 1, 215.75, 4)">
<clipPath id="clip1">
  <path d="M -215.75 -4 L -215.75 443 L 223.75 443 L 223.75 -4 z"/>
</clipPath>
<g clip-path="url(#clip1)">
<text fill-opacity="1" font-style="normal" font-family="Helvetica" font-weight="bold" stroke="none" fill="#000000" font-size="14.666666984558105px" x="0" y="0"><tspan x="0" dy="15.0">c</tspan>
</text>
</g>
</g>
<g transform="matrix(1, 0, 0, 1, 0.5, 24)">
<g stroke-linecap="butt" fill="none" stroke-opacity="1" stroke="#000000">
  <path d="M 0 1.5 L 438.5 1.5"/>
</g>
</g>
<g transform="matrix(1, 0, 0, 1, 160, 276)">
<g fill-opacity="1" fill-rule="nonzero" stroke="none" fill="#ffffff">
  <path d="M 37.5 19.5 C 37.5 29.99341024678507 29.217267871869673 38.5 19 38.5 C 8.782732128130323 38.5 0.5 29.99341024678507 0.5 19.5 C 0.5 9.006589753214927 8.782732128130323 0.5 19 0.5 C 29.217267871869673 0.5 37.5 9.006589753214927 37.5 19.5 z"/>
</g>
</g>
<g transform="matrix(1, 0, 0, 1, 160, 276)">
<g stroke-linecap="butt" fill="none" stroke-opacity="1" stroke="#000000">
  <path d="M 37.5 19.5 C 37.5 29.99341024678507 29.217267871869673 38.5 19 38.5 C 8.782732128130323 38.5 0.5 29.99341024678507 0.5 19.5 C 0.5 9.006589753214927 8.782732128130323 0.5 19 0.5 C 29.217267871869673 0.5 37.5 9.006589753214927 37.5 19.5 z"/>
</g>
</g>
<g transform="matrix(1, 0, 0, 1, 170, 286)">
<clipPath id="clip2">
  <path d="M -170 -286 L -170 161 L 269.5 161 L 269.5 -286 z"/>
</clipPath>
<g clip-path="url(#clip2)">
<text fill-opacity="1" font-style="normal" font-family="Helvetica" font-weight="normal" stroke="none" fill="#000000" font-size="14.666666984558105px" x="0" y="0"><tspan x="0" dy="14.0">S0</tspan>
</text>
</g>
</g>
<g transform="matrix(1, 0, 0, 1, 79.75, 393)">
<g fill-opacity="1" fill-rule="nonzero" stroke="none" fill="#ffffff">
  <path d="M 124.5 19.5 C 124.5 29.99341024678507 96.74165448950919 38.5 62.5 38.5 C 28.258345510490813 38.5 0.5 29.99341024678507 0.5 19.5 C 0.5 9.006589753214927 28.258345510490813 0.5 62.5 0.5 C 96.74165448950919 0.5 124.5 9.006589753214927 124.5 19.5 z"/>
</g>
</g>
<g transform="matrix(1, 0, 0, 1, 79.75, 393)">
<g stroke-linecap="butt" fill="none" stroke-opacity="1" stroke="#000000">
  <path d="M 124.5 19.5 C 124.5 29.99341024678507 96.74165448950919 38.5 62.5 38.5 C 28.258345510490813 38.5 0.5 29.99341024678507 0.5 19.5 C 0.5 9.006589753214927 28.258345510490813 0.5 62.5 0.5 C 96.74165448950919 0.5 124.5 9.006589753214927 124.5 19.5 z"/>
</g>
</g>
<g transform="matrix(1, 0, 0, 1, 89.75, 403)">
<clipPath id="clip3">
  <path d="M -89.75 -403 L -89.75 44 L 349.75 44 L 349.75 -403 z"/>
</clipPath>
<g clip-path="url(#clip3)">
<text fill-opacity="1" font-style="normal" font-family="Helvetica" font-weight="normal" stroke="none" fill="#000000" font-size="14.666666984558105px" x="0" y="0"><tspan x="0" dy="14.0">S_WAIT_HASH</tspan>
</text>
</g>
</g>
<g transform="matrix(1, 0, 0, 1, 78.25, 42)">
<g fill-opacity="1" fill-rule="nonzero" stroke="none" fill="#ffffff">
  <path d="M 127.5 19.5 C 127.5 29.99341024678507 99.07008161425537 38.5 64 38.5 C 28.929918385744624 38.5 0.5 29.99341024678507 0.5 19.5 C 0.5 9.006589753214927 28.929918385744624 0.5 64 0.5 C 99.07008161425537 0.5 127.5 9.006589753214927 127.5 19.5 z"/>
</g>
</g>
<g transform="matrix(1, 0, 0, 1, 78.25, 42)">
<g stroke-linecap="butt" fill="none" stroke-opacity="1" stroke="#000000">
  <path d="M 127.5 19.5 C 127.5 29.99341024678507 99.07008161425537 38.5 64 38.5 C 28.929918385744624 38.5 0.5 29.99341024678507 0.5 19.5 C 0.5 9.006589753214927 28.929918385744624 0.5 64 0.5 C 99.07008161425537 0.5 127.5 9.006589753214927 127.5 19.5 z"/>
</g>
</g>
<g transform="matrix(1, 0, 0, 1, 88.25, 52)">
<clipPath id="clip4">
  <path d="M -88.25 -52 L -88.25 395 L 351.25 395 L 351.25 -52 z"/>
</clipPath>
<g clip-path="url(#clip4)">
<text fill-opacity="1" font-style="normal" font-family="Helvetica" font-weight="normal" stroke="none" fill="#000000" font-size="14.666666984558105px" x="0" y="0"><tspan x="0" dy="14.0">S_READ_NEXT</tspan>
</text>
</g>
</g>
<g transform="matrix(1, 0, 0, 1, 116.5, 140)">
<g fill-opacity="1" fill-rule="nonzero" stroke="none" fill="#ffffff">
  <path d="M 124.5 19.5 C 124.5 29.99341024678507 96.74165448950919 38.5 62.5 38.5 C 28.258345510490813 38.5 0.5 29.99341024678507 0.5 19.5 C 0.5 9.006589753214927 28.258345510490813 0.5 62.5 0.5 C 96.74165448950919 0.5 124.5 9.006589753214927 124.5 19.5 z"/>
</g>
</g>
<g transform="matrix(1, 0, 0, 1, 116.5, 140)">
<g stroke-linecap="butt" fill="none" stroke-opacity="1" stroke="#000000">
  <path d="M 124.5 19.5 C 124.5 29.99341024678507 96.74165448950919 38.5 62.5 38.5 C 28.258345510490813 38.5 0.5 29.99341024678507 0.5 19.5 C 0.5 9.006589753214927 28.258345510490813 0.5 62.5 0.5 C 96.74165448950919 0.5 124.5 9.006589753214927 124.5 19.5 z"/>
</g>
</g>
<g transform="matrix(1, 0, 0, 1, 126.5, 150)">
<clipPath id="clip5">
  <path d="M -126.5 -150 L -126.5 297 L 313 297 L 313 -150 z"/>
</clipPath>
<g clip-path="url(#clip5)">
<text fill-opacity="1" font-style="normal" font-family="Helvetica" font-weight="normal" stroke="none" fill="#000000" font-size="14.666666984558105px" x="0" y="0"><tspan x="0" dy="14.0">S_WAIT_READ</tspan>
</text>
</g>
</g>
<g transform="matrix(1, 0, 0, 1, 3.5, 30)">
<g stroke-linecap="round" fill="none" stroke-opacity="1" stroke="#000000">
  <path d="M 175.5 285 C 175.5 295 175.5 307 175.5 317 C 175.5 327 175.5 335 175.5 341.5 C 175.5 348 175.5 353 158.5142364501953 364.00067138671875"/>
</g>
</g>
<g transform="matrix(-0.8047869737170178, 0.5935637513657687, -0.5935637513657687, -0.8047869737170178, 170.23322344958603, 391.6665222366857)">
<g fill-opacity="1" fill-rule="nonzero" stroke="none" fill="#000000">
  <path d="M 0 0 L 3.200000047683716 3 L 0 6 L 8 3 z"/>
</g>
</g>
<g transform="matrix(-0.8047869737170178, 0.5935637513657687, -0.5935637513657687, -0.8047869737170178, 170.23322344958603, 391.6665222366857)">
<g stroke-linejoin="round" stroke-linecap="butt" fill="none" stroke-opacity="1" stroke="#000000">
  <path d="M 0 0 L 3.200000047683716 3 L 0 6 L 8 3 z"/>
</g>
</g>
<g transform="matrix(1, 0, 0, 1, 185, 335)">
<clipPath id="clip6">
  <path d="M -185 -335 L -185 112 L 254.5 112 L 254.5 -335 z"/>
</clipPath>
<g clip-path="url(#clip6)">
<text fill-opacity="1" font-style="normal" font-family="Helvetica" font-weight="normal" stroke="none" fill="#000000" font-size="14.666666984558105px" x="0" y="0"><tspan x="0" dy="14.0">add_enable = '1'</tspan>
</text>
</g>
</g>
<g transform="matrix(1, 0, 0, 1, 185, 354)">
<clipPath id="clip7">
  <path d="M -185 -354 L -185 93 L 254.5 93 L 254.5 -354 z"/>
</clipPath>
<g clip-path="url(#clip7)">
<text fill-opacity="1" font-style="normal" font-family="Helvetica" font-weight="normal" stroke="none" fill="#000000" font-size="14.666666984558105px" x="0" y="0"><tspan x="0" dy="14.0">add_enable = '1' and clear_table = '1'</tspan>
</text>
</g>
</g>
<g transform="matrix(1, 0, 0, 1, 3.5, 30)">
<g stroke-linecap="round" fill="none" stroke-opacity="1" stroke="#000000">
  <path d="M 118.98576354980469 364.00067138671875 C 102 353 102 348 102 341.5 C 102 335 102 327 102 319 C 102 311 102 303 102 289.1666564941406 C 102 275.3333435058594 102 255.6666717529297 102 239.4166717529297 C 102 223.1666717529297 102 210.3333282470703 102 197.5 C 102 184.6666717529297 102 171.8333282470703 102 155.5833282470703 C 102 139.3333282470703 102 119.66666412353516 102 107.41666412353516 C 102 95.16666412353516 102 90.33333587646484 102 85.5 C 102 80.66666412353516 102 75.83333587646484 102 70.91666412353516 C 102 66 102 61 118.51142120361328 49.999324798583984"/>
</g>
</g>
<g transform="matrix(0.7976437930142148, -0.6031288249336922, 0.6031288249336922, 0.7976437930142148, 113.82088438954504, 82.43142402542045)">
<g fill-opacity="1" fill-rule="nonzero" stroke="none" fill="#000000">
  <path d="M 0 0 L 3.200000047683716 3 L 0 6 L 8 3 z"/>
</g>
</g>
<g transform="matrix(0.7976437930142148, -0.6031288249336922, 0.6031288249336922, 0.7976437930142148, 113.82088438954504, 82.43142402542045)">
<g stroke-linejoin="round" stroke-linecap="butt" fill="none" stroke-opacity="1" stroke="#000000">
  <path d="M 0 0 L 3.200000047683716 3 L 0 6 L 8 3 z"/>
</g>
</g>
<g transform="matrix(1, 0, 0, 1, 15.5, 218)">
<clipPath id="clip8">
  <path d="M -15.5 -218 L -15.5 229 L 424 229 L 424 -218 z"/>
</clipPath>
<g clip-path="url(#clip8)">
<text fill-opacity="1" font-style="normal" font-family="Helvetica" font-weight="normal" stroke="none" fill="#000000" font-size="14.666666984558105px" x="0" y="0"><tspan x="0" dy="14.0">hash_ok = '1'</tspan>
</text>
</g>
</g>
<g transform="matrix(1, 0, 0, 1, 3.5, 30)">
<g stroke-linecap="round" fill="none" stroke-opacity="1" stroke="#000000">
  <path d="M 158.9885711669922 49.999324798583984 C 175.5 61 175.5 66 175.5 70.91666412353516 C 175.5 75.83333587646484 175.5 80.66666412353516 175.5 86.70833587646484 C 175.5 92.75 175.5 100 175.5 110"/>
</g>
</g>
<g transform="matrix(-0.00000004371139024679, 0.999999999999999, -0.999999999999999, -0.00000004371139024679, 182.00000026226834, 132.0000001311342)">
<g fill-opacity="1" fill-rule="nonzero" stroke="none" fill="#000000">
  <path d="M 0 0 L 3.200000047683716 3 L 0 6 L 8 3 z"/>
</g>
</g>
<g transform="matrix(-0.00000004371139024679, 0.999999999999999, -0.999999999999999, -0.00000004371139024679, 182.00000026226834, 132.0000001311342)">
<g stroke-linejoin="round" stroke-linecap="butt" fill="none" stroke-opacity="1" stroke="#000000">
  <path d="M 0 0 L 3.200000047683716 3 L 0 6 L 8 3 z"/>
</g>
</g>
<g transform="matrix(1, 0, 0, 1, 185, 101)">
<clipPath id="clip9">
  <path d="M -185 -101 L -185 346 L 254.5 346 L 254.5 -101 z"/>
</clipPath>
<g clip-path="url(#clip9)">
<text fill-opacity="1" font-style="normal" font-family="Helvetica" font-weight="normal" stroke="none" fill="#000000" font-size="14.666666984558105px" x="0" y="0"><tspan x="0" dy="14.0">&#x00a0;</tspan>
</text>
</g>
</g>
<g transform="matrix(1, 0, 0, 1, 3.5, 30)">
<g stroke-linecap="round" fill="none" stroke-opacity="1" stroke="#000000">
  <path d="M 175.5 149 C 175.5 159 175.5 178.25 175.5 197.5 C 175.5 216.75 175.5 236 175.5 246"/>
</g>
</g>
<g transform="matrix(-0.00000004371139024679, 0.999999999999999, -0.999999999999999, -0.00000004371139024679, 182.00000026226834, 268.0000001311342)">
<g fill-opacity="1" fill-rule="nonzero" stroke="none" fill="#000000">
  <path d="M 0 0 L 3.200000047683716 3 L 0 6 L 8 3 z"/>
</g>
</g>
<g transform="matrix(-0.00000004371139024679, 0.999999999999999, -0.999999999999999, -0.00000004371139024679, 182.00000026226834, 268.0000001311342)">
<g stroke-linejoin="round" stroke-linecap="butt" fill="none" stroke-opacity="1" stroke="#000000">
  <path d="M 0 0 L 3.200000047683716 3 L 0 6 L 8 3 z"/>
</g>
</g>
<g transform="matrix(1, 0, 0, 1, 185, 199)">
<clipPath id="clip10">
  <path d="M -185 -199 L -185 248 L 254.5 248 L 254.5 -199 z"/>
</clipPath>
<g clip-path="url(#clip10)">
<text fill-opacity="1" font-style="normal" font-family="Helvetica" font-weight="normal" stroke="none" fill="#000000" font-size="14.666666984558105px" x="0" y="0"><tspan x="0" dy="14.0">rf_p_r_ok = '1'</tspan>
</text>
</g>
</g>
<g transform="matrix(1, 0, 0, 1, 185, 218)">
<clipPath id="clip11">
  <path d="M -185 -218 L -185 229 L 254.5 229 L 254.5 -218 z"/>
</clipPath>
<g clip-path="url(#clip11)">
<text fill-opacity="1" font-style="normal" font-family="Helvetica" font-weight="normal" stroke="none" fill="#000000" font-size="14.666666984558105px" x="0" y="0"><tspan x="0" dy="14.0">rf_p_r_ok = '1'</tspan>
</text>
</g>
</g>
<g transform="matrix(1, 0, 0, 1, 185, 237)">
<clipPath id="clip12">
  <path d="M -185 -237 L -185 210 L 254.5 210 L 254.5 -237 z"/>
</clipPath>
<g clip-path="url(#clip12)">
<text fill-opacity="1" font-style="normal" font-family="Helvetica" font-weight="normal" stroke="none" fill="#000000" font-size="14.666666984558105px" x="0" y="0"><tspan x="0" dy="14.0">rf_p_r_data(0) = '1'</tspan>
</text>
</g>
</g>
</g>
</svg>
