<?xml version="1.0" standalone="no"?>

<svg 
     version="1.1"
     baseProfile="full"
     xmlns="http://www.w3.org/2000/svg"
     xmlns:xlink="http://www.w3.org/1999/xlink"
     xmlns:ev="http://www.w3.org/2001/xml-events"
     xmlns:klighd="http://de.cau.cs.kieler/klighd"
     xml:space="preserve"
     x="0px"
     y="0px"
     width="91px"
     height="96px"
     viewBox="0 0 91 96"
     preserveAspectRatio="xMidYMin slice"
     >
<title></title>
<desc>Creator: FreeHEP Graphics2D Driver Producer: de.cau.cs.kieler.klighd.piccolo.freehep.SemanticSVGGraphics2D Revision Source:  Date: Tuesday, October 29, 2019 1:02:19 AM CET</desc>
<g stroke-linejoin="miter" stroke-dashoffset="0" stroke-dasharray="none" stroke-width="1" stroke-miterlimit="10" stroke-linecap="square">
<g transform="matrix(1, 0, 0, 1, 0.5, 0)">
<g fill-opacity="1" fill-rule="nonzero" stroke="none" fill="#ffffff">
  <path d="M 0.5 1.5 L 0.5 94.5 C 0.5 95.05228474983079 0.9477152501692067 95.5 1.5 95.5 L 88.5 95.5 C 89.05228474983079 95.5 89.5 95.05228474983079 89.5 94.5 L 89.5 1.5 C 89.5 0.9477152501692067 89.05228474983079 0.5 88.5 0.5 L 1.5 0.5 C 0.9477152501692067 0.5 0.5 0.9477152501692067 0.5 1.5 z"/>
</g>
</g>
<g transform="matrix(1, 0, 0, 1, 0.5, 0)">
<g stroke-linecap="butt" fill="none" stroke-opacity="1" stroke="#000000">
  <path d="M 0.5 1.5 L 0.5 94.5 C 0.5 95.05228474983079 0.9477152501692067 95.5 1.5 95.5 L 88.5 95.5 C 89.05228474983079 95.5 89.5 95.05228474983079 89.5 94.5 L 89.5 1.5 C 89.5 0.9477152501692067 89.05228474983079 0.5 88.5 0.5 L 1.5 0.5 C 0.9477152501692067 0.5 0.5 0.9477152501692067 0.5 1.5 z"/>
</g>
</g>
<g transform="matrix(1, 0, 0, 1, 5.5, 4)">
<g fill-opacity="0" fill-rule="nonzero" stroke="none" fill="#000000">
  <path d="M 0 0 L 80 0 L 80 20 L 0 20 L 0 0 z"/>
</g>
</g>
<g transform="matrix(1, 0, 0, 1, 5.5, 4)">
<clipPath id="clip1">
  <path d="M -5.5 -4 L -5.5 92 L 85.5 92 L 85.5 -4 z"/>
</clipPath>
<g clip-path="url(#clip1)">
<text fill-opacity="1" font-style="normal" font-family="Helvetica" font-weight="bold" stroke="none" fill="#000000" font-size="14.666666984558105px" x="0" y="0"><tspan x="0" dy="15.0">ap_CS_fsm</tspan>
</text>
</g>
</g>
<g transform="matrix(1, 0, 0, 1, 0.5, 24)">
<g stroke-linecap="butt" fill="none" stroke-opacity="1" stroke="#000000">
  <path d="M 0 1.5 L 90 1.5"/>
</g>
</g>
<g transform="matrix(1, 0, 0, 1, 15.5, 42)">
<g fill-opacity="1" fill-rule="nonzero" stroke="none" fill="#c25e5f">
  <path d="M 37.5 19.5 C 37.5 29.99341024678507 29.217267871869673 38.5 19 38.5 C 8.782732128130323 38.5 0.5 29.99341024678507 0.5 19.5 C 0.5 9.006589753214927 8.782732128130323 0.5 19 0.5 C 29.217267871869673 0.5 37.5 9.006589753214927 37.5 19.5 z"/>
</g>
</g>
<g transform="matrix(1, 0, 0, 1, 15.5, 42)">
<g stroke-linecap="butt" fill="none" stroke-opacity="1" stroke="#000000">
  <path d="M 37.5 19.5 C 37.5 29.99341024678507 29.217267871869673 38.5 19 38.5 C 8.782732128130323 38.5 0.5 29.99341024678507 0.5 19.5 C 0.5 9.006589753214927 8.782732128130323 0.5 19 0.5 C 29.217267871869673 0.5 37.5 9.006589753214927 37.5 19.5 z"/>
</g>
</g>
<g transform="matrix(1, 0, 0, 1, 25.5, 52)">
<clipPath id="clip2">
  <path d="M -25.5 -52 L -25.5 44 L 65.5 44 L 65.5 -52 z"/>
</clipPath>
<g clip-path="url(#clip2)">
<text fill-opacity="1" font-style="normal" font-family="Helvetica" font-weight="normal" stroke="none" fill="#000000" font-size="14.666666984558105px" x="0" y="0"><tspan x="0" dy="14.0">"1"</tspan>
</text>
</g>
</g>
</g>
</svg>
