<?xml version="1.0" standalone="no"?>

<svg 
     version="1.1"
     baseProfile="full"
     xmlns="http://www.w3.org/2000/svg"
     xmlns:xlink="http://www.w3.org/1999/xlink"
     xmlns:ev="http://www.w3.org/2001/xml-events"
     xmlns:klighd="http://de.cau.cs.kieler/klighd"
     xml:space="preserve"
     x="0px"
     y="0px"
     width="1229px"
     height="607px"
     viewBox="0 0 1229 607"
     preserveAspectRatio="xMidYMin slice"
     >
<title></title>
<desc>Creator: FreeHEP Graphics2D Driver Producer: de.cau.cs.kieler.klighd.piccolo.freehep.SemanticSVGGraphics2D Revision Source:  Date: Tuesday, October 29, 2019 1:02:20 AM CET</desc>
<g stroke-linejoin="miter" stroke-dashoffset="0" stroke-dasharray="none" stroke-width="1" stroke-miterlimit="10" stroke-linecap="square">
<g transform="matrix(1, 0, 0, 1, 0.5, 0)">
<g fill-opacity="1" fill-rule="nonzero" stroke="none" fill="#ffffff">
  <path d="M 0.5 1.5 L 0.5 605.3428344726562 C 0.5 605.8951192224871 0.9477152501692067 606.3428344726562 1.5 606.3428344726562 L 1226.8333740234375 606.3428344726562 C 1227.3856587732682 606.3428344726562 1227.8333740234375 605.8951192224871 1227.8333740234375 605.3428344726562 L 1227.8333740234375 1.5 C 1227.8333740234375 0.9477152501692067 1227.3856587732682 0.5 1226.8333740234375 0.5 L 1.5 0.5 C 0.9477152501692067 0.5 0.5 0.9477152501692067 0.5 1.5 z"/>
</g>
</g>
<g transform="matrix(1, 0, 0, 1, 0.5, 0)">
<g stroke-linecap="butt" fill="none" stroke-opacity="1" stroke="#000000">
  <path d="M 0.5 1.5 L 0.5 605.3428344726562 C 0.5 605.8951192224871 0.9477152501692067 606.3428344726562 1.5 606.3428344726562 L 1226.8333740234375 606.3428344726562 C 1227.3856587732682 606.3428344726562 1227.8333740234375 605.8951192224871 1227.8333740234375 605.3428344726562 L 1227.8333740234375 1.5 C 1227.8333740234375 0.9477152501692067 1227.3856587732682 0.5 1226.8333740234375 0.5 L 1.5 0.5 C 0.9477152501692067 0.5 0.5 0.9477152501692067 0.5 1.5 z"/>
</g>
</g>
<g transform="matrix(1, 0, 0, 1, 589.1666870117188, 4)">
<g fill-opacity="0" fill-rule="nonzero" stroke="none" fill="#000000">
  <path d="M 0 0 L 51 0 L 51 20 L 0 20 L 0 0 z"/>
</g>
</g>
<g transform="matrix(1, 0, 0, 1, 589.1666870117188, 4)">
<clipPath id="clip1">
  <path d="M -589.1666870117188 -4 L -589.1666870117188 602.8428344726562 L 640.1666870117188 602.8428344726562 L 640.1666870117188 -4 z"/>
</clipPath>
<g clip-path="url(#clip1)">
<text fill-opacity="1" font-style="normal" font-family="Helvetica" font-weight="bold" stroke="none" fill="#000000" font-size="14.666666984558105px" x="0" y="0"><tspan x="0" dy="15.0">current</tspan>
</text>
</g>
</g>
<g transform="matrix(1, 0, 0, 1, 0.5, 24)">
<g stroke-linecap="butt" fill="none" stroke-opacity="1" stroke="#000000">
  <path d="M 0 1.5 L 1228.3333740234375 1.5"/>
</g>
</g>
<g transform="matrix(1, 0, 0, 1, 279.5, 393.01666259765625)">
<g fill-opacity="1" fill-rule="nonzero" stroke="none" fill="#ffffff">
  <path d="M 37.5 19.5 C 37.5 29.99341024678507 29.217267871869673 38.5 19 38.5 C 8.782732128130323 38.5 0.5 29.99341024678507 0.5 19.5 C 0.5 9.006589753214927 8.782732128130323 0.5 19 0.5 C 29.217267871869673 0.5 37.5 9.006589753214927 37.5 19.5 z"/>
</g>
</g>
<g transform="matrix(1, 0, 0, 1, 279.5, 393.01666259765625)">
<g stroke-linecap="butt" fill="none" stroke-opacity="1" stroke="#000000">
  <path d="M 37.5 19.5 C 37.5 29.99341024678507 29.217267871869673 38.5 19 38.5 C 8.782732128130323 38.5 0.5 29.99341024678507 0.5 19.5 C 0.5 9.006589753214927 8.782732128130323 0.5 19 0.5 C 29.217267871869673 0.5 37.5 9.006589753214927 37.5 19.5 z"/>
</g>
</g>
<g transform="matrix(1, 0, 0, 1, 289.5, 403.01666259765625)">
<clipPath id="clip2">
  <path d="M -289.5 -403.01666259765625 L -289.5 203.826171875 L 939.8333740234375 203.826171875 L 939.8333740234375 -403.01666259765625 z"/>
</clipPath>
<g clip-path="url(#clip2)">
<text fill-opacity="1" font-style="normal" font-family="Helvetica" font-weight="normal" stroke="none" fill="#000000" font-size="14.666666984558105px" x="0" y="0"><tspan x="0" dy="14.0">S0</tspan>
</text>
</g>
</g>
<g transform="matrix(1, 0, 0, 1, 302, 552.8428344726562)">
<g fill-opacity="1" fill-rule="nonzero" stroke="none" fill="#ffffff">
  <path d="M 107.5 19.5 C 107.5 29.99341024678507 83.54723411594743 38.5 54 38.5 C 24.452765884052557 38.5 0.5 29.99341024678507 0.5 19.5 C 0.5 9.006589753214927 24.452765884052557 0.5 54 0.5 C 83.54723411594743 0.5 107.5 9.006589753214927 107.5 19.5 z"/>
</g>
</g>
<g transform="matrix(1, 0, 0, 1, 302, 552.8428344726562)">
<g stroke-linecap="butt" fill="none" stroke-opacity="1" stroke="#000000">
  <path d="M 107.5 19.5 C 107.5 29.99341024678507 83.54723411594743 38.5 54 38.5 C 24.452765884052557 38.5 0.5 29.99341024678507 0.5 19.5 C 0.5 9.006589753214927 24.452765884052557 0.5 54 0.5 C 83.54723411594743 0.5 107.5 9.006589753214927 107.5 19.5 z"/>
</g>
</g>
<g transform="matrix(1, 0, 0, 1, 312, 562.8428344726562)">
<clipPath id="clip3">
  <path d="M -312 -562.8428344726562 L -312 44 L 917.3333740234375 44 L 917.3333740234375 -562.8428344726562 z"/>
</clipPath>
<g clip-path="url(#clip3)">
<text fill-opacity="1" font-style="normal" font-family="Helvetica" font-weight="normal" stroke="none" fill="#000000" font-size="14.666666984558105px" x="0" y="0"><tspan x="0" dy="14.0">S_STARTED</tspan>
</text>
</g>
</g>
<g transform="matrix(1, 0, 0, 1, 243.5, 42)">
<g fill-opacity="1" fill-rule="nonzero" stroke="none" fill="#ffffff">
  <path d="M 39.5 19.5 C 39.5 29.99341024678507 30.76955262170047 38.5 20 38.5 C 9.23044737829953 38.5 0.5 29.99341024678507 0.5 19.5 C 0.5 9.006589753214927 9.23044737829953 0.5 20 0.5 C 30.76955262170047 0.5 39.5 9.006589753214927 39.5 19.5 z"/>
</g>
</g>
<g transform="matrix(1, 0, 0, 1, 243.5, 42)">
<g stroke-linecap="butt" fill="none" stroke-opacity="1" stroke="#000000">
  <path d="M 39.5 19.5 C 39.5 29.99341024678507 30.76955262170047 38.5 20 38.5 C 9.23044737829953 38.5 0.5 29.99341024678507 0.5 19.5 C 0.5 9.006589753214927 9.23044737829953 0.5 20 0.5 C 30.76955262170047 0.5 39.5 9.006589753214927 39.5 19.5 z"/>
</g>
</g>
<g transform="matrix(1, 0, 0, 1, 254.5, 52)">
<clipPath id="clip4">
  <path d="M -254.5 -52 L -254.5 554.8428344726562 L 974.8333740234375 554.8428344726562 L 974.8333740234375 -52 z"/>
</clipPath>
<g clip-path="url(#clip4)">
<text fill-opacity="1" font-style="normal" font-family="Helvetica" font-weight="normal" stroke="none" fill="#000000" font-size="14.666666984558105px" x="0" y="0"><tspan x="0" dy="14.0">S1</tspan>
</text>
</g>
</g>
<g transform="matrix(1, 0, 0, 1, 797.5, 174.3000030517578)">
<g fill-opacity="1" fill-rule="nonzero" stroke="none" fill="#ffffff">
  <path d="M 37.5 19.5 C 37.5 29.99341024678507 29.217267871869673 38.5 19 38.5 C 8.782732128130323 38.5 0.5 29.99341024678507 0.5 19.5 C 0.5 9.006589753214927 8.782732128130323 0.5 19 0.5 C 29.217267871869673 0.5 37.5 9.006589753214927 37.5 19.5 z"/>
</g>
</g>
<g transform="matrix(1, 0, 0, 1, 797.5, 174.3000030517578)">
<g stroke-linecap="butt" fill="none" stroke-opacity="1" stroke="#000000">
  <path d="M 37.5 19.5 C 37.5 29.99341024678507 29.217267871869673 38.5 19 38.5 C 8.782732128130323 38.5 0.5 29.99341024678507 0.5 19.5 C 0.5 9.006589753214927 8.782732128130323 0.5 19 0.5 C 29.217267871869673 0.5 37.5 9.006589753214927 37.5 19.5 z"/>
</g>
</g>
<g transform="matrix(1, 0, 0, 1, 807.5, 184.3000030517578)">
<clipPath id="clip5">
  <path d="M -807.5 -184.3000030517578 L -807.5 422.54283142089844 L 421.8333740234375 422.54283142089844 L 421.8333740234375 -184.3000030517578 z"/>
</clipPath>
<g clip-path="url(#clip5)">
<text fill-opacity="1" font-style="normal" font-family="Helvetica" font-weight="normal" stroke="none" fill="#000000" font-size="14.666666984558105px" x="0" y="0"><tspan x="0" dy="14.0">S2</tspan>
</text>
</g>
</g>
<g transform="matrix(1, 0, 0, 1, 638.3333129882812, 291.29998779296875)">
<g fill-opacity="1" fill-rule="nonzero" stroke="none" fill="#ffffff">
  <path d="M 37.5 19.5 C 37.5 29.99341024678507 29.217267871869673 38.5 19 38.5 C 8.782732128130323 38.5 0.5 29.99341024678507 0.5 19.5 C 0.5 9.006589753214927 8.782732128130323 0.5 19 0.5 C 29.217267871869673 0.5 37.5 9.006589753214927 37.5 19.5 z"/>
</g>
</g>
<g transform="matrix(1, 0, 0, 1, 638.3333129882812, 291.29998779296875)">
<g stroke-linecap="butt" fill="none" stroke-opacity="1" stroke="#000000">
  <path d="M 37.5 19.5 C 37.5 29.99341024678507 29.217267871869673 38.5 19 38.5 C 8.782732128130323 38.5 0.5 29.99341024678507 0.5 19.5 C 0.5 9.006589753214927 8.782732128130323 0.5 19 0.5 C 29.217267871869673 0.5 37.5 9.006589753214927 37.5 19.5 z"/>
</g>
</g>
<g transform="matrix(1, 0, 0, 1, 648.3333129882812, 301.29998779296875)">
<clipPath id="clip6">
  <path d="M -648.3333129882812 -301.29998779296875 L -648.3333129882812 305.5428466796875 L 581.0000610351562 305.5428466796875 L 581.0000610351562 -301.29998779296875 z"/>
</clipPath>
<g clip-path="url(#clip6)">
<text fill-opacity="1" font-style="normal" font-family="Helvetica" font-weight="normal" stroke="none" fill="#000000" font-size="14.666666984558105px" x="0" y="0"><tspan x="0" dy="14.0">S3</tspan>
</text>
</g>
</g>
<g transform="matrix(1, 0, 0, 1, 378.8333435058594, 393.01666259765625)">
<g fill-opacity="1" fill-rule="nonzero" stroke="none" fill="#ffffff">
  <path d="M 69.5 19.5 C 69.5 29.99341024678507 54.053823869162365 38.5 35 38.5 C 15.94617613083763 38.5 0.5 29.99341024678507 0.5 19.5 C 0.5 9.006589753214927 15.94617613083763 0.5 35 0.5 C 54.053823869162365 0.5 69.5 9.006589753214927 69.5 19.5 z"/>
</g>
</g>
<g transform="matrix(1, 0, 0, 1, 378.8333435058594, 393.01666259765625)">
<g stroke-linecap="butt" fill="none" stroke-opacity="1" stroke="#000000">
  <path d="M 69.5 19.5 C 69.5 29.99341024678507 54.053823869162365 38.5 35 38.5 C 15.94617613083763 38.5 0.5 29.99341024678507 0.5 19.5 C 0.5 9.006589753214927 15.94617613083763 0.5 35 0.5 C 54.053823869162365 0.5 69.5 9.006589753214927 69.5 19.5 z"/>
</g>
</g>
<g transform="matrix(1, 0, 0, 1, 388.8333435058594, 403.01666259765625)">
<clipPath id="clip7">
  <path d="M -388.8333435058594 -403.01666259765625 L -388.8333435058594 203.826171875 L 840.5000305175781 203.826171875 L 840.5000305175781 -403.01666259765625 z"/>
</clipPath>
<g clip-path="url(#clip7)">
<text fill-opacity="1" font-style="normal" font-family="Helvetica" font-weight="normal" stroke="none" fill="#000000" font-size="14.666666984558105px" x="0" y="0"><tspan x="0" dy="14.0">S_END</tspan>
</text>
</g>
</g>
<g transform="matrix(1, 0, 0, 1, 3.5, 30)">
<g stroke-linecap="round" fill="none" stroke-opacity="1" stroke="#000000">
  <path d="M 295 402.01666259765625 C 295 412.01666259765625 295 419.26666259765625 295 425.3083190917969 C 295 431.3500061035156 295 436.1833190917969 295 448.8282775878906 C 295 461.47320556640625 295 481.92974853515625 344.8632507324219 523.038818359375"/>
</g>
</g>
<g transform="matrix(0.7509582418767791, 0.6603496944478258, -0.6603496944478258, 0.7509582418767791, 344.33663385635595, 545.5031461059045)">
<g fill-opacity="1" fill-rule="nonzero" stroke="none" fill="#000000">
  <path d="M 0 0 L 3.200000047683716 3 L 0 6 L 8 3 z"/>
</g>
</g>
<g transform="matrix(0.7509582418767791, 0.6603496944478258, -0.6603496944478258, 0.7509582418767791, 344.33663385635595, 545.5031461059045)">
<g stroke-linejoin="round" stroke-linecap="butt" fill="none" stroke-opacity="1" stroke="#000000">
  <path d="M 0 0 L 3.200000047683716 3 L 0 6 L 8 3 z"/>
</g>
</g>
<g transform="matrix(1, 0, 0, 1, 234.5, 452.01666259765625)">
<clipPath id="clip8">
  <path d="M -234.5 -452.01666259765625 L -234.5 154.826171875 L 994.8333740234375 154.826171875 L 994.8333740234375 -452.01666259765625 z"/>
</clipPath>
<g clip-path="url(#clip8)">
<text fill-opacity="1" font-style="normal" font-family="Helvetica" font-weight="normal" stroke="none" fill="#000000" font-size="14.666666984558105px" x="0" y="0"><tspan x="0" dy="14.0">start = '1'</tspan>
</text>
</g>
</g>
<g transform="matrix(1, 0, 0, 1, 3.5, 30)">
<g stroke-linecap="round" fill="none" stroke-opacity="1" stroke="#000000">
  <path d="M 321.1131286621094 526.4750366210938 C 169 481.92974853515625 169 461.47320556640625 169 448.8282775878906 C 169 436.1833190917969 169 431.3500061035156 169 426.51666259765625 C 169 421.6833190917969 169 416.8500061035156 169 404.6000061035156 C 169 392.3500061035156 169 372.6833190917969 169 359.44512939453125 C 169 346.2069396972656 169 339.397216796875 169 332.5874938964844 C 169 325.77777099609375 169 318.9680480957031 169 305.4201354980469 C 169 291.8722229003906 169 271.58612060546875 169 257.4013977050781 C 169 243.21665954589844 169 235.13333129882812 169 227.0500030517578 C 169 218.96665954589844 169 210.88333129882812 169 195.4250030517578 C 169 179.96665954589844 169 157.13333129882812 169 143.3000030517578 C 169 129.46665954589844 169 124.63333129882812 169 119.80000305175781 C 169 114.96666717529297 169 110.13333129882812 169 100.92916870117188 C 169 91.7249984741211 169 78.1500015258789 251.05572509765625 48.94132995605469"/>
</g>
</g>
<g transform="matrix(0.9353534473401519, -0.35371447319680555, 0.35371447319680555, 0.9353534473401519, 246.01175409250814, 78.96498538153068)">
<g fill-opacity="1" fill-rule="nonzero" stroke="none" fill="#000000">
  <path d="M 0 0 L 3.200000047683716 3 L 0 6 L 8 3 z"/>
</g>
</g>
<g transform="matrix(0.9353534473401519, -0.35371447319680555, 0.35371447319680555, 0.9353534473401519, 246.01175409250814, 78.96498538153068)">
<g stroke-linejoin="round" stroke-linecap="butt" fill="none" stroke-opacity="1" stroke="#000000">
  <path d="M 0 0 L 3.200000047683716 3 L 0 6 L 8 3 z"/>
</g>
</g>
<g transform="matrix(1, 0, 0, 1, 15.5, 301.29998779296875)">
<clipPath id="clip9">
  <path d="M -15.5 -301.29998779296875 L -15.5 305.5428466796875 L 1213.8333740234375 305.5428466796875 L 1213.8333740234375 -301.29998779296875 z"/>
</clipPath>
<g clip-path="url(#clip9)">
<text fill-opacity="1" font-style="normal" font-family="Helvetica" font-weight="normal" stroke="none" fill="#000000" font-size="14.666666984558105px" x="0" y="0"><tspan x="0" dy="14.0">idle_next_controler = '1'</tspan>
</text>
</g>
</g>
<g transform="matrix(1, 0, 0, 1, 3.5, 30)">
<g stroke-linecap="round" fill="none" stroke-opacity="1" stroke="#000000">
  <path d="M 260 51 C 220 78.1500015258789 220 91.7249984741211 220 100.92916870117188 C 220 110.13333129882812 220 114.96666717529297 220 119.80000305175781 C 220 124.63333129882812 220 129.46665954589844 220 143.3000030517578 C 220 157.13333129882812 220 179.96665954589844 220 195.4250030517578 C 220 210.88333129882812 220 218.96665954589844 220 227.0500030517578 C 220 235.13333129882812 220 243.21665954589844 220 257.4013977050781 C 220 271.58612060546875 220 291.8722229003906 220 305.4201354980469 C 220 318.9680480957031 220 325.77777099609375 220 332.5874938964844 C 220 339.397216796875 220 346.2069396972656 220 359.44512939453125 C 220 372.6833190917969 220 392.3500061035156 220 404.6000061035156 C 220 416.8500061035156 220 421.6833190917969 220 426.51666259765625 C 220 431.3500061035156 220 436.1833190917969 220 448.8282775878906 C 220 461.47320556640625 220 481.92974853515625 331.2283630371094 524.4195556640625"/>
</g>
</g>
<g transform="matrix(0.9263471690429353, 0.37667084092897246, -0.37667084092897246, 0.9263471690429353, 328.447598214717, 548.627147411883)">
<g fill-opacity="1" fill-rule="nonzero" stroke="none" fill="#000000">
  <path d="M 0 0 L 3.200000047683716 3 L 0 6 L 8 3 z"/>
</g>
</g>
<g transform="matrix(0.9263471690429353, 0.37667084092897246, -0.37667084092897246, 0.9263471690429353, 328.447598214717, 548.627147411883)">
<g stroke-linejoin="round" stroke-linecap="butt" fill="none" stroke-opacity="1" stroke="#000000">
  <path d="M 0 0 L 3.200000047683716 3 L 0 6 L 8 3 z"/>
</g>
</g>
<g transform="matrix(1, 0, 0, 1, 229.5, 301.29998779296875)">
<clipPath id="clip10">
  <path d="M -229.5 -301.29998779296875 L -229.5 305.5428466796875 L 999.8333740234375 305.5428466796875 L 999.8333740234375 -301.29998779296875 z"/>
</clipPath>
<g clip-path="url(#clip10)">
<text fill-opacity="1" font-style="normal" font-family="Helvetica" font-weight="normal" stroke="none" fill="#000000" font-size="14.666666984558105px" x="0" y="0"><tspan x="0" dy="14.0">idle_next_controler = '0'</tspan>
</text>
</g>
</g>
<g transform="matrix(1, 0, 0, 1, 3.5, 30)">
<g stroke-linecap="round" fill="none" stroke-opacity="1" stroke="#000000">
  <path d="M 268.94427490234375 48.94132995605469 C 813 78.1500015258789 813 91.7249984741211 813 100.92916870117188 C 813 110.13333129882812 813 114.96666717529297 813 121.00833129882812 C 813 127.05000305175781 813 134.3000030517578 813 144.3000030517578"/>
</g>
</g>
<g transform="matrix(-0.00000004371139024679, 0.999999999999999, -0.999999999999999, -0.00000004371139024679, 819.5000002622684, 166.300003182892)">
<g fill-opacity="1" fill-rule="nonzero" stroke="none" fill="#000000">
  <path d="M 0 0 L 3.200000047683716 3 L 0 6 L 8 3 z"/>
</g>
</g>
<g transform="matrix(-0.00000004371139024679, 0.999999999999999, -0.999999999999999, -0.00000004371139024679, 819.5000002622684, 166.300003182892)">
<g stroke-linejoin="round" stroke-linecap="butt" fill="none" stroke-opacity="1" stroke="#000000">
  <path d="M 0 0 L 3.200000047683716 3 L 0 6 L 8 3 z"/>
</g>
</g>
<g transform="matrix(1, 0, 0, 1, 822.5, 135.3000030517578)">
<clipPath id="clip11">
  <path d="M -822.5 -135.3000030517578 L -822.5 471.54283142089844 L 406.8333740234375 471.54283142089844 L 406.8333740234375 -135.3000030517578 z"/>
</clipPath>
<g clip-path="url(#clip11)">
<text fill-opacity="1" font-style="normal" font-family="Helvetica" font-weight="normal" stroke="none" fill="#000000" font-size="14.666666984558105px" x="0" y="0"><tspan x="0" dy="14.0">idle_scheduler = '1'</tspan>
</text>
</g>
</g>
<g transform="matrix(1, 0, 0, 1, 3.5, 30)">
<g stroke-linecap="round" fill="none" stroke-opacity="1" stroke="#000000">
  <path d="M 819.00830078125 182.29933166503906 C 1209.3333740234375 202.8000030517578 1209.3333740234375 212.5500030517578 1209.3333740234375 219.84165954589844 C 1209.3333740234375 227.13333129882812 1209.3333740234375 231.96665954589844 1209.3333740234375 236.8000030517578 C 1209.3333740234375 241.63333129882812 1209.3333740234375 246.46665954589844 1209.3333740234375 259.0263977050781 C 1209.3333740234375 271.58612060546875 1209.3333740234375 291.8722229003906 1209.3333740234375 305.4201354980469 C 1209.3333740234375 318.9680480957031 1209.3333740234375 325.77777099609375 1209.3333740234375 332.5874938964844 C 1209.3333740234375 339.397216796875 1209.3333740234375 346.2069396972656 1209.3333740234375 359.44512939453125 C 1209.3333740234375 372.6833190917969 1209.3333740234375 392.3500061035156 1209.3333740234375 404.6000061035156 C 1209.3333740234375 416.8500061035156 1209.3333740234375 421.6833190917969 1209.3333740234375 426.51666259765625 C 1209.3333740234375 431.3500061035156 1209.3333740234375 436.1833190917969 1209.3333740234375 448.8282775878906 C 1209.3333740234375 461.47320556640625 1209.3333740234375 481.92974853515625 383.8868713378906 526.4750366210938"/>
</g>
</g>
<g transform="matrix(-0.998363415704602, 0.057188199680005096, -0.057188199680005096, -0.998363415704602, 395.5453432737884, 559.0126214666567)">
<g fill-opacity="1" fill-rule="nonzero" stroke="none" fill="#000000">
  <path d="M 0 0 L 3.200000047683716 3 L 0 6 L 8 3 z"/>
</g>
</g>
<g transform="matrix(-0.998363415704602, 0.057188199680005096, -0.057188199680005096, -0.998363415704602, 395.5453432737884, 559.0126214666567)">
<g stroke-linejoin="round" stroke-linecap="butt" fill="none" stroke-opacity="1" stroke="#000000">
  <path d="M 0 0 L 3.200000047683716 3 L 0 6 L 8 3 z"/>
</g>
</g>
<g transform="matrix(1, 0, 0, 1, 911.8333129882812, 354.01666259765625)">
<clipPath id="clip12">
  <path d="M -911.8333129882812 -354.01666259765625 L -911.8333129882812 252.826171875 L 317.50006103515625 252.826171875 L 317.50006103515625 -354.01666259765625 z"/>
</clipPath>
<g clip-path="url(#clip12)">
<text fill-opacity="1" font-style="normal" font-family="Helvetica" font-weight="normal" stroke="none" fill="#000000" font-size="14.666666984558105px" x="0" y="0"><tspan x="0" dy="14.0">idle_next_controler = '0' or idle_scheduler = '0'</tspan>
</text>
</g>
</g>
<g transform="matrix(1, 0, 0, 1, 3.5, 30)">
<g stroke-linecap="round" fill="none" stroke-opacity="1" stroke="#000000">
  <path d="M 806.99169921875 182.29933166503906 C 653.8333129882812 202.8000030517578 653.8333129882812 212.5500030517578 653.8333129882812 219.84165954589844 C 653.8333129882812 227.13333129882812 653.8333129882812 231.96665954589844 653.8333129882812 238.00833129882812 C 653.8333129882812 244.0500030517578 653.8333129882812 251.3000030517578 653.8333129882812 261.29998779296875"/>
</g>
</g>
<g transform="matrix(-0.00000004371139024679, 0.999999999999999, -0.999999999999999, -0.00000004371139024679, 660.3333132505496, 283.29998792410294)">
<g fill-opacity="1" fill-rule="nonzero" stroke="none" fill="#000000">
  <path d="M 0 0 L 3.200000047683716 3 L 0 6 L 8 3 z"/>
</g>
</g>
<g transform="matrix(-0.00000004371139024679, 0.999999999999999, -0.999999999999999, -0.00000004371139024679, 660.3333132505496, 283.29998792410294)">
<g stroke-linejoin="round" stroke-linecap="butt" fill="none" stroke-opacity="1" stroke="#000000">
  <path d="M 0 0 L 3.200000047683716 3 L 0 6 L 8 3 z"/>
</g>
</g>
<g transform="matrix(1, 0, 0, 1, 542.3333129882812, 252.3000030517578)">
<clipPath id="clip13">
  <path d="M -542.3333129882812 -252.3000030517578 L -542.3333129882812 354.54283142089844 L 687.0000610351562 354.54283142089844 L 687.0000610351562 -252.3000030517578 z"/>
</clipPath>
<g clip-path="url(#clip13)">
<text fill-opacity="1" font-style="normal" font-family="Helvetica" font-weight="normal" stroke="none" fill="#000000" font-size="14.666666984558105px" x="0" y="0"><tspan x="0" dy="14.0">open_empty = '1'</tspan>
</text>
</g>
</g>
<g transform="matrix(1, 0, 0, 1, 3.5, 30)">
<g stroke-linecap="round" fill="none" stroke-opacity="1" stroke="#000000">
  <path d="M 659.8416748046875 299.29931640625 C 897.3333129882812 312.1583251953125 897.3333129882812 318.0874938964844 897.3333129882812 323.46875 C 897.3333129882812 328.8500061035156 897.3333129882812 333.6833190917969 897.3333129882812 338.51666259765625 C 897.3333129882812 343.3500061035156 897.3333129882812 348.1833190917969 897.3333129882812 360.4333190917969 C 897.3333129882812 372.6833190917969 897.3333129882812 392.3500061035156 897.3333129882812 404.6000061035156 C 897.3333129882812 416.8500061035156 897.3333129882812 421.6833190917969 897.3333129882812 426.51666259765625 C 897.3333129882812 431.3500061035156 897.3333129882812 436.1833190917969 897.3333129882812 448.8282775878906 C 897.3333129882812 461.47320556640625 897.3333129882812 481.92974853515625 373.7716369628906 524.4195556640625"/>
</g>
</g>
<g transform="matrix(-0.9962896118284267, 0.08606398412090246, -0.08606398412090246, -0.9962896118284267, 385.5001458064024, 556.719912586314)">
<g fill-opacity="1" fill-rule="nonzero" stroke="none" fill="#000000">
  <path d="M 0 0 L 3.200000047683716 3 L 0 6 L 8 3 z"/>
</g>
</g>
<g transform="matrix(-0.9962896118284267, 0.08606398412090246, -0.08606398412090246, -0.9962896118284267, 385.5001458064024, 556.719912586314)">
<g stroke-linejoin="round" stroke-linecap="butt" fill="none" stroke-opacity="1" stroke="#000000">
  <path d="M 0 0 L 3.200000047683716 3 L 0 6 L 8 3 z"/>
</g>
</g>
<g transform="matrix(1, 0, 0, 1, 468.8333435058594, 403.01666259765625)">
<clipPath id="clip14">
  <path d="M -468.8333435058594 -403.01666259765625 L -468.8333435058594 203.826171875 L 760.5000305175781 203.826171875 L 760.5000305175781 -403.01666259765625 z"/>
</clipPath>
<g clip-path="url(#clip14)">
<text fill-opacity="1" font-style="normal" font-family="Helvetica" font-weight="normal" stroke="none" fill="#000000" font-size="14.666666984558105px" x="0" y="0"><tspan x="0" dy="14.0">idle_next_controler = '0' or idle_scheduler = '0' or open_empty = '0'</tspan>
</text>
</g>
</g>
<g transform="matrix(1, 0, 0, 1, 3.5, 30)">
<g stroke-linecap="round" fill="none" stroke-opacity="1" stroke="#000000">
  <path d="M 647.8250122070312 299.29931640625 C 410.3333435058594 312.1583251953125 410.3333435058594 318.0874938964844 410.3333435058594 323.46875 C 410.3333435058594 328.8500061035156 410.3333435058594 333.6833190917969 410.3333435058594 339.7250061035156 C 410.3333435058594 345.76666259765625 410.3333435058594 353.01666259765625 410.3333435058594 363.01666259765625"/>
</g>
</g>
<g transform="matrix(-0.00000004371139024679, 0.999999999999999, -0.999999999999999, -0.00000004371139024679, 416.8333437681277, 385.01666272879044)">
<g fill-opacity="1" fill-rule="nonzero" stroke="none" fill="#000000">
  <path d="M 0 0 L 3.200000047683716 3 L 0 6 L 8 3 z"/>
</g>
</g>
<g transform="matrix(-0.00000004371139024679, 0.999999999999999, -0.999999999999999, -0.00000004371139024679, 416.8333437681277, 385.01666272879044)">
<g stroke-linejoin="round" stroke-linecap="butt" fill="none" stroke-opacity="1" stroke="#000000">
  <path d="M 0 0 L 3.200000047683716 3 L 0 6 L 8 3 z"/>
</g>
</g>
<g transform="matrix(1, 0, 0, 1, 404.8333435058594, 354.01666259765625)">
<clipPath id="clip15">
  <path d="M -404.8333435058594 -354.01666259765625 L -404.8333435058594 252.826171875 L 824.5000305175781 252.826171875 L 824.5000305175781 -354.01666259765625 z"/>
</clipPath>
<g clip-path="url(#clip15)">
<text fill-opacity="1" font-style="normal" font-family="Helvetica" font-weight="normal" stroke="none" fill="#000000" font-size="14.666666984558105px" x="0" y="0"><tspan x="0" dy="14.0">&#x00a0;</tspan>
</text>
</g>
</g>
<g transform="matrix(1, 0, 0, 1, 3.5, 30)">
<g stroke-linecap="round" fill="none" stroke-opacity="1" stroke="#000000">
  <path d="M 410.3333435058594 402.01666259765625 C 410.3333435058594 412.01666259765625 410.3333435058594 419.26666259765625 410.3333435058594 425.3083190917969 C 410.3333435058594 431.3500061035156 410.3333435058594 436.1833190917969 410.3333435058594 448.8282775878906 C 410.3333435058594 461.47320556640625 410.3333435058594 481.92974853515625 360.1367492675781 523.038818359375"/>
</g>
</g>
<g transform="matrix(-0.7531348578558306, 0.657866161071139, -0.657866161071139, -0.7531348578558306, 371.635426510147, 550.0352935258951)">
<g fill-opacity="1" fill-rule="nonzero" stroke="none" fill="#000000">
  <path d="M 0 0 L 3.200000047683716 3 L 0 6 L 8 3 z"/>
</g>
</g>
<g transform="matrix(-0.7531348578558306, 0.657866161071139, -0.657866161071139, -0.7531348578558306, 371.635426510147, 550.0352935258951)">
<g stroke-linejoin="round" stroke-linecap="butt" fill="none" stroke-opacity="1" stroke="#000000">
  <path d="M 0 0 L 3.200000047683716 3 L 0 6 L 8 3 z"/>
</g>
</g>
<g transform="matrix(1, 0, 0, 1, 349.8333435058594, 452.01666259765625)">
<clipPath id="clip16">
  <path d="M -349.8333435058594 -452.01666259765625 L -349.8333435058594 154.826171875 L 879.5000305175781 154.826171875 L 879.5000305175781 -452.01666259765625 z"/>
</clipPath>
<g clip-path="url(#clip16)">
<text fill-opacity="1" font-style="normal" font-family="Helvetica" font-weight="normal" stroke="none" fill="#000000" font-size="14.666666984558105px" x="0" y="0"><tspan x="0" dy="14.0">start = '1'</tspan>
</text>
</g>
</g>
</g>
</svg>
