<?xml version="1.0" standalone="no"?>

<svg 
     version="1.1"
     baseProfile="full"
     xmlns="http://www.w3.org/2000/svg"
     xmlns:xlink="http://www.w3.org/1999/xlink"
     xmlns:ev="http://www.w3.org/2001/xml-events"
     xmlns:klighd="http://de.cau.cs.kieler/klighd"
     xml:space="preserve"
     x="0px"
     y="0px"
     width="622px"
     height="211px"
     viewBox="0 0 622 211"
     preserveAspectRatio="xMidYMin slice"
     >
<title></title>
<desc>Creator: FreeHEP Graphics2D Driver Producer: de.cau.cs.kieler.klighd.piccolo.freehep.SemanticSVGGraphics2D Revision Source:  Date: Tuesday, October 29, 2019 1:02:20 AM CET</desc>
<g stroke-linejoin="miter" stroke-dashoffset="0" stroke-dasharray="none" stroke-width="1" stroke-miterlimit="10" stroke-linecap="square">
<g transform="matrix(1, 0, 0, 1, 0.5, 0)">
<g fill-opacity="1" fill-rule="nonzero" stroke="none" fill="#ffffff">
  <path d="M 0.5 1.5 L 0.5 209.60000610351562 C 0.5 210.15229085334641 0.9477152501692067 210.60000610351562 1.5 210.60000610351562 L 619.5 210.60000610351562 C 620.0522847498308 210.60000610351562 620.5 210.15229085334641 620.5 209.60000610351562 L 620.5 1.5 C 620.5 0.9477152501692067 620.0522847498308 0.5 619.5 0.5 L 1.5 0.5 C 0.9477152501692067 0.5 0.5 0.9477152501692067 0.5 1.5 z"/>
</g>
</g>
<g transform="matrix(1, 0, 0, 1, 0.5, 0)">
<g stroke-linecap="butt" fill="none" stroke-opacity="1" stroke="#000000">
  <path d="M 0.5 1.5 L 0.5 209.60000610351562 C 0.5 210.15229085334641 0.9477152501692067 210.60000610351562 1.5 210.60000610351562 L 619.5 210.60000610351562 C 620.0522847498308 210.60000610351562 620.5 210.15229085334641 620.5 209.60000610351562 L 620.5 1.5 C 620.5 0.9477152501692067 620.0522847498308 0.5 619.5 0.5 L 1.5 0.5 C 0.9477152501692067 0.5 0.5 0.9477152501692067 0.5 1.5 z"/>
</g>
</g>
<g transform="matrix(1, 0, 0, 1, 285.5, 4)">
<g fill-opacity="0" fill-rule="nonzero" stroke="none" fill="#000000">
  <path d="M 0 0 L 51 0 L 51 20 L 0 20 L 0 0 z"/>
</g>
</g>
<g transform="matrix(1, 0, 0, 1, 285.5, 4)">
<clipPath id="clip1">
  <path d="M -285.5 -4 L -285.5 207.10000610351562 L 336.5 207.10000610351562 L 336.5 -4 z"/>
</clipPath>
<g clip-path="url(#clip1)">
<text fill-opacity="1" font-style="normal" font-family="Helvetica" font-weight="bold" stroke="none" fill="#000000" font-size="14.666666984558105px" x="0" y="0"><tspan x="0" dy="15.0">current</tspan>
</text>
</g>
</g>
<g transform="matrix(1, 0, 0, 1, 0.5, 24)">
<g stroke-linecap="butt" fill="none" stroke-opacity="1" stroke="#000000">
  <path d="M 0 1.5 L 621 1.5"/>
</g>
</g>
<g transform="matrix(1, 0, 0, 1, 155, 157.0999984741211)">
<g fill-opacity="1" fill-rule="nonzero" stroke="none" fill="#ffffff">
  <path d="M 37.5 19.5 C 37.5 29.99341024678507 29.217267871869673 38.5 19 38.5 C 8.782732128130323 38.5 0.5 29.99341024678507 0.5 19.5 C 0.5 9.006589753214927 8.782732128130323 0.5 19 0.5 C 29.217267871869673 0.5 37.5 9.006589753214927 37.5 19.5 z"/>
</g>
</g>
<g transform="matrix(1, 0, 0, 1, 155, 157.0999984741211)">
<g stroke-linecap="butt" fill="none" stroke-opacity="1" stroke="#000000">
  <path d="M 37.5 19.5 C 37.5 29.99341024678507 29.217267871869673 38.5 19 38.5 C 8.782732128130323 38.5 0.5 29.99341024678507 0.5 19.5 C 0.5 9.006589753214927 8.782732128130323 0.5 19 0.5 C 29.217267871869673 0.5 37.5 9.006589753214927 37.5 19.5 z"/>
</g>
</g>
<g transform="matrix(1, 0, 0, 1, 165, 167.0999984741211)">
<clipPath id="clip2">
  <path d="M -165 -167.0999984741211 L -165 44.00000762939453 L 457 44.00000762939453 L 457 -167.0999984741211 z"/>
</clipPath>
<g clip-path="url(#clip2)">
<text fill-opacity="1" font-style="normal" font-family="Helvetica" font-weight="normal" stroke="none" fill="#000000" font-size="14.666666984558105px" x="0" y="0"><tspan x="0" dy="14.0">S0</tspan>
</text>
</g>
</g>
<g transform="matrix(1, 0, 0, 1, 179.5, 42)">
<g fill-opacity="1" fill-rule="nonzero" stroke="none" fill="#ffffff">
  <path d="M 39.5 19.5 C 39.5 29.99341024678507 30.76955262170047 38.5 20 38.5 C 9.23044737829953 38.5 0.5 29.99341024678507 0.5 19.5 C 0.5 9.006589753214927 9.23044737829953 0.5 20 0.5 C 30.76955262170047 0.5 39.5 9.006589753214927 39.5 19.5 z"/>
</g>
</g>
<g transform="matrix(1, 0, 0, 1, 179.5, 42)">
<g stroke-linecap="butt" fill="none" stroke-opacity="1" stroke="#000000">
  <path d="M 39.5 19.5 C 39.5 29.99341024678507 30.76955262170047 38.5 20 38.5 C 9.23044737829953 38.5 0.5 29.99341024678507 0.5 19.5 C 0.5 9.006589753214927 9.23044737829953 0.5 20 0.5 C 30.76955262170047 0.5 39.5 9.006589753214927 39.5 19.5 z"/>
</g>
</g>
<g transform="matrix(1, 0, 0, 1, 192.5, 52)">
<clipPath id="clip3">
  <path d="M -192.5 -52 L -192.5 159.10000610351562 L 429.5 159.10000610351562 L 429.5 -52 z"/>
</clipPath>
<g clip-path="url(#clip3)">
<text fill-opacity="1" font-style="normal" font-family="Helvetica" font-weight="normal" stroke="none" fill="#000000" font-size="14.666666984558105px" x="0" y="0"><tspan x="0" dy="14.0">W</tspan>
</text>
</g>
</g>
<g transform="matrix(1, 0, 0, 1, 554.5, 157.0999984741211)">
<g fill-opacity="1" fill-rule="nonzero" stroke="none" fill="#ffffff">
  <path d="M 51.5 19.5 C 51.5 29.99341024678507 40.08326112068523 38.5 26 38.5 C 11.916738879314769 38.5 0.5 29.99341024678507 0.5 19.5 C 0.5 9.006589753214927 11.916738879314769 0.5 26 0.5 C 40.08326112068523 0.5 51.5 9.006589753214927 51.5 19.5 z"/>
</g>
</g>
<g transform="matrix(1, 0, 0, 1, 554.5, 157.0999984741211)">
<g stroke-linecap="butt" fill="none" stroke-opacity="1" stroke="#000000">
  <path d="M 51.5 19.5 C 51.5 29.99341024678507 40.08326112068523 38.5 26 38.5 C 11.916738879314769 38.5 0.5 29.99341024678507 0.5 19.5 C 0.5 9.006589753214927 11.916738879314769 0.5 26 0.5 C 40.08326112068523 0.5 51.5 9.006589753214927 51.5 19.5 z"/>
</g>
</g>
<g transform="matrix(1, 0, 0, 1, 564.5, 167.0999984741211)">
<clipPath id="clip4">
  <path d="M -564.5 -167.0999984741211 L -564.5 44.00000762939453 L 57.5 44.00000762939453 L 57.5 -167.0999984741211 z"/>
</clipPath>
<g clip-path="url(#clip4)">
<text fill-opacity="1" font-style="normal" font-family="Helvetica" font-weight="normal" stroke="none" fill="#000000" font-size="14.666666984558105px" x="0" y="0"><tspan x="0" dy="14.0">ERR</tspan>
</text>
</g>
</g>
<g transform="matrix(1, 0, 0, 1, 3.5, 30)">
<g stroke-linecap="round" fill="none" stroke-opacity="1" stroke="#000000">
  <path d="M 176.50833129882812 128.10067749023438 C 196 117.0999984741211 196 112.0999984741211 196 106.47083282470703 C 196 100.84166717529297 196 94.58333587646484 196 86.76041412353516 C 196 78.9375 196 69.55000305175781 196 51"/>
</g>
</g>
<g transform="matrix(-0.00000004371138975693, -0.999999999999999, 0.999999999999999, -0.00000004371138975693, 196.50000026226834, 89.00000013113416)">
<g fill-opacity="1" fill-rule="nonzero" stroke="none" fill="#000000">
  <path d="M 0 0 L 3.200000047683716 3 L 0 6 L 8 3 z"/>
</g>
</g>
<g transform="matrix(-0.00000004371138975693, -0.999999999999999, 0.999999999999999, -0.00000004371138975693, 196.50000026226834, 89.00000013113416)">
<g stroke-linejoin="round" stroke-linecap="butt" fill="none" stroke-opacity="1" stroke="#000000">
  <path d="M 0 0 L 3.200000047683716 3 L 0 6 L 8 3 z"/>
</g>
</g>
<g transform="matrix(1, 0, 0, 1, 205.5, 118.0999984741211)">
<clipPath id="clip5">
  <path d="M -205.5 -118.0999984741211 L -205.5 93.00000762939453 L 416.5 93.00000762939453 L 416.5 -118.0999984741211 z"/>
</clipPath>
<g clip-path="url(#clip5)">
<text fill-opacity="1" font-style="normal" font-family="Helvetica" font-weight="normal" stroke="none" fill="#000000" font-size="14.666666984558105px" x="0" y="0"><tspan x="0" dy="14.0">ask_src = '1' and open_is_empty = '1'</tspan>
</text>
</g>
</g>
<g transform="matrix(1, 0, 0, 1, 3.5, 30)">
<g stroke-linecap="round" fill="none" stroke-opacity="1" stroke="#000000">
  <path d="M 187.05572509765625 48.94132995605469 C 145 69.55000305175781 145 78.82499694824219 145 85.04582977294922 C 145 91.26667022705078 145 94.43333435058594 145 97.5999984741211 C 145 100.76667022705078 145 103.93333435058594 145 108.01667022705078 C 145 112.0999984741211 145 117.0999984741211 164.49166870117188 128.10067749023438"/>
</g>
</g>
<g transform="matrix(0.8425121760043086, 0.5386772997672028, -0.5386772997672028, 0.8425121760043086, 162.86760319345518, 151.2637225624945)">
<g fill-opacity="1" fill-rule="nonzero" stroke="none" fill="#000000">
  <path d="M 0 0 L 3.200000047683716 3 L 0 6 L 8 3 z"/>
</g>
</g>
<g transform="matrix(0.8425121760043086, 0.5386772997672028, -0.5386772997672028, 0.8425121760043086, 162.86760319345518, 151.2637225624945)">
<g stroke-linejoin="round" stroke-linecap="butt" fill="none" stroke-opacity="1" stroke="#000000">
  <path d="M 0 0 L 3.200000047683716 3 L 0 6 L 8 3 z"/>
</g>
</g>
<g transform="matrix(1, 0, 0, 1, 15.5, 118.0999984741211)">
<clipPath id="clip6">
  <path d="M -15.5 -118.0999984741211 L -15.5 93.00000762939453 L 606.5 93.00000762939453 L 606.5 -118.0999984741211 z"/>
</clipPath>
<g clip-path="url(#clip6)">
<text fill-opacity="1" font-style="normal" font-family="Helvetica" font-weight="normal" stroke="none" fill="#000000" font-size="14.666666984558105px" x="0" y="0"><tspan x="0" dy="14.0">open_is_empty = '0'</tspan>
</text>
</g>
</g>
<g transform="matrix(1, 0, 0, 1, 3.5, 30)">
<g stroke-linecap="round" fill="none" stroke-opacity="1" stroke="#000000">
  <path d="M 204.94427490234375 48.94132995605469 C 577 69.55000305175781 577 78.82499694824219 577 85.87916564941406 C 577 92.93333435058594 577 97.76667022705078 577 103.80833435058594 C 577 109.8499984741211 577 117.0999984741211 577 127.0999984741211"/>
</g>
</g>
<g transform="matrix(-0.00000004371139024679, 0.999999999999999, -0.999999999999999, -0.00000004371139024679, 583.5000002622684, 149.09999860525528)">
<g fill-opacity="1" fill-rule="nonzero" stroke="none" fill="#000000">
  <path d="M 0 0 L 3.200000047683716 3 L 0 6 L 8 3 z"/>
</g>
</g>
<g transform="matrix(-0.00000004371139024679, 0.999999999999999, -0.999999999999999, -0.00000004371139024679, 583.5000002622684, 149.09999860525528)">
<g stroke-linejoin="round" stroke-linecap="butt" fill="none" stroke-opacity="1" stroke="#000000">
  <path d="M 0 0 L 3.200000047683716 3 L 0 6 L 8 3 z"/>
</g>
</g>
<g transform="matrix(1, 0, 0, 1, 495.5, 118.0999984741211)">
<clipPath id="clip7">
  <path d="M -495.5 -118.0999984741211 L -495.5 93.00000762939453 L 126.5 93.00000762939453 L 126.5 -118.0999984741211 z"/>
</clipPath>
<g clip-path="url(#clip7)">
<text fill-opacity="1" font-style="normal" font-family="Helvetica" font-weight="normal" stroke="none" fill="#000000" font-size="14.666666984558105px" x="0" y="0"><tspan x="0" dy="14.0">ask_src = '1'</tspan>
</text>
</g>
</g>
</g>
</svg>
