<?xml version="1.0" standalone="no"?>

<svg 
     version="1.1"
     baseProfile="full"
     xmlns="http://www.w3.org/2000/svg"
     xmlns:xlink="http://www.w3.org/1999/xlink"
     xmlns:ev="http://www.w3.org/2001/xml-events"
     xmlns:klighd="http://de.cau.cs.kieler/klighd"
     xml:space="preserve"
     x="0px"
     y="0px"
     width="957px"
     height="309px"
     viewBox="0 0 957 309"
     preserveAspectRatio="xMidYMin slice"
     >
<title></title>
<desc>Creator: FreeHEP Graphics2D Driver Producer: de.cau.cs.kieler.klighd.piccolo.freehep.SemanticSVGGraphics2D Revision Source:  Date: Tuesday, October 29, 2019 1:02:20 AM CET</desc>
<g stroke-linejoin="miter" stroke-dashoffset="0" stroke-dasharray="none" stroke-width="1" stroke-miterlimit="10" stroke-linecap="square">
<g transform="matrix(1, 0, 0, 1, 0.5, 0)">
<g fill-opacity="1" fill-rule="nonzero" stroke="none" fill="#ffffff">
  <path d="M 0.5 1.5 L 0.5 307.07501220703125 C 0.5 307.62729695686204 0.9477152501692067 308.07501220703125 1.5 308.07501220703125 L 954.5 308.07501220703125 C 955.0522847498308 308.07501220703125 955.5 307.62729695686204 955.5 307.07501220703125 L 955.5 1.5 C 955.5 0.9477152501692067 955.0522847498308 0.5 954.5 0.5 L 1.5 0.5 C 0.9477152501692067 0.5 0.5 0.9477152501692067 0.5 1.5 z"/>
</g>
</g>
<g transform="matrix(1, 0, 0, 1, 0.5, 0)">
<g stroke-linecap="butt" fill="none" stroke-opacity="1" stroke="#000000">
  <path d="M 0.5 1.5 L 0.5 307.07501220703125 C 0.5 307.62729695686204 0.9477152501692067 308.07501220703125 1.5 308.07501220703125 L 954.5 308.07501220703125 C 955.0522847498308 308.07501220703125 955.5 307.62729695686204 955.5 307.07501220703125 L 955.5 1.5 C 955.5 0.9477152501692067 955.0522847498308 0.5 954.5 0.5 L 1.5 0.5 C 0.9477152501692067 0.5 0.5 0.9477152501692067 0.5 1.5 z"/>
</g>
</g>
<g transform="matrix(1, 0, 0, 1, 428, 4)">
<g fill-opacity="0" fill-rule="nonzero" stroke="none" fill="#000000">
  <path d="M 0 0 L 101 0 L 101 20 L 0 20 L 0 0 z"/>
</g>
</g>
<g transform="matrix(1, 0, 0, 1, 428, 4)">
<clipPath id="clip1">
  <path d="M -428 -4 L -428 304.57501220703125 L 529 304.57501220703125 L 529 -4 z"/>
</clipPath>
<g clip-path="url(#clip1)">
<text fill-opacity="1" font-style="normal" font-family="Helvetica" font-weight="bold" stroke="none" fill="#000000" font-size="14.666666984558105px" x="0" y="0"><tspan x="0" dy="15.0">idle_fsm_state</tspan>
</text>
</g>
</g>
<g transform="matrix(1, 0, 0, 1, 0.5, 24)">
<g stroke-linecap="butt" fill="none" stroke-opacity="1" stroke="#000000">
  <path d="M 0 1.5 L 956 1.5"/>
</g>
</g>
<g transform="matrix(1, 0, 0, 1, 596.5, 146.5749969482422)">
<g fill-opacity="1" fill-rule="nonzero" stroke="none" fill="#ffffff">
  <path d="M 78.5 19.5 C 78.5 29.99341024678507 61.03910524340094 38.5 39.5 38.5 C 17.96089475659906 38.5 0.5 29.99341024678507 0.5 19.5 C 0.5 9.006589753214927 17.96089475659906 0.5 39.5 0.5 C 61.03910524340094 0.5 78.5 9.006589753214927 78.5 19.5 z"/>
</g>
</g>
<g transform="matrix(1, 0, 0, 1, 596.5, 146.5749969482422)">
<g stroke-linecap="butt" fill="none" stroke-opacity="1" stroke="#000000">
  <path d="M 78.5 19.5 C 78.5 29.99341024678507 61.03910524340094 38.5 39.5 38.5 C 17.96089475659906 38.5 0.5 29.99341024678507 0.5 19.5 C 0.5 9.006589753214927 17.96089475659906 0.5 39.5 0.5 C 61.03910524340094 0.5 78.5 9.006589753214927 78.5 19.5 z"/>
</g>
</g>
<g transform="matrix(1, 0, 0, 1, 606.5, 156.5749969482422)">
<clipPath id="clip2">
  <path d="M -606.5 -156.5749969482422 L -606.5 152.00001525878906 L 350.5 152.00001525878906 L 350.5 -156.5749969482422 z"/>
</clipPath>
<g clip-path="url(#clip2)">
<text fill-opacity="1" font-style="normal" font-family="Helvetica" font-weight="normal" stroke="none" fill="#000000" font-size="14.666666984558105px" x="0" y="0"><tspan x="0" dy="14.0">AT_END</tspan>
</text>
</g>
</g>
<g transform="matrix(1, 0, 0, 1, 426.8333435058594, 254.5749969482422)">
<g fill-opacity="1" fill-rule="nonzero" stroke="none" fill="#ffffff">
  <path d="M 89.5 19.5 C 89.5 29.99341024678507 69.5766713674703 38.5 45 38.5 C 20.423328632529696 38.5 0.5 29.99341024678507 0.5 19.5 C 0.5 9.006589753214927 20.423328632529696 0.5 45 0.5 C 69.5766713674703 0.5 89.5 9.006589753214927 89.5 19.5 z"/>
</g>
</g>
<g transform="matrix(1, 0, 0, 1, 426.8333435058594, 254.5749969482422)">
<g stroke-linecap="butt" fill="none" stroke-opacity="1" stroke="#000000">
  <path d="M 89.5 19.5 C 89.5 29.99341024678507 69.5766713674703 38.5 45 38.5 C 20.423328632529696 38.5 0.5 29.99341024678507 0.5 19.5 C 0.5 9.006589753214927 20.423328632529696 0.5 45 0.5 C 69.5766713674703 0.5 89.5 9.006589753214927 89.5 19.5 z"/>
</g>
</g>
<g transform="matrix(1, 0, 0, 1, 436.8333435058594, 264.5749969482422)">
<clipPath id="clip3">
  <path d="M -436.8333435058594 -264.5749969482422 L -436.8333435058594 44.00001525878906 L 520.1666564941406 44.00001525878906 L 520.1666564941406 -264.5749969482422 z"/>
</clipPath>
<g clip-path="url(#clip3)">
<text fill-opacity="1" font-style="normal" font-family="Helvetica" font-weight="normal" stroke="none" fill="#000000" font-size="14.666666984558105px" x="0" y="0"><tspan x="0" dy="14.0">RUNNING</tspan>
</text>
</g>
</g>
<g transform="matrix(1, 0, 0, 1, 296, 42)">
<g fill-opacity="1" fill-rule="nonzero" stroke="none" fill="#ffffff">
  <path d="M 98.5 19.5 C 98.5 29.99341024678507 76.56195274170886 38.5 49.5 38.5 C 22.438047258291125 38.5 0.5 29.99341024678507 0.5 19.5 C 0.5 9.006589753214927 22.438047258291125 0.5 49.5 0.5 C 76.56195274170886 0.5 98.5 9.006589753214927 98.5 19.5 z"/>
</g>
</g>
<g transform="matrix(1, 0, 0, 1, 296, 42)">
<g stroke-linecap="butt" fill="none" stroke-opacity="1" stroke="#000000">
  <path d="M 98.5 19.5 C 98.5 29.99341024678507 76.56195274170886 38.5 49.5 38.5 C 22.438047258291125 38.5 0.5 29.99341024678507 0.5 19.5 C 0.5 9.006589753214927 22.438047258291125 0.5 49.5 0.5 C 76.56195274170886 0.5 98.5 9.006589753214927 98.5 19.5 z"/>
</g>
</g>
<g transform="matrix(1, 0, 0, 1, 306, 52)">
<clipPath id="clip4">
  <path d="M -306 -52 L -306 256.57501220703125 L 651 256.57501220703125 L 651 -52 z"/>
</clipPath>
<g clip-path="url(#clip4)">
<text fill-opacity="1" font-style="normal" font-family="Helvetica" font-weight="normal" stroke="none" fill="#000000" font-size="14.666666984558105px" x="0" y="0"><tspan x="0" dy="14.0">WAITOPEN</tspan>
</text>
</g>
</g>
<g transform="matrix(1, 0, 0, 1, 3.5, 30)">
<g stroke-linecap="round" fill="none" stroke-opacity="1" stroke="#000000">
  <path d="M 620.009033203125 154.57432556152344 C 607 165.5749969482422 607 170.5749969482422 607 174.65834045410156 C 607 178.74166870117188 607 181.90834045410156 607 185.0749969482422 C 607 188.24166870117188 607 191.40834045410156 607 196.74166870117188 C 607 202.0749969482422 607 209.5749969482422 477.1585693359375 224.95367431640625"/>
</g>
</g>
<g transform="matrix(-0.9921301173386556, 0.12521114275329254, -0.12521114275329254, -0.9921301173386556, 488.9712436773735, 256.92837532408015)">
<g fill-opacity="1" fill-rule="nonzero" stroke="none" fill="#000000">
  <path d="M 0 0 L 3.200000047683716 3 L 0 6 L 8 3 z"/>
</g>
</g>
<g transform="matrix(-0.9921301173386556, 0.12521114275329254, -0.12521114275329254, -0.9921301173386556, 488.9712436773735, 256.92837532408015)">
<g stroke-linejoin="round" stroke-linecap="butt" fill="none" stroke-opacity="1" stroke="#000000">
  <path d="M 0 0 L 3.200000047683716 3 L 0 6 L 8 3 z"/>
</g>
</g>
<g transform="matrix(1, 0, 0, 1, 526.5, 205.5749969482422)">
<clipPath id="clip5">
  <path d="M -526.5 -205.5749969482422 L -526.5 103.00001525878906 L 430.5 103.00001525878906 L 430.5 -205.5749969482422 z"/>
</clipPath>
<g clip-path="url(#clip5)">
<text fill-opacity="1" font-style="normal" font-family="Helvetica" font-weight="normal" stroke="none" fill="#000000" font-size="14.666666984558105px" x="0" y="0"><tspan x="0" dy="14.0">t_ready = '1'</tspan>
</text>
</g>
</g>
<g transform="matrix(1, 0, 0, 1, 3.5, 30)">
<g stroke-linecap="round" fill="none" stroke-opacity="1" stroke="#000000">
  <path d="M 491.48565673828125 227.3538818359375 C 658 209.5749969482422 658 202.0749969482422 658 196.74166870117188 C 658 191.40834045410156 658 188.24166870117188 658 185.0749969482422 C 658 181.90834045410156 658 178.74166870117188 658 174.65834045410156 C 658 170.5749969482422 658 165.5749969482422 644.990966796875 154.57432556152344"/>
</g>
</g>
<g transform="matrix(-0.7221170249666833, -0.6917709174670951, 0.6917709174670951, -0.7221170249666833, 652.1925901990152, 192.27484402333468)">
<g fill-opacity="1" fill-rule="nonzero" stroke="none" fill="#000000">
  <path d="M 0 0 L 3.200000047683716 3 L 0 6 L 8 3 z"/>
</g>
</g>
<g transform="matrix(-0.7221170249666833, -0.6917709174670951, 0.6917709174670951, -0.7221170249666833, 652.1925901990152, 192.27484402333468)">
<g stroke-linejoin="round" stroke-linecap="butt" fill="none" stroke-opacity="1" stroke="#000000">
  <path d="M 0 0 L 3.200000047683716 3 L 0 6 L 8 3 z"/>
</g>
</g>
<g transform="matrix(1, 0, 0, 1, 667.5, 205.5749969482422)">
<clipPath id="clip6">
  <path d="M -667.5 -205.5749969482422 L -667.5 103.00001525878906 L 289.5 103.00001525878906 L 289.5 -205.5749969482422 z"/>
</clipPath>
<g clip-path="url(#clip6)">
<text fill-opacity="1" font-style="normal" font-family="Helvetica" font-weight="normal" stroke="none" fill="#000000" font-size="14.666666984558105px" x="0" y="0"><tspan x="0" dy="14.0">closed_is_done = '1' and schedule_en = '0'</tspan>
</text>
</g>
</g>
<g transform="matrix(1, 0, 0, 1, 3.5, 30)">
<g stroke-linecap="round" fill="none" stroke-opacity="1" stroke="#000000">
  <path d="M 445.1810302734375 227.3538818359375 C 291 209.5749969482422 291 202.0749969482422 291 195.90834045410156 C 291 189.74166870117188 291 184.90834045410156 291 180.0749969482422 C 291 175.24166870117188 291 170.40834045410156 291 158.15834045410156 C 291 145.90834045410156 291 126.24166870117188 291 113.99166870117188 C 291 101.74166870117188 291 96.90833282470703 291 92.07499694824219 C 291 87.24166870117188 291 82.40833282470703 291 76.66979217529297 C 291 70.9312515258789 291 64.2874984741211 319.8629150390625 48.94132995605469"/>
</g>
</g>
<g transform="matrix(0.857766461182661, -0.5140395880379005, 0.5140395880379005, 0.857766461182661, 314.9586645854244, 80.4803472767046)">
<g fill-opacity="1" fill-rule="nonzero" stroke="none" fill="#000000">
  <path d="M 0 0 L 3.200000047683716 3 L 0 6 L 8 3 z"/>
</g>
</g>
<g transform="matrix(0.857766461182661, -0.5140395880379005, 0.5140395880379005, 0.857766461182661, 314.9586645854244, 80.4803472767046)">
<g stroke-linejoin="round" stroke-linecap="butt" fill="none" stroke-opacity="1" stroke="#000000">
  <path d="M 0 0 L 3.200000047683716 3 L 0 6 L 8 3 z"/>
</g>
</g>
<g transform="matrix(1, 0, 0, 1, 15.5, 156.5749969482422)">
<clipPath id="clip7">
  <path d="M -15.5 -156.5749969482422 L -15.5 152.00001525878906 L 941.5 152.00001525878906 L 941.5 -156.5749969482422 z"/>
</clipPath>
<g clip-path="url(#clip7)">
<text fill-opacity="1" font-style="normal" font-family="Helvetica" font-weight="normal" stroke="none" fill="#000000" font-size="14.666666984558105px" x="0" y="0"><tspan x="0" dy="14.0">closed_is_done = '1' and schedule_en = '1'</tspan>
</text>
</g>
</g>
<g transform="matrix(1, 0, 0, 1, 3.5, 30)">
<g stroke-linecap="round" fill="none" stroke-opacity="1" stroke="#000000">
  <path d="M 342 51 C 342 64.2874984741211 342 74.859375 342 83.66927337646484 C 342 92.47916412353516 342 99.52708435058594 342 112.8843765258789 C 342 126.24166870117188 342 145.90834045410156 342 158.15834045410156 C 342 170.40834045410156 342 175.24166870117188 342 180.0749969482422 C 342 184.90834045410156 342 189.74166870117188 342 195.90834045410156 C 342 202.0749969482422 342 209.5749969482422 459.50811767578125 224.95367431640625"/>
</g>
</g>
<g transform="matrix(0.9904106404487033, 0.13815485256041288, -0.13815485256041288, 0.9904106404487033, 455.4992971100885, 250.877203573031)">
<g fill-opacity="1" fill-rule="nonzero" stroke="none" fill="#000000">
  <path d="M 0 0 L 3.200000047683716 3 L 0 6 L 8 3 z"/>
</g>
</g>
<g transform="matrix(0.9904106404487033, 0.13815485256041288, -0.13815485256041288, 0.9904106404487033, 455.4992971100885, 250.877203573031)">
<g stroke-linejoin="round" stroke-linecap="butt" fill="none" stroke-opacity="1" stroke="#000000">
  <path d="M 0 0 L 3.200000047683716 3 L 0 6 L 8 3 z"/>
</g>
</g>
<g transform="matrix(1, 0, 0, 1, 351.5, 156.5749969482422)">
<clipPath id="clip8">
  <path d="M -351.5 -156.5749969482422 L -351.5 152.00001525878906 L 605.5 152.00001525878906 L 605.5 -156.5749969482422 z"/>
</clipPath>
<g clip-path="url(#clip8)">
<text fill-opacity="1" font-style="normal" font-family="Helvetica" font-weight="normal" stroke="none" fill="#000000" font-size="14.666666984558105px" x="0" y="0"><tspan x="0" dy="14.0">is_scheduled = '1' and t_ready = '1'</tspan>
</text>
</g>
</g>
<g transform="matrix(1, 0, 0, 1, 3.5, 30)">
<g stroke-linecap="round" fill="none" stroke-opacity="1" stroke="#000000">
  <path d="M 364.1370849609375 48.94132995605469 C 632.5 64.2874984741211 632.5 70.9312515258789 632.5 76.66979217529297 C 632.5 82.40833282470703 632.5 87.24166870117188 632.5 93.28333282470703 C 632.5 99.32499694824219 632.5 106.57499694824219 632.5 116.57499694824219"/>
</g>
</g>
<g transform="matrix(-0.00000004371139024679, 0.999999999999999, -0.999999999999999, -0.00000004371139024679, 639.0000002622684, 138.57499707937637)">
<g fill-opacity="1" fill-rule="nonzero" stroke="none" fill="#000000">
  <path d="M 0 0 L 3.200000047683716 3 L 0 6 L 8 3 z"/>
</g>
</g>
<g transform="matrix(-0.00000004371139024679, 0.999999999999999, -0.999999999999999, -0.00000004371139024679, 639.0000002622684, 138.57499707937637)">
<g stroke-linejoin="round" stroke-linecap="butt" fill="none" stroke-opacity="1" stroke="#000000">
  <path d="M 0 0 L 3.200000047683716 3 L 0 6 L 8 3 z"/>
</g>
</g>
<g transform="matrix(1, 0, 0, 1, 642, 107.57499694824219)">
<clipPath id="clip9">
  <path d="M -642 -107.57499694824219 L -642 201.00001525878906 L 315 201.00001525878906 L 315 -107.57499694824219 z"/>
</clipPath>
<g clip-path="url(#clip9)">
<text fill-opacity="1" font-style="normal" font-family="Helvetica" font-weight="normal" stroke="none" fill="#000000" font-size="14.666666984558105px" x="0" y="0"><tspan x="0" dy="14.0">is_scheduled = '1' and t_ready = '0'</tspan>
</text>
</g>
</g>
</g>
</svg>
