<?xml version="1.0" standalone="no"?>

<svg 
     version="1.1"
     baseProfile="full"
     xmlns="http://www.w3.org/2000/svg"
     xmlns:xlink="http://www.w3.org/1999/xlink"
     xmlns:ev="http://www.w3.org/2001/xml-events"
     xmlns:klighd="http://de.cau.cs.kieler/klighd"
     xml:space="preserve"
     x="0px"
     y="0px"
     width="1205px"
     height="451px"
     viewBox="0 0 1205 451"
     preserveAspectRatio="xMidYMin slice"
     >
<title></title>
<desc>Creator: FreeHEP Graphics2D Driver Producer: de.cau.cs.kieler.klighd.piccolo.freehep.SemanticSVGGraphics2D Revision Source:  Date: Tuesday, October 29, 2019 1:02:20 AM CET</desc>
<g stroke-linejoin="miter" stroke-dashoffset="0" stroke-dasharray="none" stroke-width="1" stroke-miterlimit="10" stroke-linecap="square">
<g transform="matrix(1, 0, 0, 1, 0.5, 0)">
<g fill-opacity="1" fill-rule="nonzero" stroke="none" fill="#ffffff">
  <path d="M 0.5 1.5 L 0.5 449.92999267578125 C 0.5 450.48227742561204 0.9477152501692067 450.92999267578125 1.5 450.92999267578125 L 1202.8333740234375 450.92999267578125 C 1203.3856587732682 450.92999267578125 1203.8333740234375 450.48227742561204 1203.8333740234375 449.92999267578125 L 1203.8333740234375 1.5 C 1203.8333740234375 0.9477152501692067 1203.3856587732682 0.5 1202.8333740234375 0.5 L 1.5 0.5 C 0.9477152501692067 0.5 0.5 0.9477152501692067 0.5 1.5 z"/>
</g>
</g>
<g transform="matrix(1, 0, 0, 1, 0.5, 0)">
<g stroke-linecap="butt" fill="none" stroke-opacity="1" stroke="#000000">
  <path d="M 0.5 1.5 L 0.5 449.92999267578125 C 0.5 450.48227742561204 0.9477152501692067 450.92999267578125 1.5 450.92999267578125 L 1202.8333740234375 450.92999267578125 C 1203.3856587732682 450.92999267578125 1203.8333740234375 450.48227742561204 1203.8333740234375 449.92999267578125 L 1203.8333740234375 1.5 C 1203.8333740234375 0.9477152501692067 1203.3856587732682 0.5 1202.8333740234375 0.5 L 1.5 0.5 C 0.9477152501692067 0.5 0.5 0.9477152501692067 0.5 1.5 z"/>
</g>
</g>
<g transform="matrix(1, 0, 0, 1, 577.1666870117188, 4)">
<g fill-opacity="0" fill-rule="nonzero" stroke="none" fill="#000000">
  <path d="M 0 0 L 51 0 L 51 20 L 0 20 L 0 0 z"/>
</g>
</g>
<g transform="matrix(1, 0, 0, 1, 577.1666870117188, 4)">
<clipPath id="clip1">
  <path d="M -577.1666870117188 -4 L -577.1666870117188 447.42999267578125 L 628.1666870117188 447.42999267578125 L 628.1666870117188 -4 z"/>
</clipPath>
<g clip-path="url(#clip1)">
<text fill-opacity="1" font-style="normal" font-family="Helvetica" font-weight="bold" stroke="none" fill="#000000" font-size="14.666666984558105px" x="0" y="0"><tspan x="0" dy="15.0">current</tspan>
</text>
</g>
</g>
<g transform="matrix(1, 0, 0, 1, 0.5, 24)">
<g stroke-linecap="butt" fill="none" stroke-opacity="1" stroke="#000000">
  <path d="M 0 1.5 L 1204.3333740234375 1.5"/>
</g>
</g>
<g transform="matrix(1, 0, 0, 1, 605.5333251953125, 42)">
<g fill-opacity="1" fill-rule="nonzero" stroke="none" fill="#ffffff">
  <path d="M 59.5 19.5 C 59.5 29.99341024678507 46.2924001200084 38.5 30 38.5 C 13.707599879991596 38.5 0.5 29.99341024678507 0.5 19.5 C 0.5 9.006589753214927 13.707599879991596 0.5 30 0.5 C 46.2924001200084 0.5 59.5 9.006589753214927 59.5 19.5 z"/>
</g>
</g>
<g transform="matrix(1, 0, 0, 1, 605.5333251953125, 42)">
<g stroke-linecap="butt" fill="none" stroke-opacity="1" stroke="#000000">
  <path d="M 59.5 19.5 C 59.5 29.99341024678507 46.2924001200084 38.5 30 38.5 C 13.707599879991596 38.5 0.5 29.99341024678507 0.5 19.5 C 0.5 9.006589753214927 13.707599879991596 0.5 30 0.5 C 46.2924001200084 0.5 59.5 9.006589753214927 59.5 19.5 z"/>
</g>
</g>
<g transform="matrix(1, 0, 0, 1, 626.5333251953125, 52)">
<clipPath id="clip2">
  <path d="M -626.5333251953125 -52 L -626.5333251953125 399.42999267578125 L 578.800048828125 399.42999267578125 L 578.800048828125 -52 z"/>
</clipPath>
<g clip-path="url(#clip2)">
<text fill-opacity="1" font-style="normal" font-family="Helvetica" font-weight="normal" stroke="none" fill="#000000" font-size="14.666666984558105px" x="0" y="0"><tspan x="0" dy="14.0">S0</tspan>
</text>
</g>
</g>
<g transform="matrix(1, 0, 0, 1, 606.4500122070312, 161.42999267578125)">
<g fill-opacity="1" fill-rule="nonzero" stroke="none" fill="#ffffff">
  <path d="M 57.5 19.5 C 57.5 29.99341024678507 44.740115370177605 38.5 29 38.5 C 13.25988462982239 38.5 0.5 29.99341024678507 0.5 19.5 C 0.5 9.006589753214927 13.25988462982239 0.5 29 0.5 C 44.740115370177605 0.5 57.5 9.006589753214927 57.5 19.5 z"/>
</g>
</g>
<g transform="matrix(1, 0, 0, 1, 606.4500122070312, 161.42999267578125)">
<g stroke-linecap="butt" fill="none" stroke-opacity="1" stroke="#000000">
  <path d="M 57.5 19.5 C 57.5 29.99341024678507 44.740115370177605 38.5 29 38.5 C 13.25988462982239 38.5 0.5 29.99341024678507 0.5 19.5 C 0.5 9.006589753214927 13.25988462982239 0.5 29 0.5 C 44.740115370177605 0.5 57.5 9.006589753214927 57.5 19.5 z"/>
</g>
</g>
<g transform="matrix(1, 0, 0, 1, 616.4500122070312, 171.42999267578125)">
<clipPath id="clip3">
  <path d="M -616.4500122070312 -171.42999267578125 L -616.4500122070312 280 L 588.8833618164062 280 L 588.8833618164062 -171.42999267578125 z"/>
</clipPath>
<g clip-path="url(#clip3)">
<text fill-opacity="1" font-style="normal" font-family="Helvetica" font-weight="normal" stroke="none" fill="#000000" font-size="14.666666984558105px" x="0" y="0"><tspan x="0" dy="14.0">T_OK</tspan>
</text>
</g>
</g>
<g transform="matrix(1, 0, 0, 1, 664.0333251953125, 289.42999267578125)">
<g fill-opacity="1" fill-rule="nonzero" stroke="none" fill="#ffffff">
  <path d="M 58.5 19.5 C 58.5 29.99341024678507 45.516257745093 38.5 29.5 38.5 C 13.483742254906993 38.5 0.5 29.99341024678507 0.5 19.5 C 0.5 9.006589753214927 13.483742254906993 0.5 29.5 0.5 C 45.516257745093 0.5 58.5 9.006589753214927 58.5 19.5 z"/>
</g>
</g>
<g transform="matrix(1, 0, 0, 1, 664.0333251953125, 289.42999267578125)">
<g stroke-linecap="butt" fill="none" stroke-opacity="1" stroke="#000000">
  <path d="M 58.5 19.5 C 58.5 29.99341024678507 45.516257745093 38.5 29.5 38.5 C 13.483742254906993 38.5 0.5 29.99341024678507 0.5 19.5 C 0.5 9.006589753214927 13.483742254906993 0.5 29.5 0.5 C 45.516257745093 0.5 58.5 9.006589753214927 58.5 19.5 z"/>
</g>
</g>
<g transform="matrix(1, 0, 0, 1, 674.0333251953125, 299.42999267578125)">
<clipPath id="clip4">
  <path d="M -674.0333251953125 -299.42999267578125 L -674.0333251953125 152 L 531.300048828125 152 L 531.300048828125 -299.42999267578125 z"/>
</clipPath>
<g clip-path="url(#clip4)">
<text fill-opacity="1" font-style="normal" font-family="Helvetica" font-weight="normal" stroke="none" fill="#000000" font-size="14.666666984558105px" x="0" y="0"><tspan x="0" dy="14.0">S_OK</tspan>
</text>
</g>
</g>
<g transform="matrix(1, 0, 0, 1, 449.75, 397.42999267578125)">
<g fill-opacity="1" fill-rule="nonzero" stroke="none" fill="#ffffff">
  <path d="M 51.5 19.5 C 51.5 29.99341024678507 40.08326112068523 38.5 26 38.5 C 11.916738879314769 38.5 0.5 29.99341024678507 0.5 19.5 C 0.5 9.006589753214927 11.916738879314769 0.5 26 0.5 C 40.08326112068523 0.5 51.5 9.006589753214927 51.5 19.5 z"/>
</g>
</g>
<g transform="matrix(1, 0, 0, 1, 449.75, 397.42999267578125)">
<g stroke-linecap="butt" fill="none" stroke-opacity="1" stroke="#000000">
  <path d="M 51.5 19.5 C 51.5 29.99341024678507 40.08326112068523 38.5 26 38.5 C 11.916738879314769 38.5 0.5 29.99341024678507 0.5 19.5 C 0.5 9.006589753214927 11.916738879314769 0.5 26 0.5 C 40.08326112068523 0.5 51.5 9.006589753214927 51.5 19.5 z"/>
</g>
</g>
<g transform="matrix(1, 0, 0, 1, 459.75, 407.42999267578125)">
<clipPath id="clip5">
  <path d="M -459.75 -407.42999267578125 L -459.75 44 L 745.5833740234375 44 L 745.5833740234375 -407.42999267578125 z"/>
</clipPath>
<g clip-path="url(#clip5)">
<text fill-opacity="1" font-style="normal" font-family="Helvetica" font-weight="normal" stroke="none" fill="#000000" font-size="14.666666984558105px" x="0" y="0"><tspan x="0" dy="14.0">ERR</tspan>
</text>
</g>
</g>
<g transform="matrix(1, 0, 0, 1, 3.5, 30)">
<g stroke-linecap="round" fill="none" stroke-opacity="1" stroke="#000000">
  <path d="M 632.0333251953125 51 C 606.4500122070312 71.71499633789062 606.4500122070312 82.07250213623047 606.4500122070312 88.83458709716797 C 606.4500122070312 95.59666442871094 606.4500122070312 98.76333618164062 606.4500122070312 101.93000030517578 C 606.4500122070312 105.09666442871094 606.4500122070312 108.26333618164062 606.4500122070312 112.34666442871094 C 606.4500122070312 116.43000030517578 606.4500122070312 121.43000030517578 622.7794189453125 132.43067932128906"/>
</g>
</g>
<g transform="matrix(0.7949398529614528, 0.6066882479277341, -0.6066882479277341, 0.7949398529614528, 621.7399648441046, 155.1923538068913)">
<g fill-opacity="1" fill-rule="nonzero" stroke="none" fill="#000000">
  <path d="M 0 0 L 3.200000047683716 3 L 0 6 L 8 3 z"/>
</g>
</g>
<g transform="matrix(0.7949398529614528, 0.6066882479277341, -0.6066882479277341, 0.7949398529614528, 621.7399648441046, 155.1923538068913)">
<g stroke-linejoin="round" stroke-linecap="butt" fill="none" stroke-opacity="1" stroke="#000000">
  <path d="M 0 0 L 3.200000047683716 3 L 0 6 L 8 3 z"/>
</g>
</g>
<g transform="matrix(1, 0, 0, 1, 525.9500122070312, 122.43000030517578)">
<clipPath id="clip6">
  <path d="M -525.9500122070312 -122.43000030517578 L -525.9500122070312 328.99999237060547 L 679.3833618164062 328.99999237060547 L 679.3833618164062 -122.43000030517578 z"/>
</clipPath>
<g clip-path="url(#clip6)">
<text fill-opacity="1" font-style="normal" font-family="Helvetica" font-weight="normal" stroke="none" fill="#000000" font-size="14.666666984558105px" x="0" y="0"><tspan x="0" dy="14.0">t_ready = '1'</tspan>
</text>
</g>
</g>
<g transform="matrix(1, 0, 0, 1, 3.5, 30)">
<g stroke-linecap="round" fill="none" stroke-opacity="1" stroke="#000000">
  <path d="M 641.12060546875 132.43067932128906 C 657.4500122070312 121.43000030517578 657.4500122070312 116.43000030517578 657.4500122070312 112.34666442871094 C 657.4500122070312 108.26333618164062 657.4500122070312 105.09666442871094 657.4500122070312 101.93000030517578 C 657.4500122070312 98.76333618164062 657.4500122070312 95.59666442871094 657.4500122070312 88.83458709716797 C 657.4500122070312 82.07250213623047 657.4500122070312 71.71499633789062 641.5201416015625 49.999324798583984"/>
</g>
</g>
<g transform="matrix(-0.5420273957263897, -0.8403608167222385, 0.8403608167222385, -0.5420273957263897, 646.8352783076035, 88.34829352573514)">
<g fill-opacity="1" fill-rule="nonzero" stroke="none" fill="#000000">
  <path d="M 0 0 L 3.200000047683716 3 L 0 6 L 8 3 z"/>
</g>
</g>
<g transform="matrix(-0.5420273957263897, -0.8403608167222385, 0.8403608167222385, -0.5420273957263897, 646.8352783076035, 88.34829352573514)">
<g stroke-linejoin="round" stroke-linecap="butt" fill="none" stroke-opacity="1" stroke="#000000">
  <path d="M 0 0 L 3.200000047683716 3 L 0 6 L 8 3 z"/>
</g>
</g>
<g transform="matrix(1, 0, 0, 1, 666.9500122070312, 122.43000030517578)">
<clipPath id="clip7">
  <path d="M -666.9500122070312 -122.43000030517578 L -666.9500122070312 328.99999237060547 L 538.3833618164062 328.99999237060547 L 538.3833618164062 -122.43000030517578 z"/>
</clipPath>
<g clip-path="url(#clip7)">
<text fill-opacity="1" font-style="normal" font-family="Helvetica" font-weight="normal" stroke="none" fill="#000000" font-size="14.666666984558105px" x="0" y="0"><tspan x="0" dy="14.0">schedule_en = '1' and is_scheduled = '1'</tspan>
</text>
</g>
</g>
<g transform="matrix(1, 0, 0, 1, 3.5, 30)">
<g stroke-linecap="round" fill="none" stroke-opacity="1" stroke="#000000">
  <path d="M 622.5465087890625 49.999324798583984 C 315 71.71499633789062 315 82.07250213623047 315 89.66791534423828 C 315 97.26333618164062 315 102.09666442871094 315 106.93000030517578 C 315 111.76333618164062 315 116.59666442871094 315 129.67999267578125 C 315 142.76333618164062 315 164.09666442871094 315 177.59666442871094 C 315 191.09666442871094 315 196.76333618164062 315 202.42999267578125 C 315 208.09666442871094 315 213.76333618164062 315 221.59666442871094 C 315 229.42999267578125 315 239.42999267578125 674.855712890625 262.2088928222656"/>
</g>
</g>
<g transform="matrix(0.9977599393971236, 0.06689621315327426, -0.06689621315327426, 0.9977599393971236, 670.5743220148197, 288.6804433001627)">
<g fill-opacity="1" fill-rule="nonzero" stroke="none" fill="#000000">
  <path d="M 0 0 L 3.200000047683716 3 L 0 6 L 8 3 z"/>
</g>
</g>
<g transform="matrix(0.9977599393971236, 0.06689621315327426, -0.06689621315327426, 0.9977599393971236, 670.5743220148197, 288.6804433001627)">
<g stroke-linejoin="round" stroke-linecap="butt" fill="none" stroke-opacity="1" stroke="#000000">
  <path d="M 0 0 L 3.200000047683716 3 L 0 6 L 8 3 z"/>
</g>
</g>
<g transform="matrix(1, 0, 0, 1, 324.5, 171.42999267578125)">
<clipPath id="clip8">
  <path d="M -324.5 -171.42999267578125 L -324.5 280 L 880.8333740234375 280 L 880.8333740234375 -171.42999267578125 z"/>
</clipPath>
<g clip-path="url(#clip8)">
<text fill-opacity="1" font-style="normal" font-family="Helvetica" font-weight="normal" stroke="none" fill="#000000" font-size="14.666666984558105px" x="0" y="0"><tspan x="0" dy="14.0">t_ready = '1' and schedule_en = '1'</tspan>
</text>
</g>
</g>
<g transform="matrix(1, 0, 0, 1, 3.5, 30)">
<g stroke-linecap="round" fill="none" stroke-opacity="1" stroke="#000000">
  <path d="M 631.9500122070312 170.42999267578125 C 760.25 185.42999267578125 760.25 192.92999267578125 760.25 198.26333618164062 C 760.25 203.59666442871094 760.25 206.76333618164062 760.25 209.92999267578125 C 760.25 213.09666442871094 760.25 216.26333618164062 760.25 222.84666442871094 C 760.25 229.42999267578125 760.25 239.42999267578125 684.2479248046875 259.8086853027344"/>
</g>
</g>
<g transform="matrix(-0.9615086679220879, 0.27477460128383807, -0.27477460128383807, -0.9615086679220879, 696.2643179205435, 290.4950143864504)">
<g fill-opacity="1" fill-rule="nonzero" stroke="none" fill="#000000">
  <path d="M 0 0 L 3.200000047683716 3 L 0 6 L 8 3 z"/>
</g>
</g>
<g transform="matrix(-0.9615086679220879, 0.27477460128383807, -0.27477460128383807, -0.9615086679220879, 696.2643179205435, 290.4950143864504)">
<g stroke-linejoin="round" stroke-linecap="butt" fill="none" stroke-opacity="1" stroke="#000000">
  <path d="M 0 0 L 3.200000047683716 3 L 0 6 L 8 3 z"/>
</g>
</g>
<g transform="matrix(1, 0, 0, 1, 646.75, 230.42999267578125)">
<clipPath id="clip9">
  <path d="M -646.75 -230.42999267578125 L -646.75 221 L 558.5833740234375 221 L 558.5833740234375 -230.42999267578125 z"/>
</clipPath>
<g clip-path="url(#clip9)">
<text fill-opacity="1" font-style="normal" font-family="Helvetica" font-weight="normal" stroke="none" fill="#000000" font-size="14.666666984558105px" x="0" y="0"><tspan x="0" dy="14.0">schedule_en = '1'</tspan>
</text>
</g>
</g>
<g transform="matrix(1, 0, 0, 1, 3.5, 30)">
<g stroke-linecap="round" fill="none" stroke-opacity="1" stroke="#000000">
  <path d="M 695.8187866210938 259.8086853027344 C 811.25 239.42999267578125 811.25 229.42999267578125 811.25 222.84666442871094 C 811.25 216.26333618164062 811.25 213.09666442871094 811.25 209.92999267578125 C 811.25 206.76333618164062 811.25 203.59666442871094 811.25 198.26333618164062 C 811.25 192.92999267578125 811.25 185.42999267578125 644.919189453125 168.37132263183594"/>
</g>
</g>
<g transform="matrix(-0.9941527337612758, -0.10798306327837653, 0.10798306327837653, -0.9941527337612758, 656.0484621100917, 202.21764555375242)">
<g fill-opacity="1" fill-rule="nonzero" stroke="none" fill="#000000">
  <path d="M 0 0 L 3.200000047683716 3 L 0 6 L 8 3 z"/>
</g>
</g>
<g transform="matrix(-0.9941527337612758, -0.10798306327837653, 0.10798306327837653, -0.9941527337612758, 656.0484621100917, 202.21764555375242)">
<g stroke-linejoin="round" stroke-linecap="butt" fill="none" stroke-opacity="1" stroke="#000000">
  <path d="M 0 0 L 3.200000047683716 3 L 0 6 L 8 3 z"/>
</g>
</g>
<g transform="matrix(1, 0, 0, 1, 820.75, 230.42999267578125)">
<clipPath id="clip10">
  <path d="M -820.75 -230.42999267578125 L -820.75 221 L 384.5833740234375 221 L 384.5833740234375 -230.42999267578125 z"/>
</clipPath>
<g clip-path="url(#clip10)">
<text fill-opacity="1" font-style="normal" font-family="Helvetica" font-weight="normal" stroke="none" fill="#000000" font-size="14.666666984558105px" x="0" y="0"><tspan x="0" dy="14.0">t_ready = '1' and is_scheduled = '1'</tspan>
</text>
</g>
</g>
<g transform="matrix(1, 0, 0, 1, 3.5, 30)">
<g stroke-linecap="round" fill="none" stroke-opacity="1" stroke="#000000">
  <path d="M 705.2109375 262.2088928222656 C 1066.3333740234375 239.42999267578125 1066.3333740234375 229.42999267578125 1066.3333740234375 221.59666442871094 C 1066.3333740234375 213.76333618164062 1066.3333740234375 208.09666442871094 1066.3333740234375 202.42999267578125 C 1066.3333740234375 196.76333618164062 1066.3333740234375 191.09666442871094 1066.3333740234375 177.59666442871094 C 1066.3333740234375 164.09666442871094 1066.3333740234375 142.76333618164062 1066.3333740234375 129.67999267578125 C 1066.3333740234375 116.59666442871094 1066.3333740234375 111.76333618164062 1066.3333740234375 106.93000030517578 C 1066.3333740234375 102.09666442871094 1066.3333740234375 97.26333618164062 1066.3333740234375 89.66791534423828 C 1066.3333740234375 82.07250213623047 1066.3333740234375 71.71499633789062 648.67431640625 47.724979400634766"/>
</g>
</g>
<g transform="matrix(-0.9981582861450282, -0.0606632986246205, 0.0606632986246205, -0.9981582861450282, 659.977592813462, 81.20476041893217)">
<g fill-opacity="1" fill-rule="nonzero" stroke="none" fill="#000000">
  <path d="M 0 0 L 3.200000047683716 3 L 0 6 L 8 3 z"/>
</g>
</g>
<g transform="matrix(-0.9981582861450282, -0.0606632986246205, 0.0606632986246205, -0.9981582861450282, 659.977592813462, 81.20476041893217)">
<g stroke-linejoin="round" stroke-linecap="butt" fill="none" stroke-opacity="1" stroke="#000000">
  <path d="M 0 0 L 3.200000047683716 3 L 0 6 L 8 3 z"/>
</g>
</g>
<g transform="matrix(1, 0, 0, 1, 1075.8333740234375, 171.42999267578125)">
<clipPath id="clip11">
  <path d="M -1075.8333740234375 -171.42999267578125 L -1075.8333740234375 280 L 129.5 280 L 129.5 -171.42999267578125 z"/>
</clipPath>
<g clip-path="url(#clip11)">
<text fill-opacity="1" font-style="normal" font-family="Helvetica" font-weight="normal" stroke="none" fill="#000000" font-size="14.666666984558105px" x="0" y="0"><tspan x="0" dy="14.0">is_scheduled = '1'</tspan>
</text>
</g>
</g>
<g transform="matrix(1, 0, 0, 1, 3.5, 30)">
<g stroke-linecap="round" fill="none" stroke-opacity="1" stroke="#000000">
  <path d="M 615.392333984375 47.724979400634766 C 264 71.71499633789062 264 82.07250213623047 264 89.66791534423828 C 264 97.26333618164062 264 102.09666442871094 264 106.93000030517578 C 264 111.76333618164062 264 116.59666442871094 264 129.67999267578125 C 264 142.76333618164062 264 164.09666442871094 264 179.26333618164062 C 264 194.42999267578125 264 203.42999267578125 264 212.42999267578125 C 264 221.42999267578125 264 230.42999267578125 264 246.42999267578125 C 264 262.42999267578125 264 285.42999267578125 264 299.3466796875 C 264 313.2633361816406 264 318.0966796875 264 322.92999267578125 C 264 327.7633361816406 264 332.5966796875 264 338.7633361816406 C 264 344.92999267578125 264 352.42999267578125 460.6224365234375 369.4886779785156"/>
</g>
</g>
<g transform="matrix(0.9958028934643801, 0.09152375302602347, -0.09152375302602347, 0.9958028934643801, 456.4305846341627, 395.7690792808534)">
<g fill-opacity="1" fill-rule="nonzero" stroke="none" fill="#000000">
  <path d="M 0 0 L 3.200000047683716 3 L 0 6 L 8 3 z"/>
</g>
</g>
<g transform="matrix(0.9958028934643801, 0.09152375302602347, -0.09152375302602347, 0.9958028934643801, 456.4305846341627, 395.7690792808534)">
<g stroke-linejoin="round" stroke-linecap="butt" fill="none" stroke-opacity="1" stroke="#000000">
  <path d="M 0 0 L 3.200000047683716 3 L 0 6 L 8 3 z"/>
</g>
</g>
<g transform="matrix(1, 0, 0, 1, 15.5, 230.42999267578125)">
<clipPath id="clip12">
  <path d="M -15.5 -230.42999267578125 L -15.5 221 L 1189.8333740234375 221 L 1189.8333740234375 -230.42999267578125 z"/>
</clipPath>
<g clip-path="url(#clip12)">
<text fill-opacity="1" font-style="normal" font-family="Helvetica" font-weight="normal" stroke="none" fill="#000000" font-size="14.666666984558105px" x="0" y="0"><tspan x="0" dy="14.0">schedule_en = '1' or is_scheduled = '1'</tspan>
</text>
</g>
</g>
<g transform="matrix(1, 0, 0, 1, 3.5, 30)">
<g stroke-linecap="round" fill="none" stroke-opacity="1" stroke="#000000">
  <path d="M 618.9808349609375 168.37132263183594 C 472.25 185.42999267578125 472.25 192.92999267578125 472.25 198.26333618164062 C 472.25 203.59666442871094 472.25 206.76333618164062 472.25 209.92999267578125 C 472.25 213.09666442871094 472.25 216.26333618164062 472.25 219.51333618164062 C 472.25 222.76333618164062 472.25 226.09666442871094 450.2916564941406 227.76333618164062 C 428.3333435058594 229.42999267578125 384.4166564941406 229.42999267578125 362.4583435058594 234.42999267578125 C 340.5 239.42999267578125 340.5 249.42999267578125 340.5 262.5966796875 C 340.5 275.7633361816406 340.5 292.0966796875 340.5 302.67999267578125 C 340.5 313.2633361816406 340.5 318.0966796875 340.5 322.92999267578125 C 340.5 327.7633361816406 340.5 332.5966796875 340.5 338.7633361816406 C 340.5 344.92999267578125 340.5 352.42999267578125 472.25 367.42999267578125"/>
</g>
</g>
<g transform="matrix(0.9926948884464849, 0.1206518066678694, -0.1206518066678694, 0.9926948884464849, 468.17039631268193, 393.4866935550404)">
<g fill-opacity="1" fill-rule="nonzero" stroke="none" fill="#000000">
  <path d="M 0 0 L 3.200000047683716 3 L 0 6 L 8 3 z"/>
</g>
</g>
<g transform="matrix(0.9926948884464849, 0.1206518066678694, -0.1206518066678694, 0.9926948884464849, 468.17039631268193, 393.4866935550404)">
<g stroke-linejoin="round" stroke-linecap="butt" fill="none" stroke-opacity="1" stroke="#000000">
  <path d="M 0 0 L 3.200000047683716 3 L 0 6 L 8 3 z"/>
</g>
</g>
<g transform="matrix(1, 0, 0, 1, 350, 299.42999267578125)">
<clipPath id="clip13">
  <path d="M -350 -299.42999267578125 L -350 152 L 855.3333740234375 152 L 855.3333740234375 -299.42999267578125 z"/>
</clipPath>
<g clip-path="url(#clip13)">
<text fill-opacity="1" font-style="normal" font-family="Helvetica" font-weight="normal" stroke="none" fill="#000000" font-size="14.666666984558105px" x="0" y="0"><tspan x="0" dy="14.0">is_scheduled = '1' and schedule_en = '0'</tspan>
</text>
</g>
</g>
<g transform="matrix(1, 0, 0, 1, 3.5, 30)">
<g stroke-linecap="round" fill="none" stroke-opacity="1" stroke="#000000">
  <path d="M 690.0333251953125 298.42999267578125 C 690.0333251953125 308.42999267578125 690.0333251953125 315.67999267578125 690.0333251953125 321.7216796875 C 690.0333251953125 327.7633361816406 690.0333251953125 332.5966796875 690.0333251953125 338.7633361816406 C 690.0333251953125 344.92999267578125 690.0333251953125 352.42999267578125 483.8775634765625 369.4886779785156"/>
</g>
</g>
<g transform="matrix(-0.9961799186769238, 0.0873245075842831, -0.0873245075842831, -0.9961799186769238, 495.60897635789394, 401.77862177840376)">
<g fill-opacity="1" fill-rule="nonzero" stroke="none" fill="#000000">
  <path d="M 0 0 L 3.200000047683716 3 L 0 6 L 8 3 z"/>
</g>
</g>
<g transform="matrix(-0.9961799186769238, 0.0873245075842831, -0.0873245075842831, -0.9961799186769238, 495.60897635789394, 401.77862177840376)">
<g stroke-linejoin="round" stroke-linecap="butt" fill="none" stroke-opacity="1" stroke="#000000">
  <path d="M 0 0 L 3.200000047683716 3 L 0 6 L 8 3 z"/>
</g>
</g>
<g transform="matrix(1, 0, 0, 1, 699.5333251953125, 348.42999267578125)">
<clipPath id="clip14">
  <path d="M -699.5333251953125 -348.42999267578125 L -699.5333251953125 103 L 505.800048828125 103 L 505.800048828125 -348.42999267578125 z"/>
</clipPath>
<g clip-path="url(#clip14)">
<text fill-opacity="1" font-style="normal" font-family="Helvetica" font-weight="normal" stroke="none" fill="#000000" font-size="14.666666984558105px" x="0" y="0"><tspan x="0" dy="14.0">(t_ready = '1' or schedule_en = '1') and is_scheduled = '0'</tspan>
</text>
</g>
</g>
</g>
</svg>
