<?xml version="1.0" standalone="no"?>

<svg 
     version="1.1"
     baseProfile="full"
     xmlns="http://www.w3.org/2000/svg"
     xmlns:xlink="http://www.w3.org/1999/xlink"
     xmlns:ev="http://www.w3.org/2001/xml-events"
     xmlns:klighd="http://de.cau.cs.kieler/klighd"
     xml:space="preserve"
     x="0px"
     y="0px"
     width="1570px"
     height="720px"
     viewBox="0 0 1570 720"
     preserveAspectRatio="xMidYMin slice"
     >
<title></title>
<desc>Creator: FreeHEP Graphics2D Driver Producer: de.cau.cs.kieler.klighd.piccolo.freehep.SemanticSVGGraphics2D Revision Source:  Date: Tuesday, October 29, 2019 1:02:19 AM CET</desc>
<g stroke-linejoin="miter" stroke-dashoffset="0" stroke-dasharray="none" stroke-width="1" stroke-miterlimit="10" stroke-linecap="square">
<g transform="matrix(1, 0, 0, 1, 0.5, 0)">
<g fill-opacity="1" fill-rule="nonzero" stroke="none" fill="#ffffff">
  <path d="M 0.5 1.5 L 0.5 718.717529296875 C 0.5 719.2698140467058 0.9477152501692067 719.717529296875 1.5 719.717529296875 L 1567.4166259765625 719.717529296875 C 1567.9689107263932 719.717529296875 1568.4166259765625 719.2698140467058 1568.4166259765625 718.717529296875 L 1568.4166259765625 1.5 C 1568.4166259765625 0.9477152501692067 1567.9689107263932 0.5 1567.4166259765625 0.5 L 1.5 0.5 C 0.9477152501692067 0.5 0.5 0.9477152501692067 0.5 1.5 z"/>
</g>
</g>
<g transform="matrix(1, 0, 0, 1, 0.5, 0)">
<g stroke-linecap="butt" fill="none" stroke-opacity="1" stroke="#000000">
  <path d="M 0.5 1.5 L 0.5 718.717529296875 C 0.5 719.2698140467058 0.9477152501692067 719.717529296875 1.5 719.717529296875 L 1567.4166259765625 719.717529296875 C 1567.9689107263932 719.717529296875 1568.4166259765625 719.2698140467058 1568.4166259765625 718.717529296875 L 1568.4166259765625 1.5 C 1568.4166259765625 0.9477152501692067 1567.9689107263932 0.5 1567.4166259765625 0.5 L 1.5 0.5 C 0.9477152501692067 0.5 0.5 0.9477152501692067 0.5 1.5 z"/>
</g>
</g>
<g transform="matrix(1, 0, 0, 1, 759.4583129882812, 4)">
<g fill-opacity="0" fill-rule="nonzero" stroke="none" fill="#000000">
  <path d="M 0 0 L 51 0 L 51 20 L 0 20 L 0 0 z"/>
</g>
</g>
<g transform="matrix(1, 0, 0, 1, 759.4583129882812, 4)">
<clipPath id="clip1">
  <path d="M -759.4583129882812 -4 L -759.4583129882812 716.217529296875 L 810.4583129882812 716.217529296875 L 810.4583129882812 -4 z"/>
</clipPath>
<g clip-path="url(#clip1)">
<text fill-opacity="1" font-style="normal" font-family="Helvetica" font-weight="bold" stroke="none" fill="#000000" font-size="14.666666984558105px" x="0" y="0"><tspan x="0" dy="15.0">current</tspan>
</text>
</g>
</g>
<g transform="matrix(1, 0, 0, 1, 0.5, 24)">
<g stroke-linecap="butt" fill="none" stroke-opacity="1" stroke="#000000">
  <path d="M 0 1.5 L 1568.9166259765625 1.5"/>
</g>
</g>
<g transform="matrix(1, 0, 0, 1, 614.4166870117188, 42)">
<g fill-opacity="1" fill-rule="nonzero" stroke="none" fill="#ffffff">
  <path d="M 37.5 19.5 C 37.5 29.99341024678507 29.217267871869673 38.5 19 38.5 C 8.782732128130323 38.5 0.5 29.99341024678507 0.5 19.5 C 0.5 9.006589753214927 8.782732128130323 0.5 19 0.5 C 29.217267871869673 0.5 37.5 9.006589753214927 37.5 19.5 z"/>
</g>
</g>
<g transform="matrix(1, 0, 0, 1, 614.4166870117188, 42)">
<g stroke-linecap="butt" fill="none" stroke-opacity="1" stroke="#000000">
  <path d="M 37.5 19.5 C 37.5 29.99341024678507 29.217267871869673 38.5 19 38.5 C 8.782732128130323 38.5 0.5 29.99341024678507 0.5 19.5 C 0.5 9.006589753214927 8.782732128130323 0.5 19 0.5 C 29.217267871869673 0.5 37.5 9.006589753214927 37.5 19.5 z"/>
</g>
</g>
<g transform="matrix(1, 0, 0, 1, 624.4166870117188, 52)">
<clipPath id="clip2">
  <path d="M -624.4166870117188 -52 L -624.4166870117188 668.217529296875 L 945.4999389648438 668.217529296875 L 945.4999389648438 -52 z"/>
</clipPath>
<g clip-path="url(#clip2)">
<text fill-opacity="1" font-style="normal" font-family="Helvetica" font-weight="normal" stroke="none" fill="#000000" font-size="14.666666984558105px" x="0" y="0"><tspan x="0" dy="14.0">S0</tspan>
</text>
</g>
</g>
<g transform="matrix(1, 0, 0, 1, 591.9166870117188, 140)">
<g fill-opacity="1" fill-rule="nonzero" stroke="none" fill="#ffffff">
  <path d="M 82.5 19.5 C 82.5 29.99341024678507 64.14367474306252 38.5 41.5 38.5 C 18.856325256937474 38.5 0.5 29.99341024678507 0.5 19.5 C 0.5 9.006589753214927 18.856325256937474 0.5 41.5 0.5 C 64.14367474306252 0.5 82.5 9.006589753214927 82.5 19.5 z"/>
</g>
</g>
<g transform="matrix(1, 0, 0, 1, 591.9166870117188, 140)">
<g stroke-linecap="butt" fill="none" stroke-opacity="1" stroke="#000000">
  <path d="M 82.5 19.5 C 82.5 29.99341024678507 64.14367474306252 38.5 41.5 38.5 C 18.856325256937474 38.5 0.5 29.99341024678507 0.5 19.5 C 0.5 9.006589753214927 18.856325256937474 0.5 41.5 0.5 C 64.14367474306252 0.5 82.5 9.006589753214927 82.5 19.5 z"/>
</g>
</g>
<g transform="matrix(1, 0, 0, 1, 601.9166870117188, 150)">
<clipPath id="clip3">
  <path d="M -601.9166870117188 -150 L -601.9166870117188 570.217529296875 L 967.9999389648438 570.217529296875 L 967.9999389648438 -150 z"/>
</clipPath>
<g clip-path="url(#clip3)">
<text fill-opacity="1" font-style="normal" font-family="Helvetica" font-weight="normal" stroke="none" fill="#000000" font-size="14.666666984558105px" x="0" y="0"><tspan x="0" dy="14.0">I_PHASE</tspan>
</text>
</g>
</g>
<g transform="matrix(1, 0, 0, 1, 620.9166870117188, 275.95916748046875)">
<g fill-opacity="1" fill-rule="nonzero" stroke="none" fill="#ffffff">
  <path d="M 75.5 19.5 C 75.5 29.99341024678507 58.71067811865475 38.5 38 38.5 C 17.28932188134525 38.5 0.5 29.99341024678507 0.5 19.5 C 0.5 9.006589753214927 17.28932188134525 0.5 38 0.5 C 58.71067811865475 0.5 75.5 9.006589753214927 75.5 19.5 z"/>
</g>
</g>
<g transform="matrix(1, 0, 0, 1, 620.9166870117188, 275.95916748046875)">
<g stroke-linecap="butt" fill="none" stroke-opacity="1" stroke="#000000">
  <path d="M 75.5 19.5 C 75.5 29.99341024678507 58.71067811865475 38.5 38 38.5 C 17.28932188134525 38.5 0.5 29.99341024678507 0.5 19.5 C 0.5 9.006589753214927 17.28932188134525 0.5 38 0.5 C 58.71067811865475 0.5 75.5 9.006589753214927 75.5 19.5 z"/>
</g>
</g>
<g transform="matrix(1, 0, 0, 1, 630.9166870117188, 285.95916748046875)">
<clipPath id="clip4">
  <path d="M -630.9166870117188 -285.95916748046875 L -630.9166870117188 434.25836181640625 L 938.9999389648438 434.25836181640625 L 938.9999389648438 -285.95916748046875 z"/>
</clipPath>
<g clip-path="url(#clip4)">
<text fill-opacity="1" font-style="normal" font-family="Helvetica" font-weight="normal" stroke="none" fill="#000000" font-size="14.666666984558105px" x="0" y="0"><tspan x="0" dy="14.0">I_MORE</tspan>
</text>
</g>
</g>
<g transform="matrix(1, 0, 0, 1, 177.5, 275.95916748046875)">
<g fill-opacity="1" fill-rule="nonzero" stroke="none" fill="#ffffff">
  <path d="M 113.5 19.5 C 113.5 29.99341024678507 88.20408836543982 38.5 57 38.5 C 25.795911634560177 38.5 0.5 29.99341024678507 0.5 19.5 C 0.5 9.006589753214927 25.795911634560177 0.5 57 0.5 C 88.20408836543982 0.5 113.5 9.006589753214927 113.5 19.5 z"/>
</g>
</g>
<g transform="matrix(1, 0, 0, 1, 177.5, 275.95916748046875)">
<g stroke-linecap="butt" fill="none" stroke-opacity="1" stroke="#000000">
  <path d="M 113.5 19.5 C 113.5 29.99341024678507 88.20408836543982 38.5 57 38.5 C 25.795911634560177 38.5 0.5 29.99341024678507 0.5 19.5 C 0.5 9.006589753214927 25.795911634560177 0.5 57 0.5 C 88.20408836543982 0.5 113.5 9.006589753214927 113.5 19.5 z"/>
</g>
</g>
<g transform="matrix(1, 0, 0, 1, 187.5, 285.95916748046875)">
<clipPath id="clip5">
  <path d="M -187.5 -285.95916748046875 L -187.5 434.25836181640625 L 1382.4166259765625 434.25836181640625 L 1382.4166259765625 -285.95916748046875 z"/>
</clipPath>
<g clip-path="url(#clip5)">
<text fill-opacity="1" font-style="normal" font-family="Helvetica" font-weight="normal" stroke="none" fill="#000000" font-size="14.666666984558105px" x="0" y="0"><tspan x="0" dy="14.0">I_DEADLOCK</tspan>
</text>
</g>
</g>
<g transform="matrix(1, 0, 0, 1, 1209.63330078125, 275.95916748046875)">
<g fill-opacity="1" fill-rule="nonzero" stroke="none" fill="#ffffff">
  <path d="M 68.5 19.5 C 68.5 29.99341024678507 53.27768149424697 38.5 34.5 38.5 C 15.722318505753027 38.5 0.5 29.99341024678507 0.5 19.5 C 0.5 9.006589753214927 15.722318505753027 0.5 34.5 0.5 C 53.27768149424697 0.5 68.5 9.006589753214927 68.5 19.5 z"/>
</g>
</g>
<g transform="matrix(1, 0, 0, 1, 1209.63330078125, 275.95916748046875)">
<g stroke-linecap="butt" fill="none" stroke-opacity="1" stroke="#000000">
  <path d="M 68.5 19.5 C 68.5 29.99341024678507 53.27768149424697 38.5 34.5 38.5 C 15.722318505753027 38.5 0.5 29.99341024678507 0.5 19.5 C 0.5 9.006589753214927 15.722318505753027 0.5 34.5 0.5 C 53.27768149424697 0.5 68.5 9.006589753214927 68.5 19.5 z"/>
</g>
</g>
<g transform="matrix(1, 0, 0, 1, 1219.63330078125, 285.95916748046875)">
<clipPath id="clip6">
  <path d="M -1219.63330078125 -285.95916748046875 L -1219.63330078125 434.25836181640625 L 350.2833251953125 434.25836181640625 L 350.2833251953125 -285.95916748046875 z"/>
</clipPath>
<g clip-path="url(#clip6)">
<text fill-opacity="1" font-style="normal" font-family="Helvetica" font-weight="normal" stroke="none" fill="#000000" font-size="14.666666984558105px" x="0" y="0"><tspan x="0" dy="14.0">T_END</tspan>
</text>
</g>
</g>
<g transform="matrix(1, 0, 0, 1, 949.4166870117188, 413.12750244140625)">
<g fill-opacity="1" fill-rule="nonzero" stroke="none" fill="#ffffff">
  <path d="M 96.5 19.5 C 96.5 29.99341024678507 75.00966799187808 38.5 48.5 38.5 C 21.990332008121918 38.5 0.5 29.99341024678507 0.5 19.5 C 0.5 9.006589753214927 21.990332008121918 0.5 48.5 0.5 C 75.00966799187808 0.5 96.5 9.006589753214927 96.5 19.5 z"/>
</g>
</g>
<g transform="matrix(1, 0, 0, 1, 949.4166870117188, 413.12750244140625)">
<g stroke-linecap="butt" fill="none" stroke-opacity="1" stroke="#000000">
  <path d="M 96.5 19.5 C 96.5 29.99341024678507 75.00966799187808 38.5 48.5 38.5 C 21.990332008121918 38.5 0.5 29.99341024678507 0.5 19.5 C 0.5 9.006589753214927 21.990332008121918 0.5 48.5 0.5 C 75.00966799187808 0.5 96.5 9.006589753214927 96.5 19.5 z"/>
</g>
</g>
<g transform="matrix(1, 0, 0, 1, 959.4166870117188, 423.12750244140625)">
<clipPath id="clip7">
  <path d="M -959.4166870117188 -423.12750244140625 L -959.4166870117188 297.09002685546875 L 610.4999389648438 297.09002685546875 L 610.4999389648438 -423.12750244140625 z"/>
</clipPath>
<g clip-path="url(#clip7)">
<text fill-opacity="1" font-style="normal" font-family="Helvetica" font-weight="normal" stroke="none" fill="#000000" font-size="14.666666984558105px" x="0" y="0"><tspan x="0" dy="14.0">WAIT_SRC</tspan>
</text>
</g>
</g>
<g transform="matrix(1, 0, 0, 1, 592.9166870117188, 413.12750244140625)">
<g fill-opacity="1" fill-rule="nonzero" stroke="none" fill="#ffffff">
  <path d="M 96.5 19.5 C 96.5 29.99341024678507 75.00966799187808 38.5 48.5 38.5 C 21.990332008121918 38.5 0.5 29.99341024678507 0.5 19.5 C 0.5 9.006589753214927 21.990332008121918 0.5 48.5 0.5 C 75.00966799187808 0.5 96.5 9.006589753214927 96.5 19.5 z"/>
</g>
</g>
<g transform="matrix(1, 0, 0, 1, 592.9166870117188, 413.12750244140625)">
<g stroke-linecap="butt" fill="none" stroke-opacity="1" stroke="#000000">
  <path d="M 96.5 19.5 C 96.5 29.99341024678507 75.00966799187808 38.5 48.5 38.5 C 21.990332008121918 38.5 0.5 29.99341024678507 0.5 19.5 C 0.5 9.006589753214927 21.990332008121918 0.5 48.5 0.5 C 75.00966799187808 0.5 96.5 9.006589753214927 96.5 19.5 z"/>
</g>
</g>
<g transform="matrix(1, 0, 0, 1, 602.9166870117188, 423.12750244140625)">
<clipPath id="clip8">
  <path d="M -602.9166870117188 -423.12750244140625 L -602.9166870117188 297.09002685546875 L 966.9999389648438 297.09002685546875 L 966.9999389648438 -423.12750244140625 z"/>
</clipPath>
<g clip-path="url(#clip8)">
<text fill-opacity="1" font-style="normal" font-family="Helvetica" font-weight="normal" stroke="none" fill="#000000" font-size="14.666666984558105px" x="0" y="0"><tspan x="0" dy="14.0">WAIT_REQ</tspan>
</text>
</g>
</g>
<g transform="matrix(1, 0, 0, 1, 1052.066650390625, 568.217529296875)">
<g fill-opacity="1" fill-rule="nonzero" stroke="none" fill="#ffffff">
  <path d="M 121.5 19.5 C 121.5 29.99341024678507 94.41322736476299 38.5 61 38.5 C 27.586772635237004 38.5 0.5 29.99341024678507 0.5 19.5 C 0.5 9.006589753214927 27.586772635237004 0.5 61 0.5 C 94.41322736476299 0.5 121.5 9.006589753214927 121.5 19.5 z"/>
</g>
</g>
<g transform="matrix(1, 0, 0, 1, 1052.066650390625, 568.217529296875)">
<g stroke-linecap="butt" fill="none" stroke-opacity="1" stroke="#000000">
  <path d="M 121.5 19.5 C 121.5 29.99341024678507 94.41322736476299 38.5 61 38.5 C 27.586772635237004 38.5 0.5 29.99341024678507 0.5 19.5 C 0.5 9.006589753214927 27.586772635237004 0.5 61 0.5 C 94.41322736476299 0.5 121.5 9.006589753214927 121.5 19.5 z"/>
</g>
</g>
<g transform="matrix(1, 0, 0, 1, 1062.066650390625, 578.217529296875)">
<clipPath id="clip9">
  <path d="M -1062.066650390625 -578.217529296875 L -1062.066650390625 142 L 507.8499755859375 142 L 507.8499755859375 -578.217529296875 z"/>
</clipPath>
<g clip-path="url(#clip9)">
<text fill-opacity="1" font-style="normal" font-family="Helvetica" font-weight="normal" stroke="none" fill="#000000" font-size="14.666666984558105px" x="0" y="0"><tspan x="0" dy="14.0">SERVED_REQ</tspan>
</text>
</g>
</g>
<g transform="matrix(1, 0, 0, 1, 1072.566650390625, 666.217529296875)">
<g fill-opacity="1" fill-rule="nonzero" stroke="none" fill="#ffffff">
  <path d="M 80.5 19.5 C 80.5 29.99341024678507 62.59138999323173 38.5 40.5 38.5 C 18.408610006768267 38.5 0.5 29.99341024678507 0.5 19.5 C 0.5 9.006589753214927 18.408610006768267 0.5 40.5 0.5 C 62.59138999323173 0.5 80.5 9.006589753214927 80.5 19.5 z"/>
</g>
</g>
<g transform="matrix(1, 0, 0, 1, 1072.566650390625, 666.217529296875)">
<g stroke-linecap="butt" fill="none" stroke-opacity="1" stroke="#000000">
  <path d="M 80.5 19.5 C 80.5 29.99341024678507 62.59138999323173 38.5 40.5 38.5 C 18.408610006768267 38.5 0.5 29.99341024678507 0.5 19.5 C 0.5 9.006589753214927 18.408610006768267 0.5 40.5 0.5 C 62.59138999323173 0.5 80.5 9.006589753214927 80.5 19.5 z"/>
</g>
</g>
<g transform="matrix(1, 0, 0, 1, 1082.566650390625, 676.217529296875)">
<clipPath id="clip10">
  <path d="M -1082.566650390625 -676.217529296875 L -1082.566650390625 44 L 487.3499755859375 44 L 487.3499755859375 -676.217529296875 z"/>
</clipPath>
<g clip-path="url(#clip10)">
<text fill-opacity="1" font-style="normal" font-family="Helvetica" font-weight="normal" stroke="none" fill="#000000" font-size="14.666666984558105px" x="0" y="0"><tspan x="0" dy="14.0">T_MORE</tspan>
</text>
</g>
</g>
<g transform="matrix(1, 0, 0, 1, 3.5, 30)">
<g stroke-linecap="round" fill="none" stroke-opacity="1" stroke="#000000">
  <path d="M 629.9166870117188 51 C 629.9166870117188 61 629.9166870117188 70.75 629.9166870117188 80.5 C 629.9166870117188 90.25 629.9166870117188 100 629.9166870117188 110"/>
</g>
</g>
<g transform="matrix(-0.00000004371139024679, 0.999999999999999, -0.999999999999999, -0.00000004371139024679, 636.4166872739871, 132.0000001311342)">
<g fill-opacity="1" fill-rule="nonzero" stroke="none" fill="#000000">
  <path d="M 0 0 L 3.200000047683716 3 L 0 6 L 8 3 z"/>
</g>
</g>
<g transform="matrix(-0.00000004371139024679, 0.999999999999999, -0.999999999999999, -0.00000004371139024679, 636.4166872739871, 132.0000001311342)">
<g stroke-linejoin="round" stroke-linecap="butt" fill="none" stroke-opacity="1" stroke="#000000">
  <path d="M 0 0 L 3.200000047683716 3 L 0 6 L 8 3 z"/>
</g>
</g>
<g transform="matrix(1, 0, 0, 1, 540.4166870117188, 101)">
<clipPath id="clip11">
  <path d="M -540.4166870117188 -101 L -540.4166870117188 619.217529296875 L 1029.4999389648438 619.217529296875 L 1029.4999389648438 -101 z"/>
</clipPath>
<g clip-path="url(#clip11)">
<text fill-opacity="1" font-style="normal" font-family="Helvetica" font-weight="normal" stroke="none" fill="#000000" font-size="14.666666984558105px" x="0" y="0"><tspan x="0" dy="14.0">ask_next = '1'</tspan>
</text>
</g>
</g>
<g transform="matrix(1, 0, 0, 1, 3.5, 30)">
<g stroke-linecap="round" fill="none" stroke-opacity="1" stroke="#000000">
  <path d="M 629.9166870117188 149 C 629.9166870117188 177.97958374023438 629.9166870117188 189.97447204589844 629.9166870117188 199.97023010253906 C 629.9166870117188 209.96597290039062 629.9166870117188 217.9625701904297 629.9166870117188 224.4608612060547 C 629.9166870117188 230.95916748046875 629.9166870117188 235.95916748046875 643.4000244140625 246.9598388671875"/>
</g>
</g>
<g transform="matrix(0.7325920139057641, 0.6806680109726744, -0.6806680109726744, 0.7325920139057641, 643.081292329493, 269.31671874440644)">
<g fill-opacity="1" fill-rule="nonzero" stroke="none" fill="#000000">
  <path d="M 0 0 L 3.200000047683716 3 L 0 6 L 8 3 z"/>
</g>
</g>
<g transform="matrix(0.7325920139057641, 0.6806680109726744, -0.6806680109726744, 0.7325920139057641, 643.081292329493, 269.31671874440644)">
<g stroke-linejoin="round" stroke-linecap="butt" fill="none" stroke-opacity="1" stroke="#000000">
  <path d="M 0 0 L 3.200000047683716 3 L 0 6 L 8 3 z"/>
</g>
</g>
<g transform="matrix(1, 0, 0, 1, 404.4166564941406, 236.95916748046875)">
<clipPath id="clip12">
  <path d="M -404.4166564941406 -236.95916748046875 L -404.4166564941406 483.25836181640625 L 1165.4999694824219 483.25836181640625 L 1165.4999694824219 -236.95916748046875 z"/>
</clipPath>
<g clip-path="url(#clip12)">
<text fill-opacity="1" font-style="normal" font-family="Helvetica" font-weight="normal" stroke="none" fill="#000000" font-size="14.666666984558105px" x="0" y="0"><tspan x="0" dy="14.0">t_produced = '1' and has_next = '1'</tspan>
</text>
</g>
</g>
<g transform="matrix(1, 0, 0, 1, 3.5, 30)">
<g stroke-linecap="round" fill="none" stroke-opacity="1" stroke="#000000">
  <path d="M 667.433349609375 246.9598388671875 C 680.9166870117188 235.95916748046875 680.9166870117188 230.95916748046875 680.9166870117188 226.87583923339844 C 680.9166870117188 222.79249572753906 680.9166870117188 219.62583923339844 680.9166870117188 216.45916748046875 C 680.9166870117188 213.29249572753906 680.9166870117188 210.12583923339844 680.9166870117188 201.297607421875 C 680.9166870117188 192.46937561035156 680.9166870117188 177.97958374023438 639.9818725585938 148.41778564453125"/>
</g>
</g>
<g transform="matrix(-0.7925114845162828, -0.6098569888996909, 0.6098569888996909, -0.7925114845162828, 647.992393405759, 185.67417609019247)">
<g fill-opacity="1" fill-rule="nonzero" stroke="none" fill="#000000">
  <path d="M 0 0 L 3.200000047683716 3 L 0 6 L 8 3 z"/>
</g>
</g>
<g transform="matrix(-0.7925114845162828, -0.6098569888996909, 0.6098569888996909, -0.7925114845162828, 647.992393405759, 185.67417609019247)">
<g stroke-linejoin="round" stroke-linecap="butt" fill="none" stroke-opacity="1" stroke="#000000">
  <path d="M 0 0 L 3.200000047683716 3 L 0 6 L 8 3 z"/>
</g>
</g>
<g transform="matrix(1, 0, 0, 1, 690.4166870117188, 236.95916748046875)">
<clipPath id="clip13">
  <path d="M -690.4166870117188 -236.95916748046875 L -690.4166870117188 483.25836181640625 L 879.4999389648438 483.25836181640625 L 879.4999389648438 -236.95916748046875 z"/>
</clipPath>
<g clip-path="url(#clip13)">
<text fill-opacity="1" font-style="normal" font-family="Helvetica" font-weight="normal" stroke="none" fill="#000000" font-size="14.666666984558105px" x="0" y="0"><tspan x="0" dy="14.0">ask_next = '1'</tspan>
</text>
</g>
</g>
<g transform="matrix(1, 0, 0, 1, 3.5, 30)">
<g stroke-linecap="round" fill="none" stroke-opacity="1" stroke="#000000">
  <path d="M 605.0166625976562 145.10000610351562 C 231 177.97958374023438 231 192.46937561035156 231 202.1309356689453 C 231 211.79249572753906 231 216.62583923339844 231 222.66749572753906 C 231 228.70916748046875 231 235.95916748046875 231 245.95916748046875"/>
</g>
</g>
<g transform="matrix(-0.00000004371139024679, 0.999999999999999, -0.999999999999999, -0.00000004371139024679, 237.50000026226834, 267.95916761160294)">
<g fill-opacity="1" fill-rule="nonzero" stroke="none" fill="#000000">
  <path d="M 0 0 L 3.200000047683716 3 L 0 6 L 8 3 z"/>
</g>
</g>
<g transform="matrix(-0.00000004371139024679, 0.999999999999999, -0.999999999999999, -0.00000004371139024679, 237.50000026226834, 267.95916761160294)">
<g stroke-linejoin="round" stroke-linecap="butt" fill="none" stroke-opacity="1" stroke="#000000">
  <path d="M 0 0 L 3.200000047683716 3 L 0 6 L 8 3 z"/>
</g>
</g>
<g transform="matrix(1, 0, 0, 1, 15.5, 236.95916748046875)">
<clipPath id="clip14">
  <path d="M -15.5 -236.95916748046875 L -15.5 483.25836181640625 L 1554.4166259765625 483.25836181640625 L 1554.4166259765625 -236.95916748046875 z"/>
</clipPath>
<g clip-path="url(#clip14)">
<text fill-opacity="1" font-style="normal" font-family="Helvetica" font-weight="normal" stroke="none" fill="#000000" font-size="14.666666984558105px" x="0" y="0"><tspan x="0" dy="14.0">t_produced = '1' and t_ready = '0'</tspan>
</text>
</g>
</g>
<g transform="matrix(1, 0, 0, 1, 3.5, 30)">
<g stroke-linecap="round" fill="none" stroke-opacity="1" stroke="#000000">
  <path d="M 654.816650390625 145.10000610351562 C 1240.63330078125 177.97958374023438 1240.63330078125 192.46937561035156 1240.63330078125 202.1309356689453 C 1240.63330078125 211.79249572753906 1240.63330078125 216.62583923339844 1240.63330078125 222.66749572753906 C 1240.63330078125 228.70916748046875 1240.63330078125 235.95916748046875 1240.63330078125 245.95916748046875"/>
</g>
</g>
<g transform="matrix(-0.00000004371139024679, 0.999999999999999, -0.999999999999999, -0.00000004371139024679, 1247.1333010435183, 267.95916761160294)">
<g fill-opacity="1" fill-rule="nonzero" stroke="none" fill="#000000">
  <path d="M 0 0 L 3.200000047683716 3 L 0 6 L 8 3 z"/>
</g>
</g>
<g transform="matrix(-0.00000004371139024679, 0.999999999999999, -0.999999999999999, -0.00000004371139024679, 1247.1333010435183, 267.95916761160294)">
<g stroke-linejoin="round" stroke-linecap="butt" fill="none" stroke-opacity="1" stroke="#000000">
  <path d="M 0 0 L 3.200000047683716 3 L 0 6 L 8 3 z"/>
</g>
</g>
<g transform="matrix(1, 0, 0, 1, 1015.1333618164062, 236.95916748046875)">
<clipPath id="clip15">
  <path d="M -1015.1333618164062 -236.95916748046875 L -1015.1333618164062 483.25836181640625 L 554.7832641601562 483.25836181640625 L 554.7832641601562 -236.95916748046875 z"/>
</clipPath>
<g clip-path="url(#clip15)">
<text fill-opacity="1" font-style="normal" font-family="Helvetica" font-weight="normal" stroke="none" fill="#000000" font-size="14.666666984558105px" x="0" y="0"><tspan x="0" dy="14.0">t_produced = '1' and has_next = '0'</tspan>
</text>
</g>
</g>
<g transform="matrix(1, 0, 0, 1, 3.5, 30)">
<g stroke-linecap="round" fill="none" stroke-opacity="1" stroke="#000000">
  <path d="M 648.4760131835938 146.9413299560547 C 942.4166870117188 177.97958374023438 942.4166870117188 192.46937561035156 942.4166870117188 202.1309356689453 C 942.4166870117188 211.79249572753906 942.4166870117188 216.62583923339844 942.4166870117188 221.45916748046875 C 942.4166870117188 226.29249572753906 942.4166870117188 231.12583923339844 942.4166870117188 244.60374450683594 C 942.4166870117188 258.0816650390625 942.4166870117188 280.20416259765625 942.4166870117188 295.8793640136719 C 942.4166870117188 311.5545959472656 942.4166870117188 320.7825012207031 942.4166870117188 330.0104064941406 C 942.4166870117188 339.23834228515625 942.4166870117188 348.46624755859375 942.4166870117188 356.2593688964844 C 942.4166870117188 364.052490234375 942.4166870117188 370.41082763671875 979.07958984375 384.128173828125"/>
</g>
</g>
<g transform="matrix(0.9197456284498469, 0.392514941049887, -0.392514941049887, 0.9197456284498469, 976.3991696502784, 408.2288173886537)">
<g fill-opacity="1" fill-rule="nonzero" stroke="none" fill="#000000">
  <path d="M 0 0 L 3.200000047683716 3 L 0 6 L 8 3 z"/>
</g>
</g>
<g transform="matrix(0.9197456284498469, 0.392514941049887, -0.392514941049887, 0.9197456284498469, 976.3991696502784, 408.2288173886537)">
<g stroke-linejoin="round" stroke-linecap="butt" fill="none" stroke-opacity="1" stroke="#000000">
  <path d="M 0 0 L 3.200000047683716 3 L 0 6 L 8 3 z"/>
</g>
</g>
<g transform="matrix(1, 0, 0, 1, 716.9166870117188, 276.45916748046875)">
<clipPath id="clip16">
  <path d="M -716.9166870117188 -276.45916748046875 L -716.9166870117188 443.75836181640625 L 852.9999389648438 443.75836181640625 L 852.9999389648438 -276.45916748046875 z"/>
</clipPath>
<g clip-path="url(#clip16)">
<text fill-opacity="1" font-style="normal" font-family="Helvetica" font-weight="normal" stroke="none" fill="#000000" font-size="14.666666984558105px" x="0" y="0"><tspan x="0" dy="14.0">t_produced = '1' and has_next = '0'</tspan>
</text>
</g>
</g>
<g transform="matrix(1, 0, 0, 1, 852.9166870117188, 295.45916748046875)">
<clipPath id="clip17">
  <path d="M -852.9166870117188 -295.45916748046875 L -852.9166870117188 424.75836181640625 L 716.9999389648438 424.75836181640625 L 716.9999389648438 -295.45916748046875 z"/>
</clipPath>
<g clip-path="url(#clip17)">
<text fill-opacity="1" font-style="normal" font-family="Helvetica" font-weight="normal" stroke="none" fill="#000000" font-size="14.666666984558105px" x="0" y="0"><tspan x="0" dy="14.0">ask_next = '1'</tspan>
</text>
</g>
</g>
<g transform="matrix(1, 0, 0, 1, 3.5, 30)">
<g stroke-linecap="round" fill="none" stroke-opacity="1" stroke="#000000">
  <path d="M 1233.8673095703125 284.5804748535156 C 1110.9666748046875 302.32666015625 1110.9666748046875 311.0104064941406 1110.9666748046875 318.5189514160156 C 1110.9666748046875 326.0274963378906 1110.9666748046875 332.36083984375 1110.9666748046875 338.69415283203125 C 1110.9666748046875 345.0274963378906 1110.9666748046875 351.36083984375 1110.9666748046875 357.7066650390625 C 1110.9666748046875 364.052490234375 1110.9666748046875 370.41082763671875 1009.7537231445312 384.128173828125"/>
</g>
</g>
<g transform="matrix(-0.9883186736923848, 0.15240144103952993, -0.15240144103952993, -0.9883186736923848, 1021.6174768461219, 415.87391824911737)">
<g fill-opacity="1" fill-rule="nonzero" stroke="none" fill="#000000">
  <path d="M 0 0 L 3.200000047683716 3 L 0 6 L 8 3 z"/>
</g>
</g>
<g transform="matrix(-0.9883186736923848, 0.15240144103952993, -0.15240144103952993, -0.9883186736923848, 1021.6174768461219, 415.87391824911737)">
<g stroke-linejoin="round" stroke-linecap="butt" fill="none" stroke-opacity="1" stroke="#000000">
  <path d="M 0 0 L 3.200000047683716 3 L 0 6 L 8 3 z"/>
</g>
</g>
<g transform="matrix(1, 0, 0, 1, 1021.4666748046875, 359.19415283203125)">
<clipPath id="clip18">
  <path d="M -1021.4666748046875 -359.19415283203125 L -1021.4666748046875 361.02337646484375 L 548.449951171875 361.02337646484375 L 548.449951171875 -359.19415283203125 z"/>
</clipPath>
<g clip-path="url(#clip18)">
<text fill-opacity="1" font-style="normal" font-family="Helvetica" font-weight="normal" stroke="none" fill="#000000" font-size="14.666666984558105px" x="0" y="0"><tspan x="0" dy="14.0">ask_next = '1'</tspan>
</text>
</g>
</g>
<g transform="matrix(1, 0, 0, 1, 3.5, 30)">
<g stroke-linecap="round" fill="none" stroke-opacity="1" stroke="#000000">
  <path d="M 619.8514404296875 148.41778564453125 C 367.4166564941406 177.97958374023438 367.4166564941406 192.46937561035156 367.4166564941406 202.1309356689453 C 367.4166564941406 211.79249572753906 367.4166564941406 216.62583923339844 367.4166564941406 221.45916748046875 C 367.4166564941406 226.29249572753906 367.4166564941406 231.12583923339844 367.4166564941406 244.60374450683594 C 367.4166564941406 258.0816650390625 367.4166564941406 280.20416259765625 367.4166564941406 295.8793640136719 C 367.4166564941406 311.5545959472656 367.4166564941406 320.7825012207031 367.4166564941406 330.0104064941406 C 367.4166564941406 339.23834228515625 367.4166564941406 348.46624755859375 367.4166564941406 356.2593688964844 C 367.4166564941406 364.052490234375 367.4166564941406 370.41082763671875 622.57958984375 384.128173828125"/>
</g>
</g>
<g transform="matrix(0.998125252628522, 0.061204412138742205, -0.061204412138742205, 0.998125252628522, 618.2782010590826, 410.6441627740349)">
<g fill-opacity="1" fill-rule="nonzero" stroke="none" fill="#000000">
  <path d="M 0 0 L 3.200000047683716 3 L 0 6 L 8 3 z"/>
</g>
</g>
<g transform="matrix(0.998125252628522, 0.061204412138742205, -0.061204412138742205, 0.998125252628522, 618.2782010590826, 410.6441627740349)">
<g stroke-linejoin="round" stroke-linecap="butt" fill="none" stroke-opacity="1" stroke="#000000">
  <path d="M 0 0 L 3.200000047683716 3 L 0 6 L 8 3 z"/>
</g>
</g>
<g transform="matrix(1, 0, 0, 1, 376.9166564941406, 276.45916748046875)">
<clipPath id="clip19">
  <path d="M -376.9166564941406 -276.45916748046875 L -376.9166564941406 443.75836181640625 L 1192.9999694824219 443.75836181640625 L 1192.9999694824219 -276.45916748046875 z"/>
</clipPath>
<g clip-path="url(#clip19)">
<text fill-opacity="1" font-style="normal" font-family="Helvetica" font-weight="normal" stroke="none" fill="#000000" font-size="14.666666984558105px" x="0" y="0"><tspan x="0" dy="14.0">t_produced = '1' and has_next = '0'</tspan>
</text>
</g>
</g>
<g transform="matrix(1, 0, 0, 1, 376.9166564941406, 295.45916748046875)">
<clipPath id="clip20">
  <path d="M -376.9166564941406 -295.45916748046875 L -376.9166564941406 424.75836181640625 L 1192.9999694824219 424.75836181640625 L 1192.9999694824219 -295.45916748046875 z"/>
</clipPath>
<g clip-path="url(#clip20)">
<text fill-opacity="1" font-style="normal" font-family="Helvetica" font-weight="normal" stroke="none" fill="#000000" font-size="14.666666984558105px" x="0" y="0"><tspan x="0" dy="14.0">s_ready = '1'</tspan>
</text>
</g>
</g>
<g transform="matrix(1, 0, 0, 1, 3.5, 30)">
<g stroke-linecap="round" fill="none" stroke-opacity="1" stroke="#000000">
  <path d="M 1222.8831787109375 282.1802673339844 C 872.5833129882812 302.32666015625 872.5833129882812 311.0104064941406 872.5833129882812 318.5189514160156 C 872.5833129882812 326.0274963378906 872.5833129882812 332.36083984375 872.5833129882812 338.69415283203125 C 872.5833129882812 345.0274963378906 872.5833129882812 351.36083984375 872.5833129882812 357.7066650390625 C 872.5833129882812 364.052490234375 872.5833129882812 370.41082763671875 653.2537231445312 384.128173828125"/>
</g>
</g>
<g transform="matrix(-0.9974777663080376, 0.07097961482797624, -0.07097961482797624, -0.9974777663080376, 664.9464841064012, 416.55277002463424)">
<g fill-opacity="1" fill-rule="nonzero" stroke="none" fill="#000000">
  <path d="M 0 0 L 3.200000047683716 3 L 0 6 L 8 3 z"/>
</g>
</g>
<g transform="matrix(-0.9974777663080376, 0.07097961482797624, -0.07097961482797624, -0.9974777663080376, 664.9464841064012, 416.55277002463424)">
<g stroke-linejoin="round" stroke-linecap="butt" fill="none" stroke-opacity="1" stroke="#000000">
  <path d="M 0 0 L 3.200000047683716 3 L 0 6 L 8 3 z"/>
</g>
</g>
<g transform="matrix(1, 0, 0, 1, 789.0833129882812, 359.19415283203125)">
<clipPath id="clip21">
  <path d="M -789.0833129882812 -359.19415283203125 L -789.0833129882812 361.02337646484375 L 780.8333129882812 361.02337646484375 L 780.8333129882812 -359.19415283203125 z"/>
</clipPath>
<g clip-path="url(#clip21)">
<text fill-opacity="1" font-style="normal" font-family="Helvetica" font-weight="normal" stroke="none" fill="#000000" font-size="14.666666984558105px" x="0" y="0"><tspan x="0" dy="14.0">s_ready = '1'</tspan>
</text>
</g>
</g>
<g transform="matrix(1, 0, 0, 1, 3.5, 30)">
<g stroke-linecap="round" fill="none" stroke-opacity="1" stroke="#000000">
  <path d="M 611.3572998046875 146.9413299560547 C 298 177.97958374023438 298 192.46937561035156 298 202.1309356689453 C 298 211.79249572753906 298 216.62583923339844 298 221.45916748046875 C 298 226.29249572753906 298 231.12583923339844 298 244.60374450683594 C 298 258.0816650390625 298 280.20416259765625 298 296.9390869140625 C 298 313.6740417480469 298 325.0213928222656 298 336.3687438964844 C 298 347.71612548828125 298 359.0634765625 298 375.02325439453125 C 298 390.9830627441406 298 411.5552673339844 298 424.258056640625 C 298 436.9608459472656 298 441.7941589355469 298 446.62750244140625 C 298 451.4608459472656 298 456.2941589355469 298 468.3470764160156 C 298 480.3999938964844 298 499.6724853515625 1075.72998046875 541.4924926757812"/>
</g>
</g>
<g transform="matrix(0.9983743723252404, 0.056996602391566745, -0.056996602391566745, 0.9983743723252404, 1071.4139752974042, 568.0413967382492)">
<g fill-opacity="1" fill-rule="nonzero" stroke="none" fill="#000000">
  <path d="M 0 0 L 3.200000047683716 3 L 0 6 L 8 3 z"/>
</g>
</g>
<g transform="matrix(0.9983743723252404, 0.056996602391566745, -0.056996602391566745, 0.9983743723252404, 1071.4139752974042, 568.0413967382492)">
<g stroke-linejoin="round" stroke-linecap="butt" fill="none" stroke-opacity="1" stroke="#000000">
  <path d="M 0 0 L 3.200000047683716 3 L 0 6 L 8 3 z"/>
</g>
</g>
<g transform="matrix(1, 0, 0, 1, 72.5, 349.69415283203125)">
<clipPath id="clip22">
  <path d="M -72.5 -349.69415283203125 L -72.5 370.52337646484375 L 1497.4166259765625 370.52337646484375 L 1497.4166259765625 -349.69415283203125 z"/>
</clipPath>
<g clip-path="url(#clip22)">
<text fill-opacity="1" font-style="normal" font-family="Helvetica" font-weight="normal" stroke="none" fill="#000000" font-size="14.666666984558105px" x="0" y="0"><tspan x="0" dy="14.0">t_produced = '1' and has_next = '0'</tspan>
</text>
</g>
</g>
<g transform="matrix(1, 0, 0, 1, 94.5, 368.69415283203125)">
<clipPath id="clip23">
  <path d="M -94.5 -368.69415283203125 L -94.5 351.52337646484375 L 1475.4166259765625 351.52337646484375 L 1475.4166259765625 -368.69415283203125 z"/>
</clipPath>
<g clip-path="url(#clip23)">
<text fill-opacity="1" font-style="normal" font-family="Helvetica" font-weight="normal" stroke="none" fill="#000000" font-size="14.666666984558105px" x="0" y="0"><tspan x="0" dy="14.0">ask_next = '1' and s_ready = '1'</tspan>
</text>
</g>
</g>
<g transform="matrix(1, 0, 0, 1, 3.5, 30)">
<g stroke-linecap="round" fill="none" stroke-opacity="1" stroke="#000000">
  <path d="M 1247.3992919921875 284.5804748535156 C 1269.9166259765625 302.32666015625 1269.9166259765625 311.0104064941406 1269.9166259765625 319.57867431640625 C 1269.9166259765625 328.1469421386719 1269.9166259765625 336.5997314453125 1269.9166259765625 345.052490234375 C 1269.9166259765625 353.5052795410156 1269.9166259765625 361.95806884765625 1269.9166259765625 376.4705505371094 C 1269.9166259765625 390.9830627441406 1269.9166259765625 411.5552673339844 1269.9166259765625 424.258056640625 C 1269.9166259765625 436.9608459472656 1269.9166259765625 441.7941589355469 1269.9166259765625 446.62750244140625 C 1269.9166259765625 451.4608459472656 1269.9166259765625 456.2941589355469 1269.9166259765625 468.3470764160156 C 1269.9166259765625 480.3999938964844 1269.9166259765625 499.6724853515625 1128.8565673828125 539.2182006835938"/>
</g>
</g>
<g transform="matrix(-0.958184577429721, 0.28615086156750785, -0.28615086156750785, -0.958184577429721, 1140.8804966021723, 569.8035475743058)">
<g fill-opacity="1" fill-rule="nonzero" stroke="none" fill="#000000">
  <path d="M 0 0 L 3.200000047683716 3 L 0 6 L 8 3 z"/>
</g>
</g>
<g transform="matrix(-0.958184577429721, 0.28615086156750785, -0.28615086156750785, -0.958184577429721, 1140.8804966021723, 569.8035475743058)">
<g stroke-linejoin="round" stroke-linecap="butt" fill="none" stroke-opacity="1" stroke="#000000">
  <path d="M 0 0 L 3.200000047683716 3 L 0 6 L 8 3 z"/>
</g>
</g>
<g transform="matrix(1, 0, 0, 1, 1066.4166259765625, 423.12750244140625)">
<clipPath id="clip24">
  <path d="M -1066.4166259765625 -423.12750244140625 L -1066.4166259765625 297.09002685546875 L 503.5 297.09002685546875 L 503.5 -423.12750244140625 z"/>
</clipPath>
<g clip-path="url(#clip24)">
<text fill-opacity="1" font-style="normal" font-family="Helvetica" font-weight="normal" stroke="none" fill="#000000" font-size="14.666666984558105px" x="0" y="0"><tspan x="0" dy="14.0">ask_next = '1' and s_ready = '1'</tspan>
</text>
</g>
</g>
<g transform="matrix(1, 0, 0, 1, 3.5, 30)">
<g stroke-linecap="round" fill="none" stroke-opacity="1" stroke="#000000">
  <path d="M 994.4166870117188 422.12750244140625 C 994.4166870117188 432.12750244140625 994.4166870117188 439.37750244140625 994.4166870117188 445.4191589355469 C 994.4166870117188 451.4608459472656 994.4166870117188 456.2941589355469 994.4166870117188 468.3470764160156 C 994.4166870117188 480.3999938964844 994.4166870117188 499.6724853515625 1109.566650390625 538.217529296875"/>
</g>
</g>
<g transform="matrix(0.9417415656117306, 0.3363373657492824, -0.3363373657492824, 0.9417415656117306, 1106.5417299553008, 562.7016056955446)">
<g fill-opacity="1" fill-rule="nonzero" stroke="none" fill="#000000">
  <path d="M 0 0 L 3.200000047683716 3 L 0 6 L 8 3 z"/>
</g>
</g>
<g transform="matrix(0.9417415656117306, 0.3363373657492824, -0.3363373657492824, 0.9417415656117306, 1106.5417299553008, 562.7016056955446)">
<g stroke-linejoin="round" stroke-linecap="butt" fill="none" stroke-opacity="1" stroke="#000000">
  <path d="M 0 0 L 3.200000047683716 3 L 0 6 L 8 3 z"/>
</g>
</g>
<g transform="matrix(1, 0, 0, 1, 910.9166870117188, 472.12750244140625)">
<clipPath id="clip25">
  <path d="M -910.9166870117188 -472.12750244140625 L -910.9166870117188 248.09002685546875 L 658.9999389648438 248.09002685546875 L 658.9999389648438 -472.12750244140625 z"/>
</clipPath>
<g clip-path="url(#clip25)">
<text fill-opacity="1" font-style="normal" font-family="Helvetica" font-weight="normal" stroke="none" fill="#000000" font-size="14.666666984558105px" x="0" y="0"><tspan x="0" dy="14.0">s_ready = '1'</tspan>
</text>
</g>
</g>
<g transform="matrix(1, 0, 0, 1, 3.5, 30)">
<g stroke-linecap="round" fill="none" stroke-opacity="1" stroke="#000000">
  <path d="M 637.9166870117188 422.12750244140625 C 637.9166870117188 432.12750244140625 637.9166870117188 439.37750244140625 637.9166870117188 445.4191589355469 C 637.9166870117188 451.4608459472656 637.9166870117188 456.2941589355469 637.9166870117188 468.3470764160156 C 637.9166870117188 480.3999938964844 637.9166870117188 499.6724853515625 1090.2767333984375 539.2182006835938"/>
</g>
</g>
<g transform="matrix(0.9956918887987324, 0.09272358157670924, -0.09272358157670924, 0.9956918887987324, 1086.0893690327653, 565.4893363647186)">
<g fill-opacity="1" fill-rule="nonzero" stroke="none" fill="#000000">
  <path d="M 0 0 L 3.200000047683716 3 L 0 6 L 8 3 z"/>
</g>
</g>
<g transform="matrix(0.9956918887987324, 0.09272358157670924, -0.09272358157670924, 0.9956918887987324, 1086.0893690327653, 565.4893363647186)">
<g stroke-linejoin="round" stroke-linecap="butt" fill="none" stroke-opacity="1" stroke="#000000">
  <path d="M 0 0 L 3.200000047683716 3 L 0 6 L 8 3 z"/>
</g>
</g>
<g transform="matrix(1, 0, 0, 1, 548.4166870117188, 472.12750244140625)">
<clipPath id="clip26">
  <path d="M -548.4166870117188 -472.12750244140625 L -548.4166870117188 248.09002685546875 L 1021.4999389648438 248.09002685546875 L 1021.4999389648438 -472.12750244140625 z"/>
</clipPath>
<g clip-path="url(#clip26)">
<text fill-opacity="1" font-style="normal" font-family="Helvetica" font-weight="normal" stroke="none" fill="#000000" font-size="14.666666984558105px" x="0" y="0"><tspan x="0" dy="14.0">ask_next = '1'</tspan>
</text>
</g>
</g>
<g transform="matrix(1, 0, 0, 1, 3.5, 30)">
<g stroke-linecap="round" fill="none" stroke-opacity="1" stroke="#000000">
  <path d="M 1143.4033203125 541.4924926757812 C 1320.9166259765625 499.6724853515625 1320.9166259765625 480.3999938964844 1320.9166259765625 468.3470764160156 C 1320.9166259765625 456.2941589355469 1320.9166259765625 451.4608459472656 1320.9166259765625 446.62750244140625 C 1320.9166259765625 441.7941589355469 1320.9166259765625 436.9608459472656 1320.9166259765625 424.258056640625 C 1320.9166259765625 411.5552673339844 1320.9166259765625 390.9830627441406 1320.9166259765625 376.4705505371094 C 1320.9166259765625 361.95806884765625 1320.9166259765625 353.5052795410156 1320.9166259765625 345.052490234375 C 1320.9166259765625 336.5997314453125 1320.9166259765625 328.1469421386719 1320.9166259765625 319.57867431640625 C 1320.9166259765625 311.0104064941406 1320.9166259765625 302.32666015625 1258.3834228515625 282.1802673339844"/>
</g>
</g>
<g transform="matrix(-0.9464671169140919, -0.3228002425654705, 0.3228002425654705, -0.9464671169140919, 1268.4867590867025, 317.60207054454924)">
<g fill-opacity="1" fill-rule="nonzero" stroke="none" fill="#000000">
  <path d="M 0 0 L 3.200000047683716 3 L 0 6 L 8 3 z"/>
</g>
</g>
<g transform="matrix(-0.9464671169140919, -0.3228002425654705, 0.3228002425654705, -0.9464671169140919, 1268.4867590867025, 317.60207054454924)">
<g stroke-linejoin="round" stroke-linecap="butt" fill="none" stroke-opacity="1" stroke="#000000">
  <path d="M 0 0 L 3.200000047683716 3 L 0 6 L 8 3 z"/>
</g>
</g>
<g transform="matrix(1, 0, 0, 1, 1330.4166259765625, 413.62750244140625)">
<clipPath id="clip27">
  <path d="M -1330.4166259765625 -413.62750244140625 L -1330.4166259765625 306.59002685546875 L 239.5 306.59002685546875 L 239.5 -413.62750244140625 z"/>
</clipPath>
<g clip-path="url(#clip27)">
<text fill-opacity="1" font-style="normal" font-family="Helvetica" font-weight="normal" stroke="none" fill="#000000" font-size="14.666666984558105px" x="0" y="0"><tspan x="0" dy="14.0">t_produced = '1' and has_next = '0'</tspan>
</text>
</g>
</g>
<g transform="matrix(1, 0, 0, 1, 1330.4166259765625, 432.62750244140625)">
<clipPath id="clip28">
  <path d="M -1330.4166259765625 -432.62750244140625 L -1330.4166259765625 287.59002685546875 L 239.5 287.59002685546875 L 239.5 -432.62750244140625 z"/>
</clipPath>
<g clip-path="url(#clip28)">
<text fill-opacity="1" font-style="normal" font-family="Helvetica" font-weight="normal" stroke="none" fill="#000000" font-size="14.666666984558105px" x="0" y="0"><tspan x="0" dy="14.0">t_produced = '1' and t_ready = '0'</tspan>
</text>
</g>
</g>
<g transform="matrix(1, 0, 0, 1, 3.5, 30)">
<g stroke-linecap="round" fill="none" stroke-opacity="1" stroke="#000000">
  <path d="M 1090.2767333984375 576.216796875 C 1084.066650390625 587.217529296875 1084.066650390625 592.217529296875 1084.066650390625 596.3008422851562 C 1084.066650390625 600.3841552734375 1084.066650390625 603.5508422851562 1084.066650390625 606.717529296875 C 1084.066650390625 609.8841552734375 1084.066650390625 613.0508422851562 1084.066650390625 617.1341552734375 C 1084.066650390625 621.217529296875 1084.066650390625 626.217529296875 1096.7593994140625 637.2182006835938"/>
</g>
</g>
<g transform="matrix(0.7135523004032024, 0.7006019658759872, -0.7006019658759872, 0.7135523004032024, 1096.6527868735313, 659.4727280909555)">
<g fill-opacity="1" fill-rule="nonzero" stroke="none" fill="#000000">
  <path d="M 0 0 L 3.200000047683716 3 L 0 6 L 8 3 z"/>
</g>
</g>
<g transform="matrix(0.7135523004032024, 0.7006019658759872, -0.7006019658759872, 0.7135523004032024, 1096.6527868735313, 659.4727280909555)">
<g stroke-linejoin="round" stroke-linecap="butt" fill="none" stroke-opacity="1" stroke="#000000">
  <path d="M 0 0 L 3.200000047683716 3 L 0 6 L 8 3 z"/>
</g>
</g>
<g transform="matrix(1, 0, 0, 1, 858.566650390625, 627.217529296875)">
<clipPath id="clip29">
  <path d="M -858.566650390625 -627.217529296875 L -858.566650390625 93 L 711.3499755859375 93 L 711.3499755859375 -627.217529296875 z"/>
</clipPath>
<g clip-path="url(#clip29)">
<text fill-opacity="1" font-style="normal" font-family="Helvetica" font-weight="normal" stroke="none" fill="#000000" font-size="14.666666984558105px" x="0" y="0"><tspan x="0" dy="14.0">t_produced = '1' and has_next = '1'</tspan>
</text>
</g>
</g>
<g transform="matrix(1, 0, 0, 1, 3.5, 30)">
<g stroke-linecap="round" fill="none" stroke-opacity="1" stroke="#000000">
  <path d="M 1122.3739013671875 637.2182006835938 C 1135.066650390625 626.217529296875 1135.066650390625 621.217529296875 1135.066650390625 617.1341552734375 C 1135.066650390625 613.0508422851562 1135.066650390625 609.8841552734375 1135.066650390625 606.717529296875 C 1135.066650390625 603.5508422851562 1135.066650390625 600.3841552734375 1135.066650390625 596.3008422851562 C 1135.066650390625 592.217529296875 1135.066650390625 587.217529296875 1128.8565673828125 576.216796875"/>
</g>
</g>
<g transform="matrix(-0.44599994422536515, -0.895032988079753, 0.895032988079753, -0.44599994422536515, 1133.2394681489382, 614.7150605243321)">
<g fill-opacity="1" fill-rule="nonzero" stroke="none" fill="#000000">
  <path d="M 0 0 L 3.200000047683716 3 L 0 6 L 8 3 z"/>
</g>
</g>
<g transform="matrix(-0.44599994422536515, -0.895032988079753, 0.895032988079753, -0.44599994422536515, 1133.2394681489382, 614.7150605243321)">
<g stroke-linejoin="round" stroke-linecap="butt" fill="none" stroke-opacity="1" stroke="#000000">
  <path d="M 0 0 L 3.200000047683716 3 L 0 6 L 8 3 z"/>
</g>
</g>
<g transform="matrix(1, 0, 0, 1, 1144.566650390625, 627.217529296875)">
<clipPath id="clip30">
  <path d="M -1144.566650390625 -627.217529296875 L -1144.566650390625 93 L 425.3499755859375 93 L 425.3499755859375 -627.217529296875 z"/>
</clipPath>
<g clip-path="url(#clip30)">
<text fill-opacity="1" font-style="normal" font-family="Helvetica" font-weight="normal" stroke="none" fill="#000000" font-size="14.666666984558105px" x="0" y="0"><tspan x="0" dy="14.0">ask_next = '1'</tspan>
</text>
</g>
</g>
</g>
</svg>
